<svg data-v-fde0c5aa="" xmlns="http://www.w3.org/2000/svg" viewBox="0 0 300 300" class="iconAboveSlogan"><!----><defs data-v-fde0c5aa=""><!----></defs><rect data-v-fde0c5aa="" fill="transparent" x="0" y="0" width="300px" height="300px" class="logo-background-square"></rect><defs data-v-fde0c5aa=""><!----></defs><g data-v-fde0c5aa="" id="a2df55e3-2238-4262-87fd-049047653e1b" fill="#000000" transform="matrix(2.4408559799194336,0,0,2.4408559799194336,20.292902722974187,155.0265093114975)"><path d="M7.53 12.60L9.38 12.60L5.58 2.10L3.68 2.10L-0.12 12.60L1.73 12.60L2.49 10.38L6.77 10.38ZM2.99 8.87L4.64 3.97L6.28 8.87ZM13.88 5.46C13.18 5.46 12.55 5.76 12.08 6.27L12.08 5.60L10.41 5.60L10.41 12.60L12.08 12.60L12.08 8.33C12.08 7.58 12.67 7.00 13.44 7.00C14.21 7.00 14.79 7.58 14.79 8.33L14.79 12.60L16.43 12.60L16.43 8.16C16.43 6.63 15.24 5.46 13.88 5.46ZM23.94 0.14L23.94 6.34C23.35 5.79 22.58 5.46 21.68 5.46C19.71 5.46 18.13 7.07 18.13 9.10C18.13 11.13 19.71 12.74 21.68 12.74C22.58 12.74 23.35 12.41 23.94 11.87L23.94 12.60L25.60 12.60L25.60 0.14ZM21.89 11.20C20.72 11.20 19.79 10.27 19.79 9.10C19.79 7.93 20.72 7.00 21.89 7.00C23.05 7.00 23.99 7.93 23.99 9.10C23.99 10.27 23.05 11.20 21.89 11.20ZM31.73 5.46C30.82 5.46 30.07 5.88 29.58 6.56L29.58 5.60L27.91 5.60L27.91 12.60L29.58 12.60L29.58 9.05C29.58 7.82 30.49 7.00 31.69 7.00C31.92 7.00 32.11 7.04 32.29 7.07L32.29 5.51C32.11 5.48 31.92 5.46 31.73 5.46ZM40.41 9.07C40.37 6.97 38.83 5.46 36.72 5.46C34.58 5.46 32.97 7.00 32.97 9.10C32.97 11.20 34.56 12.74 36.73 12.74C38.54 12.74 39.88 11.67 40.29 10.15L38.62 10.15C38.33 10.89 37.63 11.36 36.73 11.36C35.56 11.36 34.74 10.54 34.65 9.36L40.39 9.36ZM36.73 6.86C37.64 6.86 38.29 7.37 38.59 8.17L34.79 8.17C35.11 7.39 35.79 6.86 36.73 6.86ZM50.73 5.60L49.23 10.80L47.53 5.60L46.13 5.60L44.43 10.76L42.93 5.60L41.06 5.60L43.47 12.60L45.24 12.60L46.83 7.86L48.41 12.60L50.19 12.60L52.57 5.60ZM64.12 2.10L56.86 2.10L56.86 3.69L59.64 3.69L59.64 12.60L61.34 12.60L61.34 3.69L64.12 3.69ZM72.94 11.24C72.61 11.24 72.29 11.06 72.29 10.45L72.29 5.60L70.63 5.60L70.63 6.34C70.04 5.79 69.27 5.46 68.37 5.46C66.40 5.46 64.82 7.07 64.82 9.10C64.82 11.13 66.40 12.74 68.37 12.74C69.39 12.74 70.28 12.29 70.88 11.57C71.23 12.27 71.91 12.74 72.77 12.74C72.98 12.74 73.17 12.69 73.33 12.60L73.33 11.24ZM68.58 11.20C67.41 11.20 66.48 10.27 66.48 9.10C66.48 7.93 67.41 7.00 68.58 7.00C69.74 7.00 70.68 7.93 70.68 9.10C70.68 10.27 69.74 11.20 68.58 11.20ZM78.65 5.46C77.75 5.46 76.98 5.79 76.39 6.34L76.39 5.60L74.73 5.60L74.73 16.80L76.39 16.80L76.39 11.87C76.98 12.41 77.75 12.74 78.65 12.74C80.62 12.74 82.20 11.13 82.20 9.10C82.20 7.07 80.62 5.46 78.65 5.46ZM78.44 11.20C77.26 11.20 76.34 10.27 76.34 9.10C76.34 7.93 77.26 7.00 78.44 7.00C79.61 7.00 80.54 7.93 80.54 9.10C80.54 10.27 79.61 11.20 78.44 11.20ZM87.94 5.46C87.05 5.46 86.28 5.79 85.68 6.34L85.68 5.60L84.02 5.60L84.02 16.80L85.68 16.80L85.68 11.87C86.28 12.41 87.05 12.74 87.94 12.74C89.92 12.74 91.49 11.13 91.49 9.10C91.49 7.07 89.92 5.46 87.94 5.46ZM87.73 11.20C86.56 11.20 85.63 10.27 85.63 9.10C85.63 7.93 86.56 7.00 87.73 7.00C88.90 7.00 89.83 7.93 89.83 9.10C89.83 10.27 88.90 11.20 87.73 11.20ZM100.26 9.07C100.22 6.97 98.68 5.46 96.57 5.46C94.43 5.46 92.82 7.00 92.82 9.10C92.82 11.20 94.41 12.74 96.58 12.74C98.39 12.74 99.73 11.67 100.14 10.15L98.47 10.15C98.18 10.89 97.48 11.36 96.58 11.36C95.41 11.36 94.59 10.54 94.50 9.36L100.24 9.36ZM96.58 6.86C97.49 6.86 98.14 7.37 98.44 8.17L94.64 8.17C94.96 7.39 95.64 6.86 96.58 6.86ZM105.84 5.46C104.93 5.46 104.18 5.88 103.69 6.56L103.69 5.60L102.03 5.60L102.03 12.60L103.69 12.60L103.69 9.05C103.69 7.82 104.60 7.00 105.81 7.00C106.03 7.00 106.23 7.04 106.40 7.07L106.40 5.51C106.23 5.48 106.03 5.46 105.84 5.46Z"></path></g><defs data-v-fde0c5aa=""><linearGradient data-v-fde0c5aa="" gradientTransform="rotate(25)" id="d86028fd-893e-46c0-b382-94292b277fc4" x1="0%" y1="0%" x2="100%" y2="0%"><stop data-v-fde0c5aa="" offset="0%" stop-color="#E90DDA" stop-opacity="1"></stop><stop data-v-fde0c5aa="" offset="100%" stop-color="#15CFF1" stop-opacity="1"></stop></linearGradient></defs><g data-v-fde0c5aa="" id="e8a633ee-a348-4d39-9b38-764696ab4bdc" stroke="none" fill="url(#d86028fd-893e-46c0-b382-94292b277fc4)" transform="matrix(1.0353010892868042,0,0,1.0353010892868042,116.3552716553879,78.43579328291182)"><path d="M54.169 24.292c-.205-3.657-3.219-14.394-14.004-15.703-2.185-.265-4.517-.51-6.767-.51-6.475 0-10.934 2.104-14.909 7.037-4.512 5.597-3.354 10.369-2.589 13.526.29 1.192.539 2.222.289 2.723-1.054 2.108-4.642 7.231-4.684 7.29-.853 1.263-1.083 2.182-.723 2.892.547 1.079 2.261 1.146 3.918 1.209 1.139.045 2.43.095 2.81.494.8.842.894 3.489.962 5.423.048 1.354.086 2.423.305 3.035.133.373.49.816 1.437.816.627 0 1.401-.175 2.297-.377 1.395-.314 3.11-.644 4.203-.372.479.12.832.379 1.078.792.793 1.335.193 3.707.188 3.73a.5.5 0 0 0 .484.626H49.03a.503.503 0 0 0 .395-.206.517.517 0 0 0 .082-.444c-.005-.02-.13-.497-.13-2.648 0-.576-.08-1.139-.165-1.733-.281-1.98-.632-4.444 1.667-9.582.509-1.136.956-2.056 1.345-2.857 1.971-4.061 2.501-5.152 1.945-15.161zm-2.845 14.722c-.393.809-.845 1.738-1.357 2.886-2.418 5.4-2.028 8.135-1.744 10.131.083.583.154 1.087.154 1.593 0 1.143.033 1.855.074 2.299H29.076c.152-.918.301-2.646-.422-3.864a2.652 2.652 0 0 0-1.696-1.255c-1.304-.326-3.157.027-4.665.367-1.259.285-2.474.479-2.573.2-.167-.467-.206-1.568-.247-2.734-.083-2.325-.176-4.96-1.237-6.077-.659-.694-2.037-.747-3.496-.804-1.24-.048-2.784-.107-3.065-.662-.098-.192-.142-.693.654-1.872.149-.213 3.668-5.236 4.754-7.41.414-.829.138-1.966-.211-3.405-.72-2.967-1.808-7.45 2.395-12.663 3.766-4.671 7.992-6.665 14.131-6.665 2.197 0 4.492.242 6.646.503 10.28 1.248 12.97 11.965 13.127 14.766.541 9.75.083 10.693-1.847 14.666z"></path><path d="M30.679 22.078a.501.501 0 0 0-.707-.013l-7.084 6.833-.005.008c-.002.002-.005.002-.007.005-.022.023-.033.052-.049.077-.018.028-.041.053-.053.083-.013.031-.014.063-.021.095-.006.031-.016.061-.016.092s.01.061.016.092c.006.032.008.064.021.095.012.03.035.055.053.082.017.026.027.055.049.078l.007.005.005.008 7.084 6.833a.497.497 0 0 0 .707-.012.498.498 0 0 0-.013-.706l-6.711-6.474 6.711-6.473a.5.5 0 0 0 .013-.708zM46.627 29.164c-.006-.031-.008-.063-.02-.093-.013-.03-.035-.056-.054-.083-.017-.025-.027-.054-.049-.076l-.008-.005-.005-.007-7.084-6.833a.5.5 0 0 0-.693.72l6.711 6.473-6.711 6.474a.498.498 0 1 0 .693.718l7.084-6.833.004-.006c.003-.003.007-.003.01-.006.025-.026.039-.06.057-.09.015-.023.034-.044.045-.069.013-.033.016-.068.021-.103.005-.029.015-.057.015-.085.001-.034-.009-.065-.016-.096zM37.897 20.17a.506.506 0 0 0-.638.305l-6.082 17.233a.5.5 0 1 0 .944.332l6.082-17.232a.5.5 0 0 0-.306-.638z"></path></g><defs data-v-fde0c5aa=""><!----></defs><g data-v-fde0c5aa="" id="fab79b4f-b890-4863-9abd-45e5ccd6b297" fill="#000000" transform="matrix(0.755228579044342,0,0,0.755228579044342,52.160147157636274,204.44691117243673)"><path d="M1.75 4.65C1.75 4.03 2.11 3.08 4.21 3.08C5.91 3.08 6.69 3.82 6.80 4.75L7.88 4.75C7.80 3.36 6.68 2.10 4.21 2.10C1.89 2.10 0.73 3.15 0.73 4.66C0.73 7.84 7.07 6.69 7.07 8.96C7.07 10.05 6.09 10.60 4.52 10.60C2.91 10.60 1.61 10.05 1.54 8.71L0.45 8.71C0.59 10.37 1.71 11.59 4.45 11.59C6.73 11.59 8.12 10.64 8.12 8.92C8.12 5.68 1.75 6.80 1.75 4.65ZM20.86 2.10C18.05 2.10 16.16 4.21 16.16 6.85C16.16 9.48 18.05 11.59 20.86 11.59C23.67 11.59 25.56 9.48 25.56 6.85C25.56 4.21 23.67 2.10 20.86 2.10ZM20.86 10.57C18.61 10.57 17.21 8.93 17.21 6.85C17.21 4.76 18.61 3.12 20.86 3.12C23.11 3.12 24.51 4.76 24.51 6.85C24.51 8.93 23.11 10.57 20.86 10.57ZM40.94 3.22L40.94 2.21L34.24 2.21L34.24 11.48L35.29 11.48L35.29 7.46L40.32 7.46L40.32 6.44L35.29 6.44L35.29 3.22ZM55.99 2.21L48.47 2.21L48.47 3.22L51.70 3.22L51.70 11.48L52.75 11.48L52.75 3.22L55.99 3.22ZM69.89 3.70L72.39 11.48L73.58 11.48L76.47 2.21L75.36 2.21L72.98 10.00L70.49 2.21L69.29 2.21L66.79 10.00L64.41 2.21L63.31 2.21L66.19 11.48L67.38 11.48ZM88.42 2.21L87.11 2.21L83.17 11.48L84.34 11.48L85.47 8.79L90.06 8.79L91.20 11.48L92.36 11.48ZM85.88 7.83L87.77 3.30L89.66 7.83ZM101.58 7.92L104.80 7.92L107.04 11.48L108.29 11.48L105.85 7.74C106.89 7.50 108.09 6.90 108.09 5.11C108.09 3.35 106.88 2.21 104.97 2.21L100.53 2.21L100.53 11.48L101.58 11.48ZM101.58 3.21L104.85 3.21C106.16 3.21 107.04 3.93 107.04 5.11C107.04 6.55 105.78 6.93 104.79 6.93L101.58 6.93ZM123.72 3.22L123.72 2.21L116.90 2.21L116.90 11.48L123.72 11.48L123.72 10.47L117.95 10.47L117.95 7.35L123.10 7.35L123.10 6.33L117.95 6.33L117.95 3.22ZM149.21 3.22L149.21 2.21L142.39 2.21L142.39 11.48L149.21 11.48L149.21 10.47L143.44 10.47L143.44 7.35L148.60 7.35L148.60 6.33L143.44 6.33L143.44 3.22ZM164.85 2.21L164.85 10.01L159.12 2.21L157.91 2.21L157.91 11.48L158.96 11.48L158.96 3.65L164.68 11.48L165.90 11.48L165.90 2.21ZM179.14 2.10C176.36 2.10 174.58 4.21 174.58 6.85C174.58 9.48 176.29 11.59 179.12 11.59C180.80 11.59 181.89 10.74 182.48 9.84L182.48 11.48L183.44 11.48L183.44 6.55L179.09 6.55L179.09 7.50L182.48 7.50C182.48 9.44 180.88 10.57 179.20 10.57C176.95 10.57 175.63 8.93 175.63 6.85C175.63 4.76 176.97 3.12 179.23 3.12C180.64 3.12 181.65 3.74 182.21 4.73L183.36 4.73C182.67 3.18 181.13 2.10 179.14 2.10ZM193.34 2.21L192.29 2.21L192.29 11.48L193.34 11.48ZM209.55 2.21L209.55 10.01L203.83 2.21L202.61 2.21L202.61 11.48L203.66 11.48L203.66 3.65L209.38 11.48L210.60 11.48L210.60 2.21ZM226.69 3.22L226.69 2.21L219.87 2.21L219.87 11.48L226.69 11.48L226.69 10.47L220.92 10.47L220.92 7.35L226.07 7.35L226.07 6.33L220.92 6.33L220.92 3.22ZM242.20 3.22L242.20 2.21L235.38 2.21L235.38 11.48L242.20 11.48L242.20 10.47L236.43 10.47L236.43 7.35L241.58 7.35L241.58 6.33L236.43 6.33L236.43 3.22ZM251.94 7.92L255.16 7.92L257.40 11.48L258.65 11.48L256.21 7.74C257.25 7.50 258.45 6.90 258.45 5.11C258.45 3.35 257.24 2.21 255.33 2.21L250.89 2.21L250.89 11.48L251.94 11.48ZM251.94 3.21L255.21 3.21C256.52 3.21 257.40 3.93 257.40 5.11C257.40 6.55 256.14 6.93 255.15 6.93L251.94 6.93Z"></path></g></svg>