<svg data-v-423bf9ae="" xmlns="http://www.w3.org/2000/svg" viewBox="0 0 426 101" class="iconLeftSlogan"><!----><!----><!----><g data-v-423bf9ae="" id="113323c1-1bd2-4585-bbf7-5b86f2032654" fill="white" transform="matrix(3.512880563735962,0,0,3.512880563735962,56.906002044677734,1.1970064406341407e-7)"><path d="M7.61 12.88L8.84 12.88L5.04 2.38L3.80 2.38L0 12.88L1.23 12.88L2.08 10.43L6.76 10.43ZM2.45 9.36L4.43 3.71L6.39 9.36ZM12.90 5.74C12.25 5.74 11.66 6.00 11.20 6.44L11.20 5.88L10.12 5.88L10.12 12.88L11.20 12.88L11.20 8.42C11.20 7.53 11.92 6.83 12.81 6.83C13.70 6.83 14.40 7.53 14.40 8.42L14.40 12.88L15.49 12.88L15.49 8.42C15.49 6.93 14.25 5.74 12.90 5.74ZM23.66 0L23.66 6.79C23.00 6.14 22.10 5.74 21.11 5.74C19.09 5.74 17.47 7.37 17.47 9.38C17.47 11.39 19.09 13.02 21.11 13.02C22.10 13.02 23.00 12.62 23.66 11.97L23.66 12.88L24.75 12.88L24.75 0ZM21.11 11.94C19.69 11.94 18.55 10.80 18.55 9.38C18.55 7.96 19.69 6.83 21.11 6.83C22.51 6.83 23.66 7.96 23.66 9.38C23.66 10.80 22.51 11.94 21.11 11.94ZM30.71 5.74C29.71 5.74 28.91 6.18 28.39 6.88L28.39 5.88L27.30 5.88L27.30 12.88L28.39 12.88L28.39 9.08C28.39 7.81 29.44 6.83 30.71 6.83C30.92 6.83 31.10 6.84 31.26 6.90L31.26 5.79C31.10 5.76 30.92 5.74 30.71 5.74ZM39.41 9.31C39.36 7.30 37.77 5.74 35.77 5.74C33.76 5.74 32.13 7.37 32.13 9.38C32.13 11.39 33.76 13.02 35.77 13.02C37.43 13.02 38.82 11.92 39.27 10.41L38.12 10.41C37.73 11.32 36.82 11.94 35.77 11.94C34.39 11.94 33.29 10.89 33.22 9.54L39.39 9.54ZM35.77 6.83C36.89 6.83 37.84 7.54 38.17 8.56L33.36 8.56C33.70 7.54 34.65 6.83 35.77 6.83ZM50.03 5.88L48.18 11.62L46.27 5.88L45.24 5.88L43.33 11.59L41.51 5.88L40.28 5.88L42.70 12.88L43.89 12.88L45.76 7.39L47.62 12.88L48.81 12.88L51.20 5.88ZM62.67 2.38L55.74 2.38L55.74 3.50L58.64 3.50L58.64 12.88L59.76 12.88L59.76 3.50L62.67 3.50ZM71.61 11.97C71.23 11.97 70.89 11.71 70.89 11.06L70.89 5.88L69.81 5.88L69.81 6.79C69.16 6.14 68.25 5.74 67.25 5.74C65.24 5.74 63.61 7.37 63.61 9.38C63.61 11.39 65.24 13.02 67.25 13.02C68.30 13.02 69.25 12.53 69.91 11.81C70.14 12.53 70.70 13.02 71.52 13.02C71.72 13.02 71.91 12.97 72.05 12.88L72.05 11.97ZM67.25 11.94C65.84 11.94 64.70 10.80 64.70 9.38C64.70 7.96 65.84 6.83 67.25 6.83C68.65 6.83 69.81 7.96 69.81 9.38C69.81 10.80 68.65 11.94 67.25 11.94ZM77.18 5.74C76.18 5.74 75.29 6.14 74.62 6.79L74.62 5.88L73.54 5.88L73.54 17.08L74.62 17.08L74.62 11.97C75.29 12.62 76.18 13.02 77.18 13.02C79.19 13.02 80.82 11.39 80.82 9.38C80.82 7.37 79.19 5.74 77.18 5.74ZM77.18 11.94C75.76 11.94 74.62 10.80 74.62 9.38C74.62 7.96 75.76 6.83 77.18 6.83C78.59 6.83 79.73 7.96 79.73 9.38C79.73 10.80 78.59 11.94 77.18 11.94ZM86.52 5.74C85.52 5.74 84.63 6.14 83.97 6.79L83.97 5.88L82.88 5.88L82.88 17.08L83.97 17.08L83.97 11.97C84.63 12.62 85.52 13.02 86.52 13.02C88.53 13.02 90.16 11.39 90.16 9.38C90.16 7.37 88.53 5.74 86.52 5.74ZM86.52 11.94C85.10 11.94 83.97 10.80 83.97 9.38C83.97 7.96 85.10 6.83 86.52 6.83C87.94 6.83 89.08 7.96 89.08 9.38C89.08 10.80 87.94 11.94 86.52 11.94ZM99.02 9.31C98.96 7.30 97.37 5.74 95.38 5.74C93.36 5.74 91.73 7.37 91.73 9.38C91.73 11.39 93.36 13.02 95.38 13.02C97.04 13.02 98.42 11.92 98.88 10.41L97.72 10.41C97.34 11.32 96.43 11.94 95.38 11.94C93.99 11.94 92.89 10.89 92.82 9.54L99.00 9.54ZM95.38 6.83C96.50 6.83 97.44 7.54 97.77 8.56L92.96 8.56C93.31 7.54 94.26 6.83 95.38 6.83ZM104.42 5.74C103.42 5.74 102.62 6.18 102.09 6.88L102.09 5.88L101.01 5.88L101.01 12.88L102.09 12.88L102.09 9.08C102.09 7.81 103.14 6.83 104.42 6.83C104.63 6.83 104.81 6.84 104.97 6.90L104.97 5.79C104.81 5.76 104.63 5.74 104.42 5.74Z"></path></g><!----><g data-v-423bf9ae="" id="3ba3f7f0-180e-4825-8901-4cde59cf81dd" transform="matrix(1.0548014640808105,0,0,1.0548014640808105,0.5381948351860046,0.9330028891563416)" stroke="none" fill="white"><path d="M15.29 36.5a.42.42 0 0 0 .28.11l.71-.05a.421.421 0 1 0-.06-.84h-.54l-.22-.19a.421.421 0 1 0-.56.63z"></path><path d="M32.74 17.03a2.24 2.24 0 0 0-1.36-.77c-1.31-1.17-6.72-2.45-7.84-2.71l-1.23-1.45-.16-.41.33-.49.39-.57a5.15 5.15 0 0 0 1.15-2.71 11.71 11.71 0 0 0-.64-4.26A4.76 4.76 0 0 0 18.85.01c-3.75-.17-7.08 1.12-8.13 2.49a1.27 1.27 0 0 0-.31 1.18c.3 1 .49 1.5.55 1.66.09.8.29 2.3.51 3.31.4 1.9 2.24 5.64 5.42 5.8l-.92 1a.43.43 0 0 0-.1.2v.2l-3.51 2.8a6.23 6.23 0 0 0-1.07 3.32 36.54 36.54 0 0 1-.69 3.92 39 39 0 0 0-.69 3.85 12.36 12.36 0 0 1-.34 2.31.42.42 0 0 0 0 .14 1 1 0 0 0-.15.12h-.77l-1.36-5a.42.42 0 0 0-.23-.27l-6.31-3a.42.42 0 0 0-.51.63.41.41 0 0 0 0 .21l2.71 10a.42.42 0 0 0 .36.31 2.1 2.1 0 0 0 1.26 1.79 1 1 0 0 1 .45.26 2.05 2.05 0 0 0 1.08.54l1.09.29h.11a.42.42 0 0 0 .34-.17l2 1.19.35.18a.42.42 0 0 0 .19 0l2.73-.23a2.59 2.59 0 0 0 .86 2v1.22c-.19 1.48-.5 3.75-.55 4s.09 3.53.17 4.89l-.29 6.74c0 6.14.38 11 .67 14.49.27 3.27.47 5.63.17 7.07a10.4 10.4 0 0 0-.37 3.18 13 13 0 0 1 0 1.43 1.19 1.19 0 0 0 .35 1 5 5 0 0 1-1.75 1.44 8.56 8.56 0 0 1-1.45.57c-.83.27-1.62.52-1.86 1.27a1.18 1.18 0 0 0 .11 1.07c.37.54 1.22.82 2.84.94h.4a11.15 11.15 0 0 0 3.29-.67 15.78 15.78 0 0 1 2.7-.66c2.23-.28 2.6-.8 2.62-1.93v-1.77h.06a1.56 1.56 0 0 0 .48-1.22c0-.82.29-7 .57-13.75.25 1.35.53 2.74.78 4 .49 2.47 1 4.81.94 5.33 0 1.38 1.15 7.92 1.2 8.2s.25.88-1.27 2.72c-.86 1-1.15 1.91-.88 2.65s1.11 1.26 2.54 1.53a8.47 8.47 0 0 0 1.52.14 4.77 4.77 0 0 0 3.19-1 3.75 3.75 0 0 0 1.09-3.23l.18-2.69h.11a.8.8 0 0 0 .38-.51l.41-1.82a2.8 2.8 0 0 0 .05-.92l-.64-6 .15-18.25V42.65a.42.42 0 0 0 0-.18 4 4 0 0 0 1.65-1c.09-.14.36-.56-.53-4.76a5 5 0 0 0 1.49-.84 2.18 2.18 0 0 0 .81-1.54c-.04-.14.69-13.9-2.36-17.3zM19.57 29.5v1.63l-2.28-.41v-1.49zm-1.52-1.8a.47.47 0 0 1-.12-.24.52.52 0 0 1 0-.24l.41-.07a1.33 1.33 0 0 1 .06.47.71.71 0 0 1-.39.12zm.18-2l-.5-1.37a24.35 24.35 0 0 1-.7-6 5.94 5.94 0 0 1 .69 1.11c0 .37.08.79.11 1.13a.42.42 0 0 0 0 .21v.46l.84-.07v-.48l1.17-2.37.29.16a16.77 16.77 0 0 0-1 3.22c-.29 1.19-.7 3-.94 3.99zm3.1-13.66a.42.42 0 0 0 .12.09l.06.15-3 4.75-.06.11a13 13 0 0 0-.88-2.64.42.42 0 0 0-.1-.14 6.21 6.21 0 0 0 3.82-2.34zm-2.79 6.6l.44-.8.1.06-.55 1.11c-.03-.12-.03-.24-.03-.39zm.88-1.53l2.61-4.07.79.95a31.73 31.73 0 0 0-1.68 4.08zM11.42 3c.78-1 3.8-2.29 7.42-2.13a3.94 3.94 0 0 1 3.73 3.07 10.82 10.82 0 0 1 .6 3.89 4.31 4.31 0 0 1-1 2.32l-.4.58-.32-.81a3.17 3.17 0 0 0 1.39-2.29 1.76 1.76 0 0 0-.76-1.68 1.3 1.3 0 0 0-1.19-.19 2 2 0 0 0-1 1 2.1 2.1 0 0 1-1-1.7 1.62 1.62 0 0 0-.7-1.32 4.49 4.49 0 0 0-3.46-.24c-.81.26-2.37.84-3.1 1.12-.09-.26-.23-.66-.4-1.25a.54.54 0 0 1 .16-.38zm.91 5.45c-.19-.87-.37-2.14-.46-3 .68-.25 2.33-.87 3.15-1.14a3.78 3.78 0 0 1 2.74.07.77.77 0 0 1 .34.66 3 3 0 0 0 1.88 2.66.42.42 0 0 0 .55-.26c.08-.24.35-.78.67-.9a.48.48 0 0 1 .44.1.93.93 0 0 1 .38.9 2.28 2.28 0 0 1-1.25 1.78l-.09.06a.42.42 0 0 0-.09.13.42.42 0 0 0 0 .12.43.43 0 0 0 0 .06.41.41 0 0 0 0 .09l.44 1.29a.42.42 0 0 0-.14.11 5.48 5.48 0 0 1-3.46 2.3c-3.01.32-4.77-3.34-5.13-5.04zm4.34 7.45l.38-.41a11.36 11.36 0 0 1 .52 2.25 1.65 1.65 0 0 0-1-.66 7.68 7.68 0 0 1 .1-1.18zm-1 1.53l.14 1.41a.42.42 0 0 0 .29.36 21.33 21.33 0 0 0 .73 5.39l.5 1.37a.41.41 0 0 0-.05.19v.45a1.44 1.44 0 0 0-.26.95 1.35 1.35 0 0 0 .43.83l-.6-.08a.42.42 0 0 0-.48.42v2.37a.42.42 0 0 0 .35.42l3.12.56h.08a.42.42 0 0 0 .42-.42v-2.48a.42.42 0 0 0-.37-.42l-1.5-.2a1 1 0 0 0 .43-.2.85.85 0 0 0 .31-.68 1.69 1.69 0 0 0-.25-1v-.4-.06c.22-.9.7-3 1-4.33a16 16 0 0 1 .92-3l.31.17a.42.42 0 0 0 .2.05h.15a.42.42 0 0 0 .25-.26 36.75 36.75 0 0 1 1.77-4.38 36.38 36.38 0 0 1 6.81 2.15c-.81.47-2 1.58-2.36 4.16a54.83 54.83 0 0 0 0 9.46l-7.56 1.93-2.61.34a8.35 8.35 0 0 1-1.93-.33 10.57 10.57 0 0 0-2.46-.67h-.11c-.1-1.11-.21-2.36-.35-3.78a37.13 37.13 0 0 1 0-8.57l2.72-2.17a2.81 2.81 0 0 0 0 .45zm-2.88 14.86l.59.09a9.83 9.83 0 0 1 2.24.58 6.89 6.89 0 0 0 1.47.31 1.49 1.49 0 0 0-.24.81c0 .16 0 .47.08.79a3.83 3.83 0 0 1-1.43-.37 2.41 2.41 0 0 0-1.79-.24 1.58 1.58 0 0 0-1.1.72.61.61 0 0 1-.22.25.42.42 0 0 0 0-.1 1.14 1.14 0 0 1 .44-.59.425.425 0 0 0-.36-.77 1.9 1.9 0 0 0-.9 1.1 1.54 1.54 0 0 1-.68.07l.24-.31a3.36 3.36 0 0 1 1-.79.423.423 0 0 0-.37-.76 4.15 4.15 0 0 0-1.34 1l-.1.14a2.61 2.61 0 0 1 .18-.42 1 1 0 0 1 .66-.51.423.423 0 0 0-.16-.83 2 2 0 0 0-.93.51.29.29 0 0 1-.16-.06.22.22 0 0 1 0-.1 3 3 0 0 1 .36-.15 3.85 3.85 0 0 0 1-.47c.3-.12.96 0 1.52.1zM20 35.41l.23.68-2.37-.49c-.05-.45-.15-1.29-.17-1.59a1.77 1.77 0 0 1 .39-.7l1.82-.28a5.18 5.18 0 0 0 .1 2.38zm-8.68.46zm-1.75-.16a.42.42 0 0 0 .26.09h.42a2.38 2.38 0 0 0 .54.11.41.41 0 0 0-.11.09.42.42 0 0 0 .07.59l.4.31a.42.42 0 0 0 .26.09l.71-.05a.42.42 0 0 0 .45-.44.41.41 0 0 0-.17-.3 1.26 1.26 0 0 0 .32-.11.42.42 0 0 0 .14.33l.35.31a.42.42 0 0 0 .28.11l.71-.05a.421.421 0 1 0-.06-.84h-.54l-.22-.19a.41.41 0 0 0-.23-.1 1.84 1.84 0 0 0 .14-.22.83.83 0 0 1 .54-.29 1.67 1.67 0 0 1 1.1.09 4.62 4.62 0 0 0 2 .52v.27a.42.42 0 0 0 .33.37l1.52.31-8.57.77a.42.42 0 0 0-.18.06h-.22l-.54-2zm1-5.87c.1-1 .39-2.41.67-3.75.22-1 .44-2.09.58-3 0 1.29.07 2.87.25 4.75.13 1.33.24 2.51.33 3.56a2.41 2.41 0 0 0-1.78.23 2 2 0 0 1-.32.18c.18-.48.27-1.15.35-1.97zm-1.59 3.33a1 1 0 0 0 .19.39 1 1 0 0 0 .35.26 1.19 1.19 0 0 0-.11.82.41.41 0 0 0-.32.12l-.44-1.61zm-5.46 1l-.11.06-2.44-9 5.33 2.54 2.77 10.11-2-1.17a2.29 2.29 0 0 1-.29-.76 1.53 1.53 0 0 0-.38-1.19.72.72 0 0 0-.57-.17 1.76 1.76 0 0 0-.68.27c-.3-.51-.72-1.08-1.1-1.08a.43.43 0 0 0-.18 0 .8.8 0 0 0-.3.38zm.77.34zm1.91 2.45a1.28 1.28 0 0 1-.7-.33 1.8 1.8 0 0 0-.75-.45 1.26 1.26 0 0 1-.82-1.06h.1a.42.42 0 0 0 .22-.15 9.19 9.19 0 0 1 .48.81v.08l.11.24a.42.42 0 0 0 .8-.18.42.42 0 0 0 0-.18l-.07-.14a1.15 1.15 0 0 1 .31-.17 1.45 1.45 0 0 1 .07.5A2.72 2.72 0 0 0 6.3 37zm3.91 1.48v-.09l9.46-.85a1 1 0 0 1-.21.25l-9.09.75zm4.79 3.28a2.39 2.39 0 0 1 .45.2 2.83 2.83 0 0 0 1.26.3 4.59 4.59 0 0 0 0 .8 6.77 6.77 0 0 1-2-.89v-.53zm5 .61v1a.31.31 0 0 1-.11.22h-.4c-.68 0-1.71 0-1.85-.17a2.24 2.24 0 0 1 .03-1.11c.61.03 1.41.05 2.41.06zm0 44.78c0 .6 0 .87-1.88 1.1a16.45 16.45 0 0 0-2.84.69 9.4 9.4 0 0 1-3.31.6c-1.66-.12-2.09-.41-2.2-.57s-.08-.12 0-.34.57-.48 1.32-.73a9.25 9.25 0 0 0 1.58-.61 5.65 5.65 0 0 0 2.09-1.85 9.24 9.24 0 0 0 2.62 0 6.5 6.5 0 0 1 1.69.1 6.76 6.76 0 0 0 1 .12zm.58-3a.89.89 0 0 1-.18.6c-.19.16-.75.07-1.28 0a7.22 7.22 0 0 0-1.82-.21c-.94.1-2.37.25-2.74-.1a.36.36 0 0 1-.09-.31 13.87 13.87 0 0 0 0-1.51 9.8 9.8 0 0 1 .42-2.91c.33-1.56.14-3.85-.15-7.31s-.69-8.31-.67-14.4l.29-6.74c-.1-1.77-.23-4.39-.19-4.69s.34-2.34.48-3.44a7.92 7.92 0 0 0 2.47.9 2.38 2.38 0 0 0 1.67.41c.15 1.28.31 3.75.31 5.42a12.93 12.93 0 0 0 1.07 5.12c.36.71.78 6.11 1 9.34a19.79 19.79 0 0 0 .2 2.08c-.31 8.05-.7 16.73-.7 17.71zm8.89 9.29c-1.22 1.09-3.36.79-4 .67-1.08-.2-1.74-.54-1.9-1s.1-1 .74-1.82a5.09 5.09 0 0 0 1.47-3.11 8.49 8.49 0 0 1 4.66-.11l-.18 2.72a.48.48 0 0 0 0 .06 3 3 0 0 1-.72 2.55zm1.98-7.9l-.4 1.77a9.47 9.47 0 0 0-5.31 0c-.43-2.43-1.12-6.57-1.09-7.54a48.9 48.9 0 0 0-1-5.52 87.15 87.15 0 0 1-1.64-10c-.08-1.43-.49-8.61-1-9.69a12.1 12.1 0 0 1-1-4.74c0-1.67-.16-4.11-.31-5.44h2.63a41 41 0 0 0 8.61-.69V60.5l-.09 18.35.64 6a2 2 0 0 1-.04.65zm-.52-42.7c-2 .63-6.89.77-10 .71a1.06 1.06 0 0 0 0-.23v-.95h2c1.22.05 2.78 0 3.81-.1h.93a11.52 11.52 0 0 1 2.41.48 1.28 1.28 0 0 0 .38 0 2.89 2.89 0 0 0 .53-.06zm1.74-1.77a4.38 4.38 0 0 1-2.39.87 12.25 12.25 0 0 0-2.66-.52h-1c-1 .06-2.55.15-3.73.1h-2.14a.41.41 0 0 0-.23-.08h-3.26a4.46 4.46 0 0 1-1.24-.17 2.81 2.81 0 0 0-.64-.31 1.84 1.84 0 0 1-1.48-1.89l5.77-.47a.42.42 0 0 0 .2-.07 1.44 1.44 0 0 0 .66-1.5l.33.07a5.05 5.05 0 0 0 2.09.69h1.75a29.31 29.31 0 0 0 7.39-.8 23.45 23.45 0 0 1 .58 4.08zm1.64-6.74a1.35 1.35 0 0 1-.52.95 4.61 4.61 0 0 1-1.5.79c-3 1-8.21.93-9.26.85a4.2 4.2 0 0 1-1.65-.53l-.42-1.23a4.57 4.57 0 0 1 0-2.26l7.68-2a.42.42 0 0 0 .32-.44 57.63 57.63 0 0 1 0-9.63c.42-3 2.11-3.67 2.42-3.76a1.4 1.4 0 0 1 .9.52c2.26 2.64 2.23 13.23 2.03 16.74z"></path></g><!----><g data-v-423bf9ae="" id="32fae6e7-1cae-4155-aecf-883f610fff5f" fill="white" transform="matrix(1.1463788747787476,0,0,1.1463788747787476,56.18379211425781,55.82718276977539)"><path d="M4.31 3.64L4.31 3.64Q6.92 3.64 7.80 5.68L7.80 5.68L7.20 6.17L7.20 6.17Q6.85 5.18 6.15 4.73L6.15 4.73L6.15 4.73Q5.46 4.28 4.33 4.28L4.33 4.28L4.33 4.28Q3.51 4.28 2.91 4.54L2.91 4.54L2.91 4.54Q2.31 4.79 2.00 5.22L2.00 5.22L2.00 5.22Q1.68 5.66 1.68 6.20L1.68 6.20L1.68 6.20Q1.68 6.73 1.95 7.08L1.95 7.08L1.95 7.08Q2.21 7.43 2.85 7.68L2.85 7.68L2.85 7.68Q3.49 7.92 4.61 8.12L4.61 8.12L4.61 8.12Q6.41 8.43 7.17 9.02L7.17 9.02L7.17 9.02Q7.92 9.60 7.92 10.64L7.92 10.64L7.92 10.64Q7.92 11.38 7.49 11.96L7.49 11.96L7.49 11.96Q7.06 12.53 6.27 12.84L6.27 12.84L6.27 12.84Q5.47 13.16 4.45 13.16L4.45 13.16L4.45 13.16Q3.00 13.16 2.00 12.58L2.00 12.58L2.00 12.58Q0.99 12.00 0.63 10.95L0.63 10.95L1.25 10.47L1.25 10.47Q1.53 11.47 2.37 11.99L2.37 11.99L2.37 11.99Q3.22 12.52 4.47 12.52L4.47 12.52L4.47 12.52Q5.67 12.52 6.43 12.03L6.43 12.03L6.43 12.03Q7.20 11.54 7.20 10.68L7.20 10.68L7.20 10.68Q7.20 9.94 6.57 9.51L6.57 9.51L6.57 9.51Q5.95 9.07 4.41 8.81L4.41 8.81L4.41 8.81Q3.11 8.58 2.35 8.26L2.35 8.26L2.35 8.26Q1.60 7.94 1.27 7.46L1.27 7.46L1.27 7.46Q0.94 6.99 0.94 6.27L0.94 6.27L0.94 6.27Q0.94 5.56 1.35 4.96L1.35 4.96L1.35 4.96Q1.76 4.35 2.53 4.00L2.53 4.00L2.53 4.00Q3.29 3.64 4.31 3.64L4.31 3.64ZM20.79 3.64L20.79 3.64Q22.09 3.64 23.05 4.22L23.05 4.22L23.05 4.22Q24.01 4.80 24.53 5.87L24.53 5.87L24.53 5.87Q25.05 6.94 25.05 8.40L25.05 8.40L25.05 8.40Q25.05 9.86 24.53 10.93L24.53 10.93L24.53 10.93Q24.01 12.00 23.05 12.58L23.05 12.58L23.05 12.58Q22.09 13.16 20.79 13.16L20.79 13.16L20.79 13.16Q19.49 13.16 18.53 12.58L18.53 12.58L18.53 12.58Q17.57 12.00 17.05 10.93L17.05 10.93L17.05 10.93Q16.53 9.86 16.53 8.40L16.53 8.40L16.53 8.40Q16.53 6.94 17.05 5.87L17.05 5.87L17.05 5.87Q17.57 4.80 18.53 4.22L18.53 4.22L18.53 4.22Q19.49 3.64 20.79 3.64L20.79 3.64ZM20.79 4.28L20.79 4.28Q19.71 4.28 18.92 4.78L18.92 4.78L18.92 4.78Q18.13 5.28 17.70 6.21L17.70 6.21L17.70 6.21Q17.28 7.14 17.28 8.40L17.28 8.40L17.28 8.40Q17.28 9.66 17.70 10.59L17.70 10.59L17.70 10.59Q18.13 11.52 18.92 12.02L18.92 12.02L18.92 12.02Q19.71 12.52 20.79 12.52L20.79 12.52L20.79 12.52Q21.87 12.52 22.67 12.02L22.67 12.02L22.67 12.02Q23.46 11.52 23.89 10.59L23.89 10.59L23.89 10.59Q24.32 9.66 24.32 8.40L24.32 8.40L24.32 8.40Q24.32 7.14 23.89 6.21L23.89 6.21L23.89 6.21Q23.46 5.28 22.67 4.78L22.67 4.78L22.67 4.78Q21.87 4.28 20.79 4.28L20.79 4.28ZM40.67 4.42L35.07 4.42L35.07 7.99L39.51 7.99L39.51 8.65L35.07 8.65L35.07 13.02L34.37 13.02L34.37 3.78L40.67 3.78L40.67 4.42ZM55.85 3.78L55.85 4.42L52.47 4.42L52.47 13.02L51.77 13.02L51.77 4.42L48.40 4.42L48.40 3.78L55.85 3.78ZM69.19 6.54L67.33 13.02L66.46 13.02L63.57 3.78L64.33 3.78L66.89 12.45L69.31 3.78L70.13 3.78L72.55 12.46L75.14 3.78L75.85 3.78L72.97 13.02L72.10 13.02L70.24 6.54L69.72 4.54L69.71 4.54L69.19 6.54ZM90.48 13.02L89.32 10.12L84.90 10.12L83.75 13.02L83.01 13.02L86.70 3.78L87.53 3.78L91.22 13.02L90.48 13.02ZM85.16 9.48L89.07 9.48L87.46 5.45L87.12 4.47L87.11 4.47L86.77 5.42L85.16 9.48ZM106.89 13.02L106.06 13.02L103.42 9.02L103.38 9.02L100.65 9.02L100.65 13.02L99.95 13.02L99.95 3.78L103.38 3.78L103.38 3.78Q104.76 3.78 105.58 4.48L105.58 4.48L105.58 4.48Q106.40 5.18 106.40 6.40L106.40 6.40L106.40 6.40Q106.40 7.41 105.81 8.07L105.81 8.07L105.81 8.07Q105.22 8.74 104.20 8.93L104.20 8.93L106.89 13.02ZM100.65 4.42L100.65 8.36L103.36 8.36L103.36 8.36Q104.48 8.36 105.08 7.85L105.08 7.85L105.08 7.85Q105.67 7.35 105.67 6.40L105.67 6.40L105.67 6.40Q105.67 5.45 105.08 4.93L105.08 4.93L105.08 4.93Q104.48 4.42 103.36 4.42L103.36 4.42L100.65 4.42ZM116.61 12.38L122.44 12.38L122.44 13.02L115.91 13.02L115.91 3.78L122.22 3.78L122.22 4.42L116.61 4.42L116.61 7.99L121.04 7.99L121.04 8.65L116.61 8.65L116.61 12.38ZM143.56 12.38L149.39 12.38L149.39 13.02L142.86 13.02L142.86 3.78L149.17 3.78L149.17 4.42L143.56 4.42L143.56 7.99L147.99 7.99L147.99 8.65L143.56 8.65L143.56 12.38ZM165.52 3.78L165.52 13.02L164.65 13.02L159.75 5.77L159.07 4.54L159.05 4.54L159.10 5.70L159.10 13.02L158.42 13.02L158.42 3.78L159.31 3.78L164.19 11.02L164.89 12.26L164.86 11.10L164.86 3.78L165.52 3.78ZM178.99 8.50L182.78 8.50L182.78 13.02L182.22 13.02L182.20 11.41L182.20 11.41Q181.82 12.25 181.01 12.71L181.01 12.71L181.01 12.71Q180.21 13.16 179.02 13.16L179.02 13.16L179.02 13.16Q177.76 13.16 176.81 12.58L176.81 12.58L176.81 12.58Q175.87 12.00 175.36 10.92L175.36 10.92L175.36 10.92Q174.85 9.84 174.85 8.40L174.85 8.40L174.85 8.40Q174.85 6.96 175.37 5.88L175.37 5.88L175.37 5.88Q175.90 4.80 176.85 4.22L176.85 4.22L176.85 4.22Q177.80 3.64 179.06 3.64L179.06 3.64L179.06 3.64Q180.47 3.64 181.37 4.20L181.37 4.20L181.37 4.20Q182.27 4.76 182.71 5.91L182.71 5.91L182.07 6.24L182.07 6.24Q181.75 5.28 180.99 4.78L180.99 4.78L180.99 4.78Q180.22 4.28 179.06 4.28L179.06 4.28L179.06 4.28Q178.02 4.28 177.24 4.78L177.24 4.78L177.24 4.78Q176.46 5.28 176.02 6.21L176.02 6.21L176.02 6.21Q175.59 7.14 175.59 8.40L175.59 8.40L175.59 8.40Q175.59 10.32 176.51 11.42L176.51 11.42L176.51 11.42Q177.42 12.52 179.05 12.52L179.05 12.52L179.05 12.52Q180.05 12.52 180.75 12.12L180.75 12.12L180.75 12.12Q181.45 11.72 181.79 11.07L181.79 11.07L181.79 11.07Q182.13 10.42 182.13 9.67L182.13 9.67L182.13 9.16L178.99 9.16L178.99 8.50ZM192.96 3.78L192.96 13.02L192.26 13.02L192.26 3.78L192.96 3.78ZM209.97 3.78L209.97 13.02L209.10 13.02L204.20 5.77L203.52 4.54L203.50 4.54L203.55 5.70L203.55 13.02L202.87 13.02L202.87 3.78L203.76 3.78L208.64 11.02L209.34 12.26L209.31 11.10L209.31 3.78L209.97 3.78ZM220.58 12.38L226.42 12.38L226.42 13.02L219.88 13.02L219.88 3.78L226.20 3.78L226.20 4.42L220.58 4.42L220.58 7.99L225.02 7.99L225.02 8.65L220.58 8.65L220.58 12.38ZM236.15 12.38L241.99 12.38L241.99 13.02L235.45 13.02L235.45 3.78L241.77 3.78L241.77 4.42L236.15 4.42L236.15 7.99L240.59 7.99L240.59 8.65L236.15 8.65L236.15 12.38ZM257.96 13.02L257.14 13.02L254.49 9.02L254.45 9.02L251.72 9.02L251.72 13.02L251.02 13.02L251.02 3.78L254.45 3.78L254.45 3.78Q255.84 3.78 256.66 4.48L256.66 4.48L256.66 4.48Q257.47 5.18 257.47 6.40L257.47 6.40L257.47 6.40Q257.47 7.41 256.89 8.07L256.89 8.07L256.89 8.07Q256.30 8.74 255.28 8.93L255.28 8.93L257.96 13.02ZM251.72 4.42L251.72 8.36L254.44 8.36L254.44 8.36Q255.56 8.36 256.15 7.85L256.15 7.85L256.15 7.85Q256.75 7.35 256.75 6.40L256.75 6.40L256.75 6.40Q256.75 5.45 256.15 4.93L256.15 4.93L256.15 4.93Q255.56 4.42 254.44 4.42L254.44 4.42L251.72 4.42Z"></path></g></svg>