<?xml version="1.0" encoding="UTF-8" standalone="no"?>
<!DOCTYPE svg PUBLIC "-//W3C//DTD SVG 1.1//EN" "http://www.w3.org/Graphics/SVG/1.1/DTD/svg11.dtd"
[
<!ATTLIST g
  xmlns:vectornator CDATA #FIXED "http://vectornator.io"
  vectornator:layerName CDATA #IMPLIED >
<!ATTLIST g
  xmlns:vectornator CDATA #FIXED "http://vectornator.io"
  vectornator:mask CDATA #IMPLIED >
<!ATTLIST text
  xmlns:vectornator CDATA #FIXED "http://vectornator.io"
  vectornator:width CDATA #IMPLIED >

<!ATTLIST path
  xmlns:vectornator CDATA #FIXED "http://vectornator.io"
  vectornator:blendMode CDATA #IMPLIED >
<!ATTLIST path
  xmlns:vectornator CDATA #FIXED "http://vectornator.io"
  vectornator:shadowColor CDATA #IMPLIED >
<!ATTLIST path
  xmlns:vectornator CDATA #FIXED "http://vectornator.io"
  vectornator:shadowOpacity CDATA #IMPLIED >
<!ATTLIST path
  xmlns:vectornator CDATA #FIXED "http://vectornator.io"
  vectornator:shadowRadius CDATA #IMPLIED >
<!ATTLIST path
  xmlns:vectornator CDATA #FIXED "http://vectornator.io"
  vectornator:shadowOffset CDATA #IMPLIED >
<!ATTLIST path
  xmlns:vectornator CDATA #FIXED "http://vectornator.io"
  vectornator:shadowAngle CDATA #IMPLIED >

<!ATTLIST image
  xmlns:vectornator CDATA #FIXED "http://vectornator.io"
  vectornator:blendMode CDATA #IMPLIED >
<!ATTLIST image
  xmlns:vectornator CDATA #FIXED "http://vectornator.io"
  vectornator:shadowColor CDATA #IMPLIED >
<!ATTLIST image
  xmlns:vectornator CDATA #FIXED "http://vectornator.io"
  vectornator:shadowOpacity CDATA #IMPLIED >
<!ATTLIST image
  xmlns:vectornator CDATA #FIXED "http://vectornator.io"
  vectornator:shadowRadius CDATA #IMPLIED >
<!ATTLIST image
  xmlns:vectornator CDATA #FIXED "http://vectornator.io"
  vectornator:shadowOffset CDATA #IMPLIED >
<!ATTLIST image
  xmlns:vectornator CDATA #FIXED "http://vectornator.io"
  vectornator:shadowAngle CDATA #IMPLIED >

<!ATTLIST g
  xmlns:vectornator CDATA #FIXED "http://vectornator.io"
  vectornator:blendMode CDATA #IMPLIED >
<!ATTLIST g
  xmlns:vectornator CDATA #FIXED "http://vectornator.io"
  vectornator:shadowColor CDATA #IMPLIED >
<!ATTLIST g
  xmlns:vectornator CDATA #FIXED "http://vectornator.io"
  vectornator:shadowOpacity CDATA #IMPLIED >
<!ATTLIST g
  xmlns:vectornator CDATA #FIXED "http://vectornator.io"
  vectornator:shadowRadius CDATA #IMPLIED >
<!ATTLIST g
  xmlns:vectornator CDATA #FIXED "http://vectornator.io"
  vectornator:shadowOffset CDATA #IMPLIED >
<!ATTLIST g
  xmlns:vectornator CDATA #FIXED "http://vectornator.io"
  vectornator:shadowAngle CDATA #IMPLIED >

<!ENTITY % SVG.filter.extra.content  "| feDropShadow" >
<!ELEMENT feDropShadow EMPTY>
<!ATTLIST feDropShadow
  xmlns:svg CDATA #FIXED "http://www.w3.org/Graphics/SVG/1.1/DTD/svg11.dtd"
  dx CDATA #IMPLIED>
<!ATTLIST feDropShadow
  xmlns:svg CDATA #FIXED "http://www.w3.org/Graphics/SVG/1.1/DTD/svg11.dtd"
  dy CDATA #IMPLIED>
<!ATTLIST feDropShadow
  xmlns:svg CDATA #FIXED "http://www.w3.org/Graphics/SVG/1.1/DTD/svg11.dtd"
  stdDeviation CDATA #IMPLIED>
<!ATTLIST feDropShadow
  xmlns:svg CDATA #FIXED "http://www.w3.org/Graphics/SVG/1.1/DTD/svg11.dtd"
  flood-opacity CDATA #IMPLIED>
<!ATTLIST feDropShadow
  xmlns:svg CDATA #FIXED "http://www.w3.org/Graphics/SVG/1.1/DTD/svg11.dtd"
  in CDATA #IMPLIED>
<!ATTLIST feDropShadow
  xmlns:svg CDATA #FIXED "http://www.w3.org/Graphics/SVG/1.1/DTD/svg11.dtd"
  result CDATA #IMPLIED>
<!ATTLIST feDropShadow
  xmlns:svg CDATA #FIXED "http://www.w3.org/Graphics/SVG/1.1/DTD/svg11.dtd"
  flood-color CDATA #IMPLIED>
]
>
<!-- Created with Vectornator (http://vectornator.io/) -->
<svg height="100%" stroke-miterlimit="10" style="fill-rule:nonzero;clip-rule:evenodd;stroke-linecap:round;stroke-linejoin:round;" version="1.1" viewBox="0 0 933 200" width="100%" xml:space="preserve" xmlns="http://www.w3.org/2000/svg" xmlns:vectornator="http://vectornator.io" xmlns:xlink="http://www.w3.org/1999/xlink">
<defs>
<linearGradient gradientTransform="matrix(1 0 0 1 0 0)" gradientUnits="userSpaceOnUse" id="LinearGradient" x1="210" x2="933" y1="0" y2="0">
<stop offset="0" stop-color="#7c4dff"/>
<stop offset="1" stop-color="#8c9eff"/>
</linearGradient>
<clipPath id="TextBounds">
<rect height="135" width="627.067" x="265" y="37"/>
</clipPath>
<clipPath id="TextBounds_2">
<rect height="135" width="627.067" x="255" y="27"/>
</clipPath>
</defs>
<g id="Untitled" vectornator:layerName="Untitled">
<g opacity="1">
<path d="M0 0L210 0L210 0L210 200L210 200L0 200L0 200L0 0L0 0Z" fill="#555555" fill-rule="evenodd" opacity="1" stroke="none"/>
<path d="M210 0L933 0L933 0L933 200L933 200L210 200L210 200L210 0L210 0Z" fill="url(#LinearGradient)" fill-rule="evenodd" opacity="1" stroke="none"/>
</g>
<g opacity="1">
<g fill="#000000" opacity="0.1" stroke="none">
<path clip-path="url(#TextBounds)" d="M340.299 148L328.966 148L321.124 125.71L286.534 125.71L278.692 148L267.896 148L297.008 68.0244L311.188 68.0244L340.299 148ZM317.848 116.579L303.829 77.3164L289.757 116.579L317.848 116.579Z" fill-rule="evenodd"/>
<path clip-path="url(#TextBounds)" d="M413.453 148L400.294 148L362.374 76.457L362.374 148L352.438 148L352.438 68.0244L368.927 68.0244L403.517 133.337L403.517 68.0244L413.453 68.0244L413.453 148Z" fill-rule="evenodd"/>
<path clip-path="url(#TextBounds)" d="M501.432 142.092C497.063 144.097 492.292 145.843 487.118 147.329C481.944 148.815 476.939 149.558 472.105 149.558C465.875 149.558 460.164 148.698 454.972 146.979C449.78 145.261 445.357 142.683 441.705 139.245C438.017 135.772 435.17 131.43 433.165 126.22C431.16 121.01 430.157 114.914 430.157 107.932C430.157 95.1484 433.89 85.0597 441.356 77.6655C448.822 70.2713 459.072 66.5742 472.105 66.5742C476.653 66.5742 481.299 67.1203 486.043 68.2124C490.788 69.3045 495.899 71.1576 501.378 73.7715L501.378 86.3936L500.411 86.3936C499.301 85.5342 497.69 84.4063 495.577 83.0098C493.465 81.6133 491.388 80.4495 489.347 79.5186C486.876 78.4085 484.074 77.4865 480.941 76.7524C477.808 76.0184 474.254 75.6514 470.279 75.6514C461.327 75.6514 454.247 78.5249 449.037 84.272C443.827 90.019 441.222 97.7982 441.222 107.609C441.222 117.958 443.943 126.005 449.386 131.752C454.828 137.5 462.241 140.373 471.622 140.373C475.06 140.373 478.488 140.033 481.908 139.353C485.327 138.672 488.326 137.795 490.904 136.721L490.904 117.116L469.474 117.116L469.474 107.771L501.432 107.771L501.432 142.092Z" fill-rule="evenodd"/>
<path clip-path="url(#TextBounds)" d="M572.706 148L520.016 148L520.016 68.0244L572.706 68.0244L572.706 77.4775L530.65 77.4775L530.65 99.3916L572.706 99.3916L572.706 108.845L530.65 108.845L530.65 138.547L572.706 138.547L572.706 148Z" fill-rule="evenodd"/>
<path clip-path="url(#TextBounds)" d="M640.167 148L589.571 148L589.571 68.0244L600.206 68.0244L600.206 138.547L640.167 138.547L640.167 148Z" fill-rule="evenodd"/>
<path clip-path="url(#TextBounds)" d="M701.397 148L650.802 148L650.802 68.0244L661.437 68.0244L661.437 138.547L701.397 138.547L701.397 148Z" fill-rule="evenodd"/>
<path clip-path="url(#TextBounds)" d="M740.23 148L708.648 148L708.648 139.836L719.122 139.836L719.122 76.1885L708.648 76.1885L708.648 68.0244L740.23 68.0244L740.23 76.1885L729.757 76.1885L729.757 139.836L740.23 139.836L740.23 148Z" fill-rule="evenodd"/>
<path clip-path="url(#TextBounds)" d="M816.446 125.173C816.446 128.288 815.721 131.368 814.271 134.411C812.821 137.455 810.789 140.033 808.175 142.146C805.31 144.437 801.971 146.228 798.158 147.517C794.344 148.806 789.752 149.45 784.381 149.45C778.616 149.45 773.433 148.913 768.832 147.839C764.23 146.765 759.549 145.171 754.786 143.059L754.786 129.738L755.538 129.738C759.584 133.104 764.257 135.7 769.557 137.526C774.856 139.353 779.833 140.266 784.488 140.266C791.077 140.266 796.206 139.03 799.876 136.56C803.547 134.089 805.382 130.795 805.382 126.677C805.382 123.132 804.514 120.518 802.777 118.835C801.04 117.152 798.399 115.845 794.854 114.914C792.169 114.198 789.26 113.607 786.126 113.142C782.993 112.676 779.672 112.085 776.163 111.369C769.073 109.865 763.819 107.296 760.399 103.662C756.979 100.027 755.27 95.2917 755.27 89.4551C755.27 82.7591 758.098 77.2716 763.756 72.9927C769.413 68.7137 776.593 66.5742 785.294 66.5742C790.916 66.5742 796.072 67.1113 800.763 68.1855C805.453 69.2598 809.607 70.5846 813.224 72.1602L813.224 84.7285L812.472 84.7285C809.428 82.1504 805.427 80.0109 800.467 78.3101C795.508 76.6092 790.432 75.7588 785.24 75.7588C779.547 75.7588 774.972 76.9404 771.517 79.3037C768.062 81.667 766.334 84.7106 766.334 88.4346C766.334 91.7646 767.193 94.3786 768.912 96.2764C770.631 98.1742 773.657 99.6243 777.989 100.627C780.281 101.128 783.539 101.737 787.765 102.453C791.99 103.169 795.571 103.903 798.507 104.655C804.451 106.231 808.927 108.612 811.935 111.799C814.942 114.986 816.446 119.444 816.446 125.173Z" fill-rule="evenodd"/>
<path clip-path="url(#TextBounds)" d="M890.567 77.4775L861.993 77.4775L861.993 148L851.358 148L851.358 77.4775L822.784 77.4775L822.784 68.0244L890.567 68.0244L890.567 77.4775Z" fill-rule="evenodd"/>
</g>
<g fill="#ffffff" opacity="1" stroke="none">
<path clip-path="url(#TextBounds_2)" d="M330.299 138L318.966 138L311.124 115.71L276.534 115.71L268.692 138L257.896 138L287.008 58.0244L301.188 58.0244L330.299 138ZM307.848 106.579L293.829 67.3164L279.757 106.579L307.848 106.579Z" fill-rule="evenodd"/>
<path clip-path="url(#TextBounds_2)" d="M403.453 138L390.294 138L352.374 66.457L352.374 138L342.438 138L342.438 58.0244L358.927 58.0244L393.517 123.337L393.517 58.0244L403.453 58.0244L403.453 138Z" fill-rule="evenodd"/>
<path clip-path="url(#TextBounds_2)" d="M491.432 132.092C487.063 134.097 482.292 135.843 477.118 137.329C471.944 138.815 466.939 139.558 462.105 139.558C455.875 139.558 450.164 138.698 444.972 136.979C439.78 135.261 435.357 132.683 431.705 129.245C428.017 125.772 425.17 121.43 423.165 116.22C421.16 111.01 420.157 104.914 420.157 97.9316C420.157 85.1484 423.89 75.0597 431.356 67.6655C438.822 60.2713 449.072 56.5742 462.105 56.5742C466.653 56.5742 471.299 57.1203 476.043 58.2124C480.788 59.3045 485.899 61.1576 491.378 63.7715L491.378 76.3936L490.411 76.3936C489.301 75.5342 487.69 74.4063 485.577 73.0098C483.465 71.6133 481.388 70.4495 479.347 69.5186C476.876 68.4085 474.074 67.4865 470.941 66.7524C467.808 66.0184 464.254 65.6514 460.279 65.6514C451.327 65.6514 444.247 68.5249 439.037 74.272C433.827 80.019 431.222 87.7982 431.222 97.6094C431.222 107.958 433.943 116.005 439.386 121.752C444.828 127.5 452.241 130.373 461.622 130.373C465.06 130.373 468.488 130.033 471.908 129.353C475.327 128.672 478.326 127.795 480.904 126.721L480.904 107.116L459.474 107.116L459.474 97.7705L491.432 97.7705L491.432 132.092Z" fill-rule="evenodd"/>
<path clip-path="url(#TextBounds_2)" d="M562.706 138L510.016 138L510.016 58.0244L562.706 58.0244L562.706 67.4775L520.65 67.4775L520.65 89.3916L562.706 89.3916L562.706 98.8447L520.65 98.8447L520.65 128.547L562.706 128.547L562.706 138Z" fill-rule="evenodd"/>
<path clip-path="url(#TextBounds_2)" d="M630.167 138L579.571 138L579.571 58.0244L590.206 58.0244L590.206 128.547L630.167 128.547L630.167 138Z" fill-rule="evenodd"/>
<path clip-path="url(#TextBounds_2)" d="M691.397 138L640.802 138L640.802 58.0244L651.437 58.0244L651.437 128.547L691.397 128.547L691.397 138Z" fill-rule="evenodd"/>
<path clip-path="url(#TextBounds_2)" d="M730.23 138L698.648 138L698.648 129.836L709.122 129.836L709.122 66.1885L698.648 66.1885L698.648 58.0244L730.23 58.0244L730.23 66.1885L719.757 66.1885L719.757 129.836L730.23 129.836L730.23 138Z" fill-rule="evenodd"/>
<path clip-path="url(#TextBounds_2)" d="M806.446 115.173C806.446 118.288 805.721 121.368 804.271 124.411C802.821 127.455 800.789 130.033 798.175 132.146C795.31 134.437 791.971 136.228 788.158 137.517C784.344 138.806 779.752 139.45 774.381 139.45C768.616 139.45 763.433 138.913 758.832 137.839C754.23 136.765 749.549 135.171 744.786 133.059L744.786 119.738L745.538 119.738C749.584 123.104 754.257 125.7 759.557 127.526C764.856 129.353 769.833 130.266 774.488 130.266C781.077 130.266 786.206 129.03 789.876 126.56C793.547 124.089 795.382 120.795 795.382 116.677C795.382 113.132 794.514 110.518 792.777 108.835C791.04 107.152 788.399 105.845 784.854 104.914C782.169 104.198 779.26 103.607 776.126 103.142C772.993 102.676 769.672 102.085 766.163 101.369C759.073 99.8652 753.819 97.2961 750.399 93.6616C746.979 90.0272 745.27 85.2917 745.27 79.4551C745.27 72.7591 748.098 67.2716 753.756 62.9927C759.413 58.7137 766.593 56.5742 775.294 56.5742C780.916 56.5742 786.072 57.1113 790.763 58.1855C795.453 59.2598 799.607 60.5846 803.224 62.1602L803.224 74.7285L802.472 74.7285C799.428 72.1504 795.427 70.0109 790.467 68.3101C785.508 66.6092 780.432 65.7588 775.24 65.7588C769.547 65.7588 764.972 66.9404 761.517 69.3037C758.062 71.667 756.334 74.7106 756.334 78.4346C756.334 81.7646 757.193 84.3786 758.912 86.2764C760.631 88.1742 763.657 89.6243 767.989 90.627C770.281 91.1283 773.539 91.737 777.765 92.4531C781.99 93.1693 785.571 93.9033 788.507 94.6553C794.451 96.2308 798.927 98.612 801.935 101.799C804.942 104.986 806.446 109.444 806.446 115.173Z" fill-rule="evenodd"/>
<path clip-path="url(#TextBounds_2)" d="M880.567 67.4775L851.993 67.4775L851.993 138L841.358 138L841.358 67.4775L812.784 67.4775L812.784 58.0244L880.567 58.0244L880.567 67.4775Z" fill-rule="evenodd"/>
</g>
</g>
<g opacity="1">
<path d="M134.683 90.6012C139.659 77.0796 143.54 65.9175 146.332 57.1149C149.118 48.3124 150.51 42.9037 150.51 40.8958C150.51 38.7458 150.044 37.0759 149.118 35.886C148.201 34.7026 146.767 34.0373 145.271 34.1012C143.188 34.1012 141.079 35.8252 138.916 39.2799C136.766 42.7347 134.386 48.2921 131.783 55.9453L120.641 88.147L134.683 90.6012ZM119.864 120.579C116.666 120.43 113.644 120.099 110.777 119.578C107.988 119.077 105.248 118.33 102.59 117.347C103.773 119.727 104.834 122.1 105.767 124.48C106.694 126.859 107.458 129.199 108.046 131.504C109.831 129.273 111.71 127.245 113.678 125.426C115.6 123.64 117.669 122.018 119.864 120.579ZM107.268 86.8151L95.2341 52.0443C92.1106 43.2012 89.697 37.4207 87.9865 34.7164C86.276 31.9986 84.4236 30.6464 82.4156 30.6464C80.9421 30.6078 79.5375 31.27 78.6295 32.4312C77.6628 33.6144 77.176 35.2167 77.176 37.2179C77.176 40.6389 78.4808 46.5816 81.077 55.0529C83.6799 63.5242 87.5808 74.6254 92.7799 88.3701C93.1869 87.5895 93.8577 86.9785 94.6729 86.6461C95.7467 86.269 96.8824 86.0993 98.0195 86.1458C98.4657 86.1458 99.3582 86.1796 100.697 86.254C102.029 86.3283 104.219 86.5176 107.268 86.8151ZM96.3496 140.638C97.6071 140.638 98.7632 140.063 99.7976 138.914C100.775 137.915 101.334 136.58 101.359 135.182C101.359 133.769 100.345 130.483 98.2967 125.311C96.1944 120.031 93.6406 114.941 90.6638 110.099C88.4327 106.388 86.2422 103.589 84.0855 101.689C81.9356 99.7958 79.8938 98.8493 77.9602 98.8493C76.4052 98.8493 74.6745 99.8364 72.7747 101.804C70.8817 103.771 69.9352 105.61 69.9352 107.321C69.9352 109.099 70.8614 111.783 72.7206 115.346C74.5798 118.909 77.0678 122.695 80.1913 126.704C83.4568 131.098 86.5464 134.513 89.4401 136.96C92.3337 139.414 94.6391 140.638 96.3496 140.638ZM62.9174 137.967C63.9518 139.232 65.4054 141.084 67.2579 143.538C72.1662 150.299 76.6959 153.679 80.8538 153.679C82.2334 153.689 83.5728 153.215 84.6399 152.341C85.7622 151.448 86.3166 150.515 86.3166 149.555C86.3166 148.44 85.5729 146.581 84.0855 143.984C82.5981 141.382 80.5564 138.447 77.9602 135.182C74.9855 131.396 72.5178 128.624 70.5504 126.88C68.583 125.135 67.001 124.256 65.8178 124.256C63.2082 124.256 60.8148 125.649 58.6243 128.435C56.4338 131.22 55.3386 134.513 55.3386 138.305C55.3386 141.348 56.0958 144.748 57.6237 148.494C59.1449 152.246 61.3557 156.019 64.2493 159.805C68.5129 165.576 74.1164 170.224 80.5766 173.347C87.0805 176.504 94.2673 178.079 102.144 178.079C116.632 178.079 128.761 172.677 138.53 161.867C148.3 151.056 153.181 137.521 153.181 121.248C153.181 116.272 152.809 112.317 152.065 109.383C151.322 106.448 150.105 104.312 148.387 102.973C145.345 100.445 139.423 98.18 130.613 96.1721C121.56 94.1389 112.308 93.1297 103.029 93.1635C100.359 93.1635 98.4657 93.6097 97.3502 94.5021C96.2347 95.3946 95.6803 96.9157 95.6803 99.0724C95.6803 104.123 98.4995 107.78 104.152 110.045C109.79 112.317 118.931 113.446 131.567 113.446L136.13 113.446C137.171 113.446 138.01 113.838 138.638 114.616C139.267 115.4 139.7 116.569 139.923 118.131C138.659 119.314 136.056 120.673 132.121 122.194C128.179 123.716 125.171 125.223 123.095 126.711C118.772 129.836 115.117 133.794 112.346 138.353C109.628 142.849 108.269 147.101 108.269 151.117C108.269 153.564 108.844 156.526 110 159.974C111.149 163.428 111.724 165.565 111.724 166.383L111.724 167.16L111.501 168.168C108.235 167.945 105.652 166.031 103.759 162.421C101.866 158.824 100.92 154.011 100.92 147.994L100.92 146.993C100.41 147.459 99.8245 147.836 99.1891 148.109C98.6035 148.338 97.9792 148.453 97.3502 148.447C96.6809 148.447 96.0521 148.386 95.4572 148.271C94.7794 148.14 94.1092 147.973 93.4492 147.77C93.8259 149.155 94.0503 150.576 94.1185 152.01C94.1185 154.754 93.0368 157.114 90.8869 159.081C88.8026 161.022 86.0477 162.081 83.1998 162.036C78.5146 162.036 73.7618 159.751 68.9346 155.18C64.1006 150.617 61.687 146.141 61.687 141.753C61.687 140.942 61.7816 140.212 61.9642 139.583C62.1362 138.97 62.462 138.412 62.9107 137.961L62.9174 137.967ZM142.708 92.4942C149.395 93.7585 154.114 96.5845 156.859 100.965C159.61 105.353 160.983 112.256 160.983 121.694C160.983 140.421 155.358 155.741 144.101 167.668C132.844 179.587 118.451 185.55 100.92 185.55C94.0405 185.557 87.2191 184.291 80.7998 181.818C74.5718 179.498 68.871 175.956 64.033 171.399C58.6784 166.491 54.6693 161.312 51.9987 155.85C49.3838 150.646 48.0093 144.907 47.9828 139.083C47.9828 132.687 49.3553 127.752 52.1069 124.256C54.8518 120.768 59.199 118.388 65.1417 117.124C64.1978 114.983 63.3806 112.789 62.6943 110.552C62.1737 108.767 61.9101 107.395 61.9101 106.428C61.9101 103.082 63.6746 99.6674 67.2038 96.1721C70.7329 92.6835 74.0592 90.9392 77.176 90.9392C78.5146 90.9392 79.9276 91.1758 81.415 91.6626C82.9024 92.1426 84.6061 92.9472 86.5397 94.0559C80.82 77.8571 76.6622 65.3631 74.0592 56.5538C71.4563 47.7512 70.1583 41.68 70.1583 38.3334C70.1583 33.7293 71.3482 30.0717 73.728 27.3606C76.101 24.6428 79.3327 23.2906 83.423 23.2906C90.4001 23.2906 99.2432 38.8946 109.946 70.0957C111.798 75.4434 113.211 79.5675 114.178 82.4679L117.633 72.6648C128.328 41.7476 137.543 26.2924 145.271 26.2924C149.057 26.2924 152.086 27.577 154.351 30.1393C156.622 32.7017 157.751 36.1362 157.751 40.4428C157.751 43.715 156.507 49.6983 154.019 58.386C151.531 67.0803 147.759 78.4452 142.708 92.4874" fill="#ffffff" fill-rule="evenodd" opacity="0.1" stroke="none"/>
<path d="M124.683 80.6012C129.659 67.0796 133.54 55.9175 136.332 47.1149C139.118 38.3124 140.51 32.9037 140.51 30.8958C140.51 28.7458 140.044 27.0759 139.118 25.886C138.201 24.7026 136.767 24.0373 135.271 24.1012C133.188 24.1012 131.079 25.8252 128.916 29.2799C126.766 32.7347 124.386 38.2921 121.783 45.9453L110.641 78.147L124.683 80.6012ZM109.864 110.579C106.666 110.43 103.644 110.099 100.777 109.578C97.9877 109.077 95.248 108.33 92.5898 107.347C93.773 109.727 94.8344 112.1 95.7674 114.48C96.6936 116.859 97.4576 119.199 98.0458 121.504C99.8306 119.273 101.71 117.245 103.678 115.426C105.6 113.64 107.669 112.018 109.864 110.579ZM97.2683 76.8151L85.2341 42.0443C82.1106 33.2012 79.697 27.4207 77.9865 24.7164C76.276 21.9986 74.4236 20.6464 72.4156 20.6464C70.9421 20.6078 69.5375 21.27 68.6295 22.4312C67.6628 23.6144 67.176 25.2167 67.176 27.2179C67.176 30.6389 68.4808 36.5816 71.077 45.0529C73.6799 53.5242 77.5808 64.6254 82.7799 78.3701C83.1869 77.5895 83.8577 76.9785 84.6729 76.6461C85.7467 76.269 86.8824 76.0993 88.0195 76.1458C88.4657 76.1458 89.3582 76.1796 90.6968 76.254C92.0287 76.3283 94.2192 76.5176 97.2683 76.8151ZM86.3496 130.638C87.6071 130.638 88.7632 130.063 89.7976 128.914C90.7754 127.915 91.3342 126.58 91.3593 125.182C91.3593 123.769 90.3452 120.483 88.2967 115.311C86.1944 110.031 83.6406 104.941 80.6638 100.099C78.4327 96.3876 76.2422 93.5887 74.0855 91.6889C71.9356 89.7958 69.8938 88.8493 67.9602 88.8493C66.4052 88.8493 64.6745 89.8364 62.7747 91.8038C60.8817 93.7712 59.9352 95.6101 59.9352 97.3206C59.9352 99.0987 60.8614 101.783 62.7206 105.346C64.5798 108.909 67.0678 112.695 70.1913 116.704C73.4568 121.098 76.5464 124.513 79.4401 126.96C82.3337 129.414 84.6391 130.638 86.3496 130.638ZM52.9174 127.967C53.9518 129.232 55.4054 131.084 57.2579 133.538C62.1662 140.299 66.6959 143.679 70.8538 143.679C72.2334 143.689 73.5728 143.215 74.6399 142.341C75.7622 141.448 76.3166 140.515 76.3166 139.555C76.3166 138.44 75.5729 136.581 74.0855 133.984C72.5981 131.382 70.5564 128.447 67.9602 125.182C64.9855 121.396 62.5178 118.624 60.5504 116.88C58.583 115.135 57.001 114.256 55.8178 114.256C53.2082 114.256 50.8148 115.649 48.6243 118.435C46.4338 121.22 45.3386 124.513 45.3386 128.305C45.3386 131.348 46.0958 134.748 47.6237 138.494C49.1449 142.246 51.3557 146.019 54.2493 149.805C58.5129 155.576 64.1164 160.224 70.5766 163.347C77.0805 166.504 84.2673 168.079 92.1436 168.079C106.632 168.079 118.761 162.677 128.53 151.867C138.3 141.056 143.181 127.521 143.181 111.248C143.181 106.272 142.809 102.317 142.065 99.3827C141.322 96.4485 140.105 94.3121 138.387 92.9734C135.345 90.4449 129.423 88.18 120.613 86.1721C111.56 84.1389 102.308 83.1297 93.0293 83.1635C90.3588 83.1635 88.4657 83.6097 87.3502 84.5021C86.2347 85.3946 85.6803 86.9157 85.6803 89.0724C85.6803 94.1228 88.4995 97.7804 94.1516 100.045C99.7901 102.317 108.931 103.446 121.567 103.446L126.13 103.446C127.171 103.446 128.01 103.838 128.638 104.616C129.267 105.4 129.7 106.569 129.923 108.131C128.659 109.314 126.056 110.673 122.121 112.194C118.179 113.716 115.171 115.223 113.095 116.711C108.772 119.836 105.117 123.794 102.346 128.353C99.6278 132.849 98.2689 137.101 98.2689 141.117C98.2689 143.564 98.8436 146.526 99.9997 149.974C101.149 153.428 101.724 155.565 101.724 156.383L101.724 157.16L101.501 158.168C98.2351 157.945 95.6525 156.031 93.7594 152.421C91.8664 148.824 90.9199 144.011 90.9199 137.994L90.9199 136.993C90.4096 137.459 89.8245 137.836 89.1891 138.109C88.6035 138.338 87.9792 138.453 87.3502 138.447C86.6809 138.447 86.0521 138.386 85.4572 138.271C84.7794 138.14 84.1092 137.973 83.4492 137.77C83.8259 139.155 84.0503 140.576 84.1185 142.01C84.1185 144.754 83.0368 147.114 80.8869 149.081C78.8026 151.022 76.0477 152.081 73.1998 152.036C68.5146 152.036 63.7618 149.751 58.9346 145.18C54.1006 140.617 51.687 136.141 51.687 131.753C51.687 130.942 51.7816 130.212 51.9642 129.583C52.1362 128.97 52.462 128.412 52.9107 127.961L52.9174 127.967ZM132.708 82.4942C139.395 83.7585 144.114 86.5845 146.859 90.9655C149.61 95.3532 150.983 102.256 150.983 111.694C150.983 130.421 145.358 145.741 134.101 157.668C122.844 169.587 108.451 175.55 90.9199 175.55C84.0405 175.557 77.2191 174.291 70.7998 171.818C64.5718 169.498 58.871 165.956 54.033 161.399C48.6784 156.491 44.6693 151.312 41.9987 145.85C39.3838 140.646 38.0093 134.907 37.9828 129.083C37.9828 122.687 39.3553 117.752 42.1069 114.256C44.8518 110.768 49.199 108.388 55.1417 107.124C54.1978 104.983 53.3806 102.789 52.6943 100.552C52.1737 98.7674 51.9101 97.395 51.9101 96.4282C51.9101 93.0816 53.6746 89.6674 57.2038 86.1721C60.7329 82.6835 64.0592 80.9392 67.176 80.9392C68.5146 80.9392 69.9276 81.1758 71.415 81.6626C72.9024 82.1426 74.6061 82.9472 76.5397 84.0559C70.82 67.8571 66.6622 55.3631 64.0592 46.5538C61.4563 37.7512 60.1583 31.68 60.1583 28.3334C60.1583 23.7293 61.3482 20.0717 63.728 17.3606C66.101 14.6428 69.3327 13.2906 73.423 13.2906C80.4001 13.2906 89.2432 28.8946 99.9456 60.0957C101.798 65.4434 103.211 69.5675 104.178 72.4679L107.633 62.6648C118.328 31.7476 127.543 16.2924 135.271 16.2924C139.057 16.2924 142.086 17.577 144.351 20.1393C146.622 22.7017 147.751 26.1362 147.751 30.4428C147.751 33.715 146.507 39.6983 144.019 48.386C141.531 57.0803 137.759 68.4452 132.708 82.4874" fill="#ffffff" fill-rule="evenodd" opacity="1" stroke="none"/>
</g>
</g>
</svg>
