<?xml version="1.0" encoding="UTF-8" standalone="no"?>
<!DOCTYPE svg PUBLIC "-//W3C//DTD SVG 1.1//EN" "http://www.w3.org/Graphics/SVG/1.1/DTD/svg11.dtd">

<!-- Created with Vectornator (http://vectornator.io/) -->
<svg height="100%" stroke-miterlimit="10" style="fill-rule:nonzero;clip-rule:evenodd;stroke-linecap:round;stroke-linejoin:round;" version="1.1" viewBox="0 0 2656 256" width="100%" xml:space="preserve" xmlns="http://www.w3.org/2000/svg" xmlns:vectornator="http://vectornator.io" xmlns:xlink="http://www.w3.org/1999/xlink">
<metadata>
<vectornator:setting key="IsTimeLapseWatermarkDisabled" value="false"/>
<vectornator:setting key="UndoHistoryDisabled" value="true"/>
<vectornator:setting key="VNDimensionsVisible" value="true"/>
<vectornator:setting key="VNSnapToGuides" value="true"/>
<vectornator:setting key="WDCMYKEnabledKey" value="false"/>
<vectornator:setting key="WDDisplayWhiteBackground" value="false"/>
<vectornator:setting key="WDDynamicGuides" value="false"/>
<vectornator:setting key="WDGuidesVisible" value="true"/>
<vectornator:setting key="WDIsolateActiveLayer" value="false"/>
<vectornator:setting key="WDOutlineMode" value="false"/>
<vectornator:setting key="WDRulersVisible" value="true"/>
<vectornator:setting key="WDSnapToEdges" value="false"/>
<vectornator:setting key="WDSnapToGrid" value="false"/>
<vectornator:setting key="WDSnapToPoints" value="false"/>
<vectornator:setting key="WDUnits" value="Points"/>
</metadata>
<defs>
<path d="M928 28L1128 28L1128 28L1128 228L1128 228L928 228L928 228L928 28L928 28Z" fill-rule="evenodd" id="Fill"/>
<linearGradient gradientTransform="matrix(1 0 0 1 2100 0)" gradientUnits="userSpaceOnUse" id="LinearGradient" x1="0" x2="256" y1="0" y2="256">
<stop offset="0" stop-color="#9013fe"/>
<stop offset="1" stop-color="#6b11f4"/>
</linearGradient>
<path d="M2428 51L2628 51L2628 51L2628 205.93L2628 205.93L2428 205.93L2428 205.93L2428 51L2428 51Z" fill-rule="evenodd" id="Fill_2"/>
</defs>
<clipPath id="ArtboardFrame">
<rect height="256" width="2656" x="0" y="0"/>
</clipPath>
<g clip-path="url(#ArtboardFrame)" id="Untitled" vectornator:layerName="Untitled">
<g opacity="1">
<path d="M60 0L196 0C229.137-4.47035e-07 256 26.8629 256 60L256 196C256 229.137 229.137 256 196 256L60 256C26.8629 256 4.66828e-06 229.137-3.35276e-07 196L-3.35276e-07 60C-7.76723e-06 26.8629 26.8629-6.74553e-07 60 0Z" fill="#e14e1d" fill-rule="evenodd" opacity="1" stroke="none"/>
<path d="M48 38L56.6098 134.593L167.32 134.593L163.605 176.023L127.959 185.661L92.38 176.037L90.0012 149.435L57.9389 149.435L62.5236 200.716L127.951 218.888L193.461 200.716L202.244 102.655L85.8241 102.655L82.901 69.9448L205.041 69.9448L205.139 69.9448L208 38L48 38Z" fill="#ffffff" fill-rule="evenodd" opacity="1" stroke="none"/>
<path d="M128 38L48 38L56.6098 134.593L128 134.593L128 102.655L85.8241 102.655L82.901 69.9448L128 69.9448L128 38Z" fill="#ebebeb" fill-rule="evenodd" opacity="1" stroke="none"/>
<path d="M128 185.647L127.959 185.661L92.38 176.037L90.0012 149.435L57.9388 149.435L62.5236 200.716L127.951 218.888L128 218.874L128 185.647Z" fill="#ebebeb" fill-rule="evenodd" opacity="1" stroke="none"/>
</g>
<g opacity="1">
<path d="M360 0L496 0C529.137-4.47035e-07 556 26.8629 556 60L556 196C556 229.137 529.137 256 496 256L360 256C326.863 256 300 229.137 300 196L300 60C300 26.8629 326.863-6.74553e-07 360 0Z" fill="#0277bd" fill-rule="evenodd" opacity="1" stroke="none"/>
<path d="M353.753 102.651L356.616 134.593L428.096 134.593L428.096 102.651L353.753 102.651Z" fill="#ebebeb" fill-rule="evenodd" opacity="1" stroke="none"/>
<path d="M428.095 38L427.985 38L348 38L350.904 69.9423L428.095 69.9423L428.095 38Z" fill="#ebebeb" fill-rule="evenodd" opacity="1" stroke="none"/>
<path d="M428.095 218.841L428.095 185.608L427.955 185.645L392.381 176.04L390.107 150.564L372.821 150.564L358.042 150.564L362.518 200.718L427.948 218.882L428.095 218.841Z" fill="#ebebeb" fill-rule="evenodd" opacity="1" stroke="none"/>
<path d="M467.318 134.593L463.61 176.019L427.985 185.635L427.985 218.866L493.468 200.718L493.948 195.321L501.454 111.229L502.233 102.651L508 38L427.985 38L427.985 69.9423L472.994 69.9423L470.088 102.651L427.985 102.651L427.985 134.593L467.318 134.593Z" fill="#ffffff" fill-rule="evenodd" opacity="1" stroke="none"/>
</g>
<g opacity="1">
<path d="M660 0L796 0C829.137-4.47035e-07 856 26.8629 856 60L856 196C856 229.137 829.137 256 796 256L660 256C626.863 256 600 229.137 600 196L600 60C600 26.8629 626.863-6.74553e-07 660 0Z" fill="#f0db4f" fill-rule="evenodd" opacity="1" stroke="none"/>
<path d="M667.312 213.932L686.903 202.076C690.682 208.777 694.12 214.447 702.367 214.447C710.272 214.447 715.256 211.355 715.256 199.327L715.256 117.529L739.314 117.529L739.314 199.667C739.314 224.584 724.708 235.926 703.398 235.926C684.153 235.926 672.982 225.959 667.311 213.93" fill="#323330" fill-rule="evenodd" opacity="1" stroke="none"/>
<path d="M752.381 211.354L771.969 200.013C777.126 208.434 783.828 214.62 795.684 214.62C805.653 214.62 812.009 209.636 812.009 202.762C812.009 194.514 805.479 191.592 794.481 186.782L788.468 184.203C771.111 176.815 759.597 167.535 759.597 147.945C759.597 129.901 773.345 116.153 794.826 116.153C810.12 116.153 821.118 121.481 829.022 135.4L810.291 147.429C806.166 140.04 801.7 137.119 794.826 137.119C787.78 137.119 783.312 141.587 783.312 147.429C783.312 154.646 787.78 157.568 798.09 162.037L804.104 164.614C824.553 173.379 836.067 182.313 836.067 202.418C836.067 224.072 819.055 235.928 796.2 235.928C773.861 235.928 759.426 225.274 752.381 211.354" fill="#323330" fill-rule="evenodd" opacity="1" stroke="none"/>
</g>
<g opacity="1">
<path d="M960 0L1096 0C1129.14-4.47035e-07 1156 26.8629 1156 60L1156 196C1156 229.137 1129.14 256 1096 256L960 256C926.863 256 900 229.137 900 196L900 60C900 26.8629 926.863-6.74553e-07 960 0Z" fill="#f03c2e" fill-rule="evenodd" opacity="1" stroke="none"/>
<g opacity="1" vectornator:mask="#Fill">
<clipPath id="ClipPath">
<use overflow="#visible" xlink:href="#Fill"/>
</clipPath>
<g clip-path="url(#ClipPath)">
<path d="M1124.23 119.094L1036.91 31.775C1035.71 30.5787 1034.29 29.6298 1032.73 28.9824C1031.17 28.3349 1029.49 28.0017 1027.8 28.0017C1026.11 28.0017 1024.43 28.3349 1022.87 28.9824C1021.31 29.6298 1019.89 30.5787 1018.69 31.775L1000.57 49.9L1023.57 72.9C1028.92 71.025 1035.04 72.3062 1039.31 76.5687C1041.34 78.6014 1042.75 81.1638 1043.39 83.9632C1044.04 86.7626 1043.88 89.6862 1042.94 92.4L1065.11 114.569C1070.47 112.719 1076.66 113.912 1080.94 118.206C1082.36 119.63 1083.49 121.32 1084.26 123.18C1085.03 125.04 1085.43 127.033 1085.43 129.046C1085.43 131.059 1085.03 133.052 1084.26 134.912C1083.49 136.771 1082.36 138.461 1080.93 139.884C1079.51 141.308 1077.82 142.436 1075.96 143.206C1074.1 143.977 1072.11 144.373 1070.1 144.372C1068.08 144.372 1066.09 143.975 1064.23 143.205C1062.37 142.434 1060.68 141.305 1059.26 139.881C1054.76 135.381 1053.64 128.756 1055.92 123.212L1035.24 102.537L1035.24 156.944C1036.74 157.686 1038.12 158.666 1039.31 159.844C1040.73 161.267 1041.86 162.956 1042.63 164.816C1043.4 166.675 1043.79 168.668 1043.79 170.681C1043.79 172.694 1043.4 174.687 1042.63 176.546C1041.86 178.406 1040.73 180.096 1039.31 181.519C1037.88 182.942 1036.19 184.071 1034.33 184.841C1032.47 185.611 1030.48 186.008 1028.47 186.008C1026.46 186.008 1024.46 185.611 1022.6 184.841C1020.74 184.071 1019.05 182.942 1017.63 181.519C1016.21 180.096 1015.08 178.407 1014.31 176.548C1013.53 174.688 1013.14 172.694 1013.14 170.681C1013.14 168.668 1013.53 166.675 1014.31 164.815C1015.08 162.955 1016.21 161.266 1017.63 159.844C1019.11 158.369 1020.76 157.25 1022.65 156.5L1022.65 101.587C1020.82 100.837 1019.11 99.7312 1017.63 98.2437C1015.48 96.0943 1014.02 93.3526 1013.43 90.3684C1012.84 87.3841 1013.15 84.2924 1014.33 81.4875L991.644 58.8125L931.769 118.625C930.572 119.821 929.622 121.241 928.974 122.804C928.326 124.367 927.992 126.042 927.992 127.734C927.992 129.426 928.326 131.102 928.974 132.665C929.622 134.228 930.572 135.648 931.769 136.844L1019.09 224.156C1020.29 225.352 1021.71 226.301 1023.27 226.949C1024.83 227.596 1026.51 227.929 1028.2 227.929C1029.89 227.929 1031.57 227.596 1033.13 226.949C1034.69 226.301 1036.11 225.352 1037.31 224.156L1124.23 137.375C1125.42 136.179 1126.37 134.759 1127.02 133.196C1127.67 131.633 1128 129.958 1128 128.266C1128 126.574 1127.67 124.898 1127.02 123.335C1126.37 121.772 1125.42 120.352 1124.23 119.156" fill="#ffffff" fill-rule="evenodd" opacity="1" stroke="none"/>
</g>
</g>
</g>
<g opacity="1">
<path d="M1260 0L1396 0C1429.14-4.47035e-07 1456 26.8629 1456 60L1456 196C1456 229.137 1429.14 256 1396 256L1260 256C1226.86 256 1200 229.137 1200 196L1200 60C1200 26.8629 1226.86-6.74553e-07 1260 0Z" fill="#242938" fill-rule="evenodd" opacity="1" stroke="none"/>
<path d="M1285.95 199.926L1310.48 213.546L1347.58 213.546L1382.28 187.491L1397.83 146.632L1361.93 103.405L1351.76 79.1268L1302.1 80.9032L1302.7 94.5228L1293.13 112.287L1278.17 141.303L1275.18 165.581L1285.95 199.926Z" fill="#eceff1" fill-rule="evenodd" opacity="1" stroke="none"/>
<path d="M1387.06 114.656C1377.49 101.036 1369.71 92.7463 1365.52 75.5738C1361.34 58.4013 1366.72 63.1386 1363.13 48.3347C1361.34 40.6367 1358.35 35.3073 1355.35 31.1622C1351.76 27.0171 1347.58 24.6485 1345.18 24.0563C1339.8 21.0956 1327.23 16.3583 1311.68 24.6485C1295.52 32.9387 1297.32 50.7033 1300.31 86.8248C1300.31 89.1934 1299.71 92.1542 1298.51 94.5228C1296.12 99.8522 1291.93 104.589 1288.34 108.735C1284.15 114.656 1279.97 120.578 1276.97 127.091C1269.79 140.711 1263.21 157.883 1265.01 164.397C1268 163.805 1305.69 220.652 1305.69 221.836C1308.09 221.244 1318.26 221.244 1327.23 221.244C1339.8 220.652 1346.98 220.06 1357.15 222.428C1357.15 220.652 1356.55 218.875 1356.55 217.099C1356.55 213.546 1357.15 210.585 1357.75 206.44C1358.35 203.479 1358.94 200.519 1359.54 196.966C1353.56 202.295 1342.79 208.217 1332.62 209.993C1323.64 211.769 1308.68 208.809 1301.5 199.926C1302.1 199.926 1303.3 199.926 1303.9 199.334C1305.69 198.742 1307.49 198.15 1308.09 196.966C1309.88 194.005 1308.68 191.044 1307.49 189.268C1306.29 187.491 1297.32 180.977 1293.13 177.425C1288.94 173.872 1286.55 172.095 1284.15 169.727C1284.15 169.727 1280.56 166.174 1279.37 164.989C1278.17 163.805 1277.57 162.621 1276.97 162.028C1275.78 159.068 1275.18 155.515 1275.78 150.778C1276.38 144.264 1278.77 138.934 1281.76 133.013C1282.96 130.644 1285.95 125.907 1285.95 125.907C1285.95 125.907 1275.78 150.778 1281.16 158.476C1281.16 158.476 1281.76 150.778 1284.15 143.08C1285.95 137.75 1288.94 130.052 1292.53 125.907C1296.12 121.762 1305.1 106.366 1305.69 96.8914C1305.69 92.7463 1306.29 88.6012 1306.29 85.6405C1303.9 83.2718 1345.78 77.3503 1348.17 83.864C1348.77 86.2326 1357.15 107.55 1361.93 118.801C1364.33 124.131 1367.32 128.868 1369.12 134.789C1370.91 141.303 1372.11 150.185 1372.11 159.068C1372.11 160.844 1372.11 163.805 1371.51 166.766C1372.71 166.766 1396.04 141.895 1368.52 121.17C1368.52 121.17 1385.27 128.868 1385.87 144.264C1386.47 156.699 1381.08 166.766 1379.88 168.542C1380.48 168.542 1392.45 173.872 1393.05 173.872C1395.44 173.872 1400.23 172.095 1400.23 172.095C1400.83 170.319 1402.62 165.581 1402.62 163.805C1406.81 150.185 1396.64 128.276 1387.06 114.656L1387.06 114.656Z" fill="#263238" fill-rule="evenodd" opacity="1" stroke="none"/>
<path d="M1311.08 75.5738C1315.37 75.5738 1318.86 70.2714 1318.86 63.7307C1318.86 57.1899 1315.37 51.8876 1311.08 51.8876C1306.78 51.8876 1303.3 57.1899 1303.3 63.7307C1303.3 70.2714 1306.78 75.5738 1311.08 75.5738Z" fill="#eceff1" fill-rule="evenodd" opacity="1" stroke="none"/>
<path d="M1338 76.7581C1343.62 76.7581 1348.17 70.6604 1348.17 63.1386C1348.17 55.6167 1343.62 49.519 1338 49.519C1332.38 49.519 1327.83 55.6167 1327.83 63.1386C1327.83 70.6604 1332.38 76.7581 1338 76.7581Z" fill="#eceff1" fill-rule="evenodd" opacity="1" stroke="none"/>
<path d="M1315.42 64.5411C1314.93 60.6476 1312.66 57.7241 1310.37 58.0111C1308.07 58.2982 1306.62 61.6872 1307.11 65.5807C1307.61 69.4741 1309.87 72.3977 1312.17 72.1106C1314.46 71.8235 1315.92 68.4345 1315.42 64.5411Z" fill="#212121" fill-rule="evenodd" opacity="1" stroke="none"/>
<path d="M1337.4 73.2052C1340.71 73.2052 1343.39 69.7587 1343.39 65.5072C1343.39 61.2557 1340.71 57.8091 1337.4 57.8091C1334.1 57.8091 1331.42 61.2557 1331.42 65.5072C1331.42 69.7587 1334.1 73.2052 1337.4 73.2052Z" fill="#212121" fill-rule="evenodd" opacity="1" stroke="none"/>
<path d="M1416.98 195.781C1414.59 194.597 1410.4 192.82 1406.81 187.491C1405.01 184.53 1405.61 176.24 1402.62 172.687C1400.82 170.319 1398.43 171.503 1397.83 171.503C1392.45 172.687 1379.88 180.977 1371.51 171.503C1370.31 170.319 1368.52 168.542 1365.52 168.542C1362.53 168.542 1361.34 169.726 1360.14 172.095C1358.94 174.464 1358.94 176.24 1358.94 182.162C1358.94 186.899 1358.94 192.228 1358.35 196.373C1357.15 206.44 1355.35 212.362 1355.35 218.283C1355.35 224.797 1357.15 228.942 1359.54 230.718C1361.34 232.495 1364.33 233.679 1370.91 233.679C1377.49 233.679 1381.68 231.311 1385.87 227.165C1388.86 224.205 1391.25 223.02 1399.63 217.099C1406.21 212.954 1416.38 207.624 1418.18 205.848C1419.37 204.664 1421.17 204.071 1421.17 200.518C1421.17 197.558 1418.77 196.373 1416.98 195.781L1416.98 195.781Z" fill="#ffc107" fill-rule="evenodd" opacity="1" stroke="none"/>
<path d="M1296.72 197.558C1290.74 188.083 1290.14 186.307 1285.95 180.385C1282.36 174.464 1274.58 163.213 1269.79 163.213C1266.2 163.213 1264.41 164.989 1262.02 167.358C1259.62 169.726 1257.23 175.056 1253.04 178.017C1249.45 180.977 1239.28 180.385 1236.89 183.938C1234.49 187.491 1239.28 192.821 1239.28 201.703C1239.28 205.256 1236.29 207.624 1235.69 209.993C1235.09 212.954 1234.49 214.73 1235.69 217.099C1238.08 220.652 1241.08 221.836 1261.42 225.981C1272.19 228.35 1282.36 234.271 1288.94 234.864C1295.52 235.456 1306.89 234.864 1306.89 218.875C1307.49 209.401 1302.1 207.032 1296.72 197.558Z" fill="#ffc107" fill-rule="evenodd" opacity="1" stroke="none"/>
<path d="M1308.09 90.3777C1304.5 88.0091 1301.5 85.6404 1301.5 82.0875C1301.5 78.5346 1303.9 77.3503 1307.49 74.3895C1308.09 73.7973 1314.67 67.8758 1321.25 67.8758C1327.83 67.8758 1335.61 72.0209 1338.6 73.2052C1343.99 74.3895 1349.37 75.5738 1348.77 79.7189C1348.17 85.6404 1347.58 86.8248 1341.59 89.7855C1337.4 90.9698 1329.63 97.4835 1324.24 97.4835C1321.85 97.4835 1318.26 97.4835 1315.86 96.8914C1314.07 96.2992 1311.08 93.3385 1308.09 90.3777L1308.09 90.3777Z" fill="#ffc107" fill-rule="evenodd" opacity="1" stroke="none"/>
<path d="M1306.89 85.6405C1308.09 86.8248 1309.88 88.0091 1311.68 88.6012C1312.87 89.1934 1314.67 89.7856 1314.67 89.7856C1317.06 89.7856 1318.86 89.7856 1320.05 89.7856C1323.04 89.7856 1327.23 88.6013 1331.42 86.2326C1335.61 84.4562 1336.21 83.2718 1339.2 82.0875C1342.19 80.3111 1345.18 78.5346 1343.99 77.9425C1342.79 77.3503 1341.59 77.9425 1337.4 80.3111C1333.81 82.6797 1330.82 83.864 1327.23 85.6405C1325.44 86.2326 1323.04 87.4169 1321.25 87.4169C1319.46 87.4169 1317.66 87.4169 1315.86 87.4169C1314.07 87.4169 1312.87 86.8248 1311.08 86.2326C1309.88 85.6405 1309.28 85.0483 1308.68 85.0483C1307.49 84.4562 1305.1 82.0875 1303.9 81.4954C1303.9 81.4954 1302.7 81.4954 1303.3 82.0875C1305.1 83.864 1305.69 84.4562 1306.89 85.6405Z" fill="#634703" fill-rule="evenodd" opacity="1" stroke="none"/>
<path d="M1324.84 72.613C1325.44 73.7973 1326.64 73.7973 1327.23 74.3895C1327.83 74.9816 1328.43 74.9816 1328.43 74.9816C1329.03 74.3895 1328.43 73.2052 1327.83 73.2052C1327.83 72.0209 1324.84 72.0209 1324.84 72.613L1324.84 72.613Z" fill="#634703" fill-rule="evenodd" opacity="1" stroke="none"/>
<path d="M1315.27 73.7973C1315.27 74.3895 1316.46 74.9816 1316.46 74.3895C1317.06 73.7973 1317.66 73.2052 1318.26 73.2052C1319.46 72.613 1318.86 72.0209 1317.06 72.0209C1315.86 72.613 1315.86 73.2052 1315.27 73.7973L1315.27 73.7973Z" fill="#634703" fill-rule="evenodd" opacity="1" stroke="none"/>
<path d="M1373.3 178.609C1373.3 179.201 1373.3 179.793 1373.3 180.385C1374.5 182.754 1377.49 183.346 1379.88 183.346C1383.47 183.346 1387.06 180.977 1388.86 178.609C1388.86 178.017 1389.46 177.424 1390.06 176.832C1391.25 175.056 1391.85 173.872 1392.45 173.279C1392.45 173.279 1391.85 172.687 1391.85 172.095C1391.25 170.911 1389.46 169.726 1387.06 169.134C1385.27 168.542 1382.28 167.95 1381.08 167.95C1375.7 167.358 1372.71 169.134 1370.91 170.911C1370.91 170.911 1371.51 170.911 1371.51 171.503C1372.71 172.687 1373.3 173.872 1373.3 175.648C1373.9 176.832 1373.3 177.424 1373.3 178.609L1373.3 178.609Z" fill="#455a64" fill-rule="evenodd" opacity="1" stroke="none"/>
</g>
<g opacity="1">
<path d="M1560 0L1696 0C1729.14-4.47035e-07 1756 26.8629 1756 60L1756 196C1756 229.137 1729.14 256 1696 256L1560 256C1526.86 256 1500 229.137 1500 196L1500 60C1500 26.8629 1526.86-6.74553e-07 1560 0Z" fill="#242938" fill-rule="evenodd" opacity="1" stroke="none"/>
<path d="M1703.82 68.8354L1640.68 31.3552C1633.14 26.8816 1623.85 26.8816 1616.32 31.3552L1553.18 68.8354C1545.64 73.3091 1541 81.575 1541 90.5223L1541 165.483C1541 174.428 1545.64 182.698 1553.18 187.172L1616.32 224.645C1620.09 226.883 1624.29 227.999 1628.5 227.999C1632.71 227.999 1636.91 226.883 1640.68 224.645L1703.82 187.172C1711.35 182.698 1716 174.428 1716 165.483L1716 90.5223C1716 81.575 1711.35 73.3091 1703.82 68.8354Z" fill="#242938" fill-rule="evenodd" opacity="1" stroke="none"/>
<path d="M1618.53 220.808L1555.39 183.334C1549.21 179.668 1545.37 172.828 1545.37 165.482L1545.37 90.5234C1545.37 83.1768 1549.21 76.3374 1555.38 72.673L1618.53 35.1928C1621.55 33.3958 1625 32.4455 1628.5 32.4455C1631.99 32.4455 1635.44 33.3958 1638.47 35.1928L1701.61 72.673C1706.82 75.7619 1710.33 81.1109 1711.31 87.1103C1709.22 82.6411 1704.5 81.4262 1698.99 84.6409L1639.26 121.537C1631.81 125.891 1626.32 130.777 1626.31 139.758L1626.31 213.362C1626.31 218.74 1628.48 222.223 1631.82 223.233C1630.72 223.423 1629.62 223.555 1628.5 223.555C1625 223.555 1621.55 222.605 1618.53 220.808ZM1703.82 68.8343L1640.68 31.3563C1636.91 29.1184 1632.7 28.0005 1628.5 28.0005C1624.29 28.0005 1620.09 29.1184 1616.32 31.3563L1553.18 68.8343C1545.64 73.308 1541 81.5761 1541 90.5234L1541 165.482C1541 174.427 1545.64 182.697 1553.18 187.171L1616.32 224.646C1620.09 226.882 1624.29 228 1628.5 228C1632.71 228 1636.91 226.882 1640.68 224.646L1703.82 187.171C1711.35 182.697 1716 174.427 1716 165.482L1716 90.5234C1716 81.5761 1711.35 73.308 1703.82 68.8343Z" fill="#ffffff" fill-rule="evenodd" opacity="1" stroke="none"/>
<path d="M1687.27 172.729L1671.54 182.139C1671.13 182.382 1670.82 182.655 1670.82 183.156L1670.82 187.27C1670.82 187.773 1671.16 187.982 1671.57 187.737L1687.54 178.034C1687.96 177.791 1688.02 177.326 1688.02 176.825L1688.02 173.196C1688.02 172.696 1687.68 172.486 1687.27 172.729Z" fill="#47b353" fill-rule="evenodd" opacity="1" stroke="none"/>
<path d="M1653.79 138.098C1654.3 137.84 1654.72 138.157 1654.72 138.823L1654.78 144.262C1657.05 143.356 1659.03 143.114 1660.82 143.528C1661.21 143.632 1661.38 144.161 1661.23 144.789L1660.03 149.609C1659.93 149.973 1659.73 150.341 1659.48 150.57C1659.38 150.672 1659.27 150.751 1659.17 150.804C1659.01 150.886 1658.85 150.912 1658.7 150.881C1657.88 150.696 1655.93 150.271 1652.87 151.821C1649.66 153.446 1648.54 156.235 1648.56 158.305C1648.59 160.777 1649.86 161.526 1654.24 161.601C1660.07 161.698 1662.59 164.247 1662.65 170.123C1662.71 175.893 1659.63 182.089 1654.92 185.886L1655.02 191.27C1655.03 191.918 1654.61 192.661 1654.1 192.919L1650.91 194.756C1650.4 195.014 1649.98 194.696 1649.97 194.048L1649.92 188.752C1647.19 189.887 1644.42 190.161 1642.65 189.451C1642.32 189.321 1642.18 188.829 1642.31 188.269L1643.46 183.401C1643.55 183.017 1643.76 182.633 1644.03 182.389C1644.13 182.294 1644.23 182.221 1644.33 182.17C1644.52 182.078 1644.7 182.058 1644.85 182.115C1646.75 182.757 1649.19 182.457 1651.53 181.271C1654.51 179.765 1656.5 176.729 1656.47 173.713C1656.44 170.976 1654.96 169.839 1651.36 169.812C1646.77 169.825 1642.49 168.921 1642.42 162.17C1642.37 156.612 1645.26 150.828 1649.83 147.171L1649.77 141.736C1649.77 141.068 1650.18 140.333 1650.7 140.069L1653.79 138.098Z" fill="#242938" fill-rule="evenodd" opacity="1" stroke="none"/>
</g>
<g opacity="1">
<path d="M1860 0L1996 0C2029.14-4.47035e-07 2056 26.8629 2056 60L2056 196C2056 229.137 2029.14 256 1996 256L1860 256C1826.86 256 1800 229.137 1800 196L1800 60C1800 26.8629 1826.86-6.74553e-07 1860 0Z" fill="#242938" fill-rule="evenodd" opacity="1" stroke="none"/>
<path d="M1833.72 100.208C1833.72 100.208 1828.98 96.795 1834.66 92.2381L1847.9 80.402C1847.9 80.402 1851.69 76.4172 1855.69 79.8891L1977.84 172.368L1977.84 216.714C1977.84 216.714 1977.78 223.678 1968.84 222.908L1833.72 100.208Z" fill="#2489ca" fill-rule="evenodd" opacity="1" stroke="none"/>
<path d="M1865.2 128.792L1833.72 157.415C1833.72 157.415 1830.48 159.822 1833.72 164.123L1848.33 177.418C1848.33 177.418 1851.81 181.147 1856.93 176.905L1890.31 151.596L1865.2 128.792Z" fill="#1070b3" fill-rule="evenodd" opacity="1" stroke="none"/>
<path d="M1920.47 129.029L1978.21 84.9391L1977.84 40.83C1977.84 40.83 1975.37 31.2033 1967.15 36.2139L1890.31 106.145L1920.47 129.029Z" fill="#0877b9" fill-rule="evenodd" opacity="1" stroke="none"/>
<path d="M1968.84 222.968C1972.2 226.4 1976.26 225.276 1976.26 225.276L2021.26 203.103C2027.02 199.177 2026.21 194.305 2026.21 194.305L2026.21 61.8982C2026.21 56.0788 2020.25 54.0667 2020.25 54.0667L1981.25 35.267C1972.73 30 1967.15 36.2139 1967.15 36.2139C1967.15 36.2139 1974.33 31.0455 1977.84 40.83L1977.84 215.905C1977.84 217.109 1977.58 218.292 1977.07 219.358C1976.04 221.429 1973.82 223.362 1968.47 222.553L1968.84 222.968Z" fill="#3c99d4" fill-rule="evenodd" opacity="1" stroke="none"/>
</g>
<g opacity="1">
<path d="M2160 0L2296 0C2329.14-4.47035e-07 2356 26.8629 2356 60L2356 196C2356 229.137 2329.14 256 2296 256L2160 256C2126.86 256 2100 229.137 2100 196L2100 60C2100 26.8629 2126.86-6.74553e-07 2160 0Z" fill="url(#LinearGradient)" fill-rule="evenodd" opacity="1" stroke="none"/>
<g opacity="1">
<path d="M2231.97 196.157C2261.65 196.157 2279.53 181.626 2279.53 157.66C2279.53 139.543 2266.77 126.428 2247.82 124.351L2247.82 123.597C2261.74 121.332 2272.67 108.405 2272.67 93.9689C2272.67 73.3992 2256.43 60 2231.68 60L2176 60L2176 196.157L2231.97 196.157ZM2197.65 77.2674L2226.46 77.2674C2242.12 77.2674 2251.01 84.2497 2251.01 96.8935C2251.01 110.387 2240.67 117.935 2221.92 117.935L2197.65 117.935L2197.65 77.2674L2197.65 77.2674ZM2197.65 178.89L2197.65 134.071L2226.27 134.071C2246.76 134.071 2257.39 141.619 2257.39 156.339C2257.39 171.058 2247.05 178.89 2227.52 178.89L2197.65 178.89L2197.65 178.89Z" fill="#ff0000" fill-rule="evenodd" opacity="1" stroke="none"/>
<path d="M2231.97 196.157C2261.65 196.157 2279.53 181.626 2279.53 157.66C2279.53 139.543 2266.77 126.428 2247.82 124.351L2247.82 123.597C2261.74 121.332 2272.67 108.405 2272.67 93.9689C2272.67 73.3992 2256.43 60 2231.68 60L2176 60L2176 196.157L2231.97 196.157ZM2197.65 77.2674L2226.46 77.2674C2242.12 77.2674 2251.01 84.2497 2251.01 96.8935C2251.01 110.387 2240.67 117.935 2221.92 117.935L2197.65 117.935L2197.65 77.2674L2197.65 77.2674ZM2197.65 178.89L2197.65 134.071L2226.27 134.071C2246.76 134.071 2257.39 141.619 2257.39 156.339C2257.39 171.058 2247.05 178.89 2227.52 178.89L2197.65 178.89L2197.65 178.89Z" fill="none" fill-rule="evenodd" opacity="1" stroke="#ffffff" stroke-linecap="butt" stroke-linejoin="miter" stroke-width="2"/>
</g>
</g>
<g opacity="1">
<path d="M2460 0L2596 0C2629.14-4.47035e-07 2656 26.8629 2656 60L2656 196C2656 229.137 2629.14 256 2596 256L2460 256C2426.86 256 2400 229.137 2400 196L2400 60C2400 26.8629 2426.86-6.74553e-07 2460 0Z" fill="#5865f2" fill-rule="evenodd" opacity="1" stroke="none"/>
<g opacity="1" vectornator:mask="#Fill_2">
<clipPath id="ClipPath_2">
<use overflow="#visible" xlink:href="#Fill_2"/>
</clipPath>
<g clip-path="url(#ClipPath_2)">
<path d="M2597.31 64.7966C2584.56 58.9476 2570.89 54.6383 2556.6 52.1701C2556.34 52.1225 2556.08 52.2415 2555.95 52.4796C2554.19 55.6064 2552.24 59.6856 2550.88 62.8918C2535.5 60.5904 2520.21 60.5904 2505.15 62.8918C2503.79 59.6143 2501.77 55.6064 2500 52.4796C2499.87 52.2495 2499.61 52.1305 2499.35 52.1701C2485.07 54.6304 2471.4 58.9397 2458.64 64.7966C2458.53 64.8442 2458.44 64.9236 2458.37 65.0267C2432.44 103.763 2425.34 141.547 2428.83 178.863C2428.84 179.046 2428.94 179.22 2429.09 179.331C2446.19 191.894 2462.76 199.521 2479.03 204.576C2479.29 204.655 2479.56 204.56 2479.73 204.346C2483.58 199.092 2487.01 193.553 2489.95 187.728C2490.12 187.386 2489.95 186.982 2489.6 186.847C2484.16 184.783 2478.98 182.268 2474 179.411C2473.6 179.181 2473.57 178.617 2473.93 178.347C2474.98 177.561 2476.03 176.744 2477.03 175.919C2477.21 175.768 2477.47 175.736 2477.68 175.831C2510.41 190.775 2545.85 190.775 2578.19 175.831C2578.4 175.728 2578.66 175.76 2578.85 175.911C2579.85 176.736 2580.9 177.561 2581.95 178.347C2582.31 178.617 2582.29 179.181 2581.9 179.411C2576.91 182.323 2571.74 184.783 2566.29 186.839C2565.93 186.974 2565.77 187.386 2565.95 187.728C2568.95 193.545 2572.38 199.084 2576.16 204.338C2576.32 204.56 2576.6 204.655 2576.86 204.576C2593.2 199.521 2609.77 191.894 2626.88 179.331C2627.03 179.22 2627.12 179.053 2627.14 178.871C2631.31 135.73 2620.15 98.2554 2597.57 65.0346C2597.51 64.9236 2597.42 64.8442 2597.31 64.7966ZM2494.83 156.142C2484.98 156.142 2476.86 147.095 2476.86 135.984C2476.86 124.873 2484.82 115.826 2494.83 115.826C2504.92 115.826 2512.96 124.953 2512.81 135.984C2512.81 147.095 2504.85 156.142 2494.83 156.142ZM2561.29 156.142C2551.43 156.142 2543.32 147.095 2543.32 135.984C2543.32 124.873 2551.28 115.826 2561.29 115.826C2571.38 115.826 2579.42 124.953 2579.26 135.984C2579.26 147.095 2571.38 156.142 2561.29 156.142Z" fill="#ffffff" fill-rule="evenodd" opacity="1" stroke="none"/>
</g>
</g>
</g>
</g>
</svg>
