<?xml version="1.0" encoding="UTF-8" standalone="no"?>
<!DOCTYPE svg PUBLIC "-//W3C//DTD SVG 1.1//EN" "http://www.w3.org/Graphics/SVG/1.1/DTD/svg11.dtd"
[
<!ATTLIST g
  xmlns:vectornator CDATA #FIXED "http://vectornator.io"
  vectornator:layerName CDATA #IMPLIED >
<!ATTLIST g
  xmlns:vectornator CDATA #FIXED "http://vectornator.io"
  vectornator:mask CDATA #IMPLIED >
<!ATTLIST text
  xmlns:vectornator CDATA #FIXED "http://vectornator.io"
  vectornator:width CDATA #IMPLIED >

<!ATTLIST path
  xmlns:vectornator CDATA #FIXED "http://vectornator.io"
  vectornator:blendMode CDATA #IMPLIED >
<!ATTLIST path
  xmlns:vectornator CDATA #FIXED "http://vectornator.io"
  vectornator:shadowColor CDATA #IMPLIED >
<!ATTLIST path
  xmlns:vectornator CDATA #FIXED "http://vectornator.io"
  vectornator:shadowOpacity CDATA #IMPLIED >
<!ATTLIST path
  xmlns:vectornator CDATA #FIXED "http://vectornator.io"
  vectornator:shadowRadius CDATA #IMPLIED >
<!ATTLIST path
  xmlns:vectornator CDATA #FIXED "http://vectornator.io"
  vectornator:shadowOffset CDATA #IMPLIED >
<!ATTLIST path
  xmlns:vectornator CDATA #FIXED "http://vectornator.io"
  vectornator:shadowAngle CDATA #IMPLIED >

<!ATTLIST image
  xmlns:vectornator CDATA #FIXED "http://vectornator.io"
  vectornator:blendMode CDATA #IMPLIED >
<!ATTLIST image
  xmlns:vectornator CDATA #FIXED "http://vectornator.io"
  vectornator:shadowColor CDATA #IMPLIED >
<!ATTLIST image
  xmlns:vectornator CDATA #FIXED "http://vectornator.io"
  vectornator:shadowOpacity CDATA #IMPLIED >
<!ATTLIST image
  xmlns:vectornator CDATA #FIXED "http://vectornator.io"
  vectornator:shadowRadius CDATA #IMPLIED >
<!ATTLIST image
  xmlns:vectornator CDATA #FIXED "http://vectornator.io"
  vectornator:shadowOffset CDATA #IMPLIED >
<!ATTLIST image
  xmlns:vectornator CDATA #FIXED "http://vectornator.io"
  vectornator:shadowAngle CDATA #IMPLIED >

<!ATTLIST g
  xmlns:vectornator CDATA #FIXED "http://vectornator.io"
  vectornator:blendMode CDATA #IMPLIED >
<!ATTLIST g
  xmlns:vectornator CDATA #FIXED "http://vectornator.io"
  vectornator:shadowColor CDATA #IMPLIED >
<!ATTLIST g
  xmlns:vectornator CDATA #FIXED "http://vectornator.io"
  vectornator:shadowOpacity CDATA #IMPLIED >
<!ATTLIST g
  xmlns:vectornator CDATA #FIXED "http://vectornator.io"
  vectornator:shadowRadius CDATA #IMPLIED >
<!ATTLIST g
  xmlns:vectornator CDATA #FIXED "http://vectornator.io"
  vectornator:shadowOffset CDATA #IMPLIED >
<!ATTLIST g
  xmlns:vectornator CDATA #FIXED "http://vectornator.io"
  vectornator:shadowAngle CDATA #IMPLIED >

<!ENTITY % SVG.filter.extra.content  "| feDropShadow" >
<!ELEMENT feDropShadow EMPTY>
<!ATTLIST feDropShadow
  xmlns:svg CDATA #FIXED "http://www.w3.org/Graphics/SVG/1.1/DTD/svg11.dtd"
  dx CDATA #IMPLIED>
<!ATTLIST feDropShadow
  xmlns:svg CDATA #FIXED "http://www.w3.org/Graphics/SVG/1.1/DTD/svg11.dtd"
  dy CDATA #IMPLIED>
<!ATTLIST feDropShadow
  xmlns:svg CDATA #FIXED "http://www.w3.org/Graphics/SVG/1.1/DTD/svg11.dtd"
  stdDeviation CDATA #IMPLIED>
<!ATTLIST feDropShadow
  xmlns:svg CDATA #FIXED "http://www.w3.org/Graphics/SVG/1.1/DTD/svg11.dtd"
  flood-opacity CDATA #IMPLIED>
<!ATTLIST feDropShadow
  xmlns:svg CDATA #FIXED "http://www.w3.org/Graphics/SVG/1.1/DTD/svg11.dtd"
  in CDATA #IMPLIED>
<!ATTLIST feDropShadow
  xmlns:svg CDATA #FIXED "http://www.w3.org/Graphics/SVG/1.1/DTD/svg11.dtd"
  result CDATA #IMPLIED>
<!ATTLIST feDropShadow
  xmlns:svg CDATA #FIXED "http://www.w3.org/Graphics/SVG/1.1/DTD/svg11.dtd"
  flood-color CDATA #IMPLIED>
]
>
<!-- Created with Vectornator (http://vectornator.io/) -->
<svg height="100%" stroke-miterlimit="10" style="fill-rule:nonzero;clip-rule:evenodd;stroke-linecap:round;stroke-linejoin:round;" version="1.1" viewBox="0 0 24 24" width="100%" xml:space="preserve" xmlns="http://www.w3.org/2000/svg" xmlns:vectornator="http://vectornator.io" xmlns:xlink="http://www.w3.org/1999/xlink">
<defs>
<linearGradient gradientTransform="matrix(1 0 0 1 0 0)" gradientUnits="userSpaceOnUse" id="LinearGradient" x1="2.11421" x2="21.8856" y1="11.9999" y2="11.9999">
<stop offset="0" stop-color="#7c4dff"/>
<stop offset="1" stop-color="#8c9eff"/>
</linearGradient>
</defs>
<g id="Untitled" vectornator:layerName="Untitled">
<path d="M12.504 0C12.349 0 12.189 0.008 12.024 0.021C7.798 0.354 8.919 4.828 8.854 6.319C8.778 7.411 8.554 8.272 7.804 9.339C6.919 10.39 5.677 12.089 5.088 13.86C4.81 14.692 4.678 15.544 4.801 16.349C4.75539 16.3859 4.71793 16.4319 4.691 16.484C4.431 16.752 4.241 17.084 4.028 17.323C3.829 17.522 3.543 17.59 3.231 17.723C2.918 17.859 2.573 17.992 2.367 18.403C2.277 18.592 2.231 18.797 2.235 19.005C2.235 19.204 2.262 19.405 2.29 19.541C2.348 19.94 2.406 20.269 2.33 20.511C2.081 21.191 2.05 21.656 2.224 21.995C2.398 22.329 2.759 22.465 3.164 22.596C3.974 22.796 5.074 22.731 5.938 23.196C6.864 23.662 7.804 23.866 8.554 23.666C9.08 23.55 9.524 23.202 9.762 22.72C10.349 22.717 10.992 22.451 12.022 22.386C12.721 22.328 13.596 22.653 14.599 22.586C14.624 22.72 14.662 22.784 14.713 22.919L14.716 22.922C15.107 23.7 15.829 24.054 16.6 23.993C17.371 23.933 18.192 23.457 18.857 22.687C19.488 21.922 20.54 21.603 21.235 21.184C21.583 20.985 21.864 20.715 21.884 20.331C21.907 19.931 21.684 19.52 21.17 18.955L21.17 18.858L21.167 18.855C20.997 18.655 20.917 18.32 20.829 17.929C20.744 17.528 20.647 17.143 20.337 16.883L20.334 16.883C20.275 16.829 20.211 16.816 20.146 16.748C20.0901 16.709 20.0241 16.6867 19.956 16.684C20.387 15.406 20.22 14.134 19.783 12.99C19.25 11.58 18.318 10.352 17.608 9.507C16.812 8.502 16.032 7.55 16.048 6.139C16.074 3.987 16.284 0.00599981 12.504 0ZM13.033 3.405L13.046 3.405C13.259 3.405 13.442 3.467 13.63 3.603C13.82 3.738 13.96 3.935 14.068 4.136C14.173 4.395 14.226 4.595 14.234 4.86C14.234 4.84 14.24 4.82 14.24 4.8L14.24 4.905C14.2378 4.89819 14.2365 4.89114 14.236 4.884L14.232 4.86C14.23 5.10303 14.179 5.34315 14.082 5.566C14.0353 5.69138 13.9627 5.80552 13.869 5.901C13.8407 5.885 13.8113 5.87097 13.781 5.859C13.677 5.814 13.583 5.795 13.497 5.726C13.4257 5.69761 13.3521 5.67553 13.277 5.66C13.327 5.6 13.423 5.527 13.46 5.462C13.513 5.334 13.542 5.198 13.548 5.06L13.548 5.04C13.5503 4.90419 13.5296 4.76896 13.487 4.64C13.442 4.506 13.386 4.44 13.304 4.307C13.22 4.241 13.137 4.175 13.037 4.175L13.021 4.175C12.928 4.175 12.845 4.205 12.759 4.307C12.664 4.39962 12.5936 4.51439 12.554 4.641C12.5009 4.76806 12.4704 4.90344 12.464 5.041L12.464 5.06C12.466 5.149 12.472 5.239 12.484 5.327C12.291 5.26 12.046 5.192 11.877 5.125C11.8669 5.05876 11.8609 4.99197 11.859 4.925L11.859 4.905C11.8511 4.64102 11.9024 4.37862 12.009 4.137C12.091 3.917 12.241 3.731 12.439 3.604C12.6099 3.47444 12.8185 3.40421 13.033 3.404L13.033 3.405ZM10.071 3.464L10.107 3.464C10.249 3.464 10.377 3.512 10.506 3.599C10.652 3.728 10.77 3.887 10.85 4.064C10.94 4.263 10.99 4.464 11.003 4.731L11.003 4.735C11.01 4.869 11.009 4.935 11.001 5.001L11.001 5.081C10.971 5.088 10.945 5.099 10.918 5.105C10.766 5.16 10.644 5.24 10.525 5.305C10.537 5.215 10.538 5.125 10.528 5.038L10.528 5.023C10.516 4.89 10.488 4.823 10.446 4.69C10.4148 4.58808 10.3576 4.49606 10.28 4.423C10.2302 4.37772 10.1642 4.35462 10.097 4.359L10.076 4.359C10.005 4.365 9.946 4.399 9.89 4.491C9.82621 4.56842 9.78472 4.66177 9.77 4.761C9.74297 4.86879 9.73518 4.9805 9.747 5.091L9.747 5.106C9.759 5.241 9.784 5.306 9.827 5.44C9.873 5.574 9.925 5.64 9.993 5.708C10.003 5.717 10.013 5.726 10.027 5.732C9.957 5.789 9.91 5.802 9.851 5.868C9.81358 5.90108 9.76859 5.92444 9.72 5.936C9.61605 5.81083 9.52399 5.67625 9.445 5.534C9.35046 5.32386 9.29781 5.0973 9.29 4.867C9.27344 4.64126 9.3006 4.41445 9.37 4.199C9.42508 4.00252 9.52158 3.8201 9.653 3.664C9.781 3.531 9.913 3.464 10.071 3.464ZM11.441 5.17C11.773 5.17 12.174 5.235 12.657 5.569C12.95 5.769 13.18 5.838 13.709 6.037L13.712 6.037C13.967 6.173 14.117 6.303 14.19 6.436L14.19 6.305C14.2626 6.4521 14.2684 6.62331 14.206 6.775C14.083 7.085 13.69 7.418 13.143 7.617L13.143 7.619C12.875 7.754 12.642 7.952 12.368 8.084C12.092 8.219 11.78 8.376 11.356 8.351C11.2037 8.35889 11.0513 8.3361 10.908 8.284C10.7972 8.22374 10.6898 8.15765 10.586 8.086C10.391 7.951 10.223 7.754 9.974 7.621L9.974 7.616L9.969 7.616C9.569 7.37 9.353 7.104 9.283 6.906C9.213 6.638 9.278 6.436 9.476 6.306C9.7 6.171 9.856 6.035 9.959 5.97C10.063 5.896 10.102 5.868 10.135 5.839L10.137 5.839L10.137 5.836C10.306 5.634 10.573 5.366 10.976 5.235C11.115 5.199 11.27 5.17 11.442 5.17L11.441 5.17ZM14.241 7.312C14.599 8.729 15.437 10.787 15.976 11.785C16.262 12.319 16.831 13.444 17.078 14.809C17.234 14.804 17.408 14.827 17.591 14.873C18.237 13.202 17.045 11.406 16.502 10.907C16.282 10.707 16.27 10.572 16.379 10.572C16.969 11.106 17.744 12.144 18.025 13.329C18.155 13.864 18.185 14.433 18.046 14.999C18.113 15.027 18.181 15.059 18.251 15.066C19.283 15.6 19.664 16.004 19.481 16.603L19.481 16.56C19.421 16.557 19.361 16.56 19.301 16.56L19.285 16.56C19.436 16.093 19.103 15.735 18.22 15.336C17.305 14.936 16.574 15 16.45 15.801C16.442 15.844 16.437 15.867 16.432 15.936C16.364 15.959 16.293 15.989 16.223 16C15.793 16.268 15.561 16.669 15.43 17.187C15.3 17.72 15.26 18.343 15.225 19.056L15.225 19.059C15.205 19.393 15.055 19.897 14.906 20.409C13.406 21.481 11.326 21.947 9.558 20.743C9.44705 20.5491 9.31197 20.37 9.156 20.21C9.08147 20.0859 8.98878 19.9736 8.881 19.877C9.063 19.877 9.219 19.847 9.346 19.81C9.4898 19.7433 9.60229 19.6236 9.66 19.476C9.768 19.209 9.66 18.779 9.315 18.313C8.97 17.846 8.384 17.318 7.527 16.792C6.897 16.392 6.541 15.922 6.377 15.396C6.212 14.862 6.234 14.311 6.362 13.751C6.607 12.681 7.235 11.641 7.636 10.988C7.743 10.923 7.673 11.123 7.228 11.962C6.832 12.713 6.088 14.459 7.106 15.816C7.14445 14.8259 7.36373 13.8512 7.753 12.94C8.317 11.662 9.496 9.436 9.589 7.672C9.637 7.708 9.806 7.807 9.878 7.874C10.096 8.007 10.258 8.207 10.468 8.339C10.678 8.54 10.945 8.674 11.344 8.674C11.383 8.677 11.419 8.68 11.454 8.68C11.866 8.68 12.184 8.546 12.451 8.412C12.741 8.278 12.971 8.078 13.191 8.012L13.196 8.012C13.663 7.877 14.031 7.61 14.24 7.312L14.241 7.312ZM16.426 16.27C16.463 16.87 16.769 17.515 17.308 17.647C17.896 17.781 18.742 17.314 19.099 16.882L19.31 16.872C19.625 16.865 19.887 16.882 20.157 17.14L20.16 17.143C20.368 17.342 20.465 17.673 20.551 18.019C20.636 18.419 20.705 18.799 20.96 19.085C21.446 19.612 21.605 19.991 21.596 20.225L21.599 20.218L21.599 20.236L21.596 20.224C21.581 20.486 21.411 20.62 21.098 20.819C20.468 21.22 19.352 21.531 18.641 22.389C18.023 23.126 17.271 23.529 16.605 23.58C15.941 23.633 15.368 23.38 15.031 22.682L15.026 22.679C14.816 22.279 14.906 21.654 15.082 20.989C15.258 20.321 15.51 19.645 15.545 19.092C15.582 18.378 15.621 17.757 15.74 17.278C15.86 16.813 16.048 16.481 16.381 16.294L16.426 16.272L16.426 16.27ZM5.612 16.319L5.622 16.319C5.675 16.319 5.727 16.324 5.779 16.333C6.155 16.388 6.485 16.666 6.802 17.085L7.712 18.749L7.715 18.752C7.958 19.285 8.469 19.816 8.904 20.389C9.338 20.987 9.674 21.52 9.633 21.959L9.633 21.965C9.576 22.709 9.153 23.113 8.508 23.259C7.863 23.394 6.988 23.261 6.113 22.795C5.145 22.259 3.995 22.326 3.256 22.193C2.887 22.127 2.646 21.993 2.533 21.793C2.423 21.593 2.42 21.191 2.656 20.563L2.656 20.559L2.658 20.556C2.775 20.222 2.688 19.804 2.631 19.438C2.576 19.037 2.548 18.728 2.674 18.498C2.834 18.164 3.07 18.098 3.364 17.965C3.658 17.83 4.004 17.763 4.279 17.495L4.281 17.495L4.281 17.493C4.537 17.225 4.726 16.892 4.949 16.655C5.139 16.454 5.329 16.319 5.612 16.319ZM12.771 7.245C12.336 7.446 11.826 7.78 11.283 7.78C10.741 7.78 10.313 7.513 10.003 7.314C9.849 7.18 9.723 7.046 9.63 6.979C9.466 6.845 9.486 6.646 9.556 6.646C9.665 6.662 9.685 6.78 9.755 6.846C9.851 6.912 9.97 7.046 10.115 7.179C10.407 7.379 10.795 7.646 11.282 7.646C11.767 7.646 12.335 7.379 12.68 7.18C12.875 7.045 13.125 6.846 13.328 6.713C13.484 6.577 13.477 6.446 13.607 6.446C13.735 6.462 13.641 6.58 13.46 6.778C13.2382 6.94575 13.0079 7.10195 12.77 7.246L12.771 7.245ZM11.689 5.662L11.689 5.64C11.683 5.62 11.702 5.598 11.718 5.59C11.792 5.547 11.898 5.563 11.978 5.594C12.041 5.594 12.138 5.661 12.128 5.729C12.122 5.778 12.043 5.795 11.993 5.795C11.938 5.795 11.901 5.752 11.852 5.727C11.8 5.709 11.706 5.719 11.689 5.662ZM11.138 5.662C11.118 5.72 11.025 5.711 10.972 5.728C10.925 5.753 10.886 5.796 10.832 5.796C10.782 5.796 10.702 5.776 10.696 5.728C10.686 5.662 10.784 5.595 10.846 5.595C10.926 5.564 11.03 5.548 11.105 5.59C11.124 5.599 11.141 5.62 11.135 5.64L11.135 5.66L11.138 5.66L11.138 5.662Z" fill="url(#LinearGradient)" fill-rule="evenodd" opacity="1" stroke="none"/>
</g>
</svg>
