<?xml version="1.0" encoding="UTF-8" standalone="no"?>
<!DOCTYPE svg PUBLIC "-//W3C//DTD SVG 1.1//EN" "http://www.w3.org/Graphics/SVG/1.1/DTD/svg11.dtd"
[
<!ATTLIST g
  xmlns:vectornator CDATA #FIXED "http://vectornator.io"
  vectornator:layerName CDATA #IMPLIED >
<!ATTLIST g
  xmlns:vectornator CDATA #FIXED "http://vectornator.io"
  vectornator:mask CDATA #IMPLIED >
<!ATTLIST text
  xmlns:vectornator CDATA #FIXED "http://vectornator.io"
  vectornator:width CDATA #IMPLIED >

<!ATTLIST path
  xmlns:vectornator CDATA #FIXED "http://vectornator.io"
  vectornator:blendMode CDATA #IMPLIED >
<!ATTLIST path
  xmlns:vectornator CDATA #FIXED "http://vectornator.io"
  vectornator:shadowColor CDATA #IMPLIED >
<!ATTLIST path
  xmlns:vectornator CDATA #FIXED "http://vectornator.io"
  vectornator:shadowOpacity CDATA #IMPLIED >
<!ATTLIST path
  xmlns:vectornator CDATA #FIXED "http://vectornator.io"
  vectornator:shadowRadius CDATA #IMPLIED >
<!ATTLIST path
  xmlns:vectornator CDATA #FIXED "http://vectornator.io"
  vectornator:shadowOffset CDATA #IMPLIED >
<!ATTLIST path
  xmlns:vectornator CDATA #FIXED "http://vectornator.io"
  vectornator:shadowAngle CDATA #IMPLIED >

<!ATTLIST image
  xmlns:vectornator CDATA #FIXED "http://vectornator.io"
  vectornator:blendMode CDATA #IMPLIED >
<!ATTLIST image
  xmlns:vectornator CDATA #FIXED "http://vectornator.io"
  vectornator:shadowColor CDATA #IMPLIED >
<!ATTLIST image
  xmlns:vectornator CDATA #FIXED "http://vectornator.io"
  vectornator:shadowOpacity CDATA #IMPLIED >
<!ATTLIST image
  xmlns:vectornator CDATA #FIXED "http://vectornator.io"
  vectornator:shadowRadius CDATA #IMPLIED >
<!ATTLIST image
  xmlns:vectornator CDATA #FIXED "http://vectornator.io"
  vectornator:shadowOffset CDATA #IMPLIED >
<!ATTLIST image
  xmlns:vectornator CDATA #FIXED "http://vectornator.io"
  vectornator:shadowAngle CDATA #IMPLIED >

<!ATTLIST g
  xmlns:vectornator CDATA #FIXED "http://vectornator.io"
  vectornator:blendMode CDATA #IMPLIED >
<!ATTLIST g
  xmlns:vectornator CDATA #FIXED "http://vectornator.io"
  vectornator:shadowColor CDATA #IMPLIED >
<!ATTLIST g
  xmlns:vectornator CDATA #FIXED "http://vectornator.io"
  vectornator:shadowOpacity CDATA #IMPLIED >
<!ATTLIST g
  xmlns:vectornator CDATA #FIXED "http://vectornator.io"
  vectornator:shadowRadius CDATA #IMPLIED >
<!ATTLIST g
  xmlns:vectornator CDATA #FIXED "http://vectornator.io"
  vectornator:shadowOffset CDATA #IMPLIED >
<!ATTLIST g
  xmlns:vectornator CDATA #FIXED "http://vectornator.io"
  vectornator:shadowAngle CDATA #IMPLIED >

<!ENTITY % SVG.filter.extra.content  "| feDropShadow" >
<!ELEMENT feDropShadow EMPTY>
<!ATTLIST feDropShadow
  xmlns:svg CDATA #FIXED "http://www.w3.org/Graphics/SVG/1.1/DTD/svg11.dtd"
  dx CDATA #IMPLIED>
<!ATTLIST feDropShadow
  xmlns:svg CDATA #FIXED "http://www.w3.org/Graphics/SVG/1.1/DTD/svg11.dtd"
  dy CDATA #IMPLIED>
<!ATTLIST feDropShadow
  xmlns:svg CDATA #FIXED "http://www.w3.org/Graphics/SVG/1.1/DTD/svg11.dtd"
  stdDeviation CDATA #IMPLIED>
<!ATTLIST feDropShadow
  xmlns:svg CDATA #FIXED "http://www.w3.org/Graphics/SVG/1.1/DTD/svg11.dtd"
  flood-opacity CDATA #IMPLIED>
<!ATTLIST feDropShadow
  xmlns:svg CDATA #FIXED "http://www.w3.org/Graphics/SVG/1.1/DTD/svg11.dtd"
  in CDATA #IMPLIED>
<!ATTLIST feDropShadow
  xmlns:svg CDATA #FIXED "http://www.w3.org/Graphics/SVG/1.1/DTD/svg11.dtd"
  result CDATA #IMPLIED>
<!ATTLIST feDropShadow
  xmlns:svg CDATA #FIXED "http://www.w3.org/Graphics/SVG/1.1/DTD/svg11.dtd"
  flood-color CDATA #IMPLIED>
]
>
<!-- Created with Vectornator (http://vectornator.io/) -->
<svg height="100%" stroke-miterlimit="10" style="fill-rule:nonzero;clip-rule:evenodd;stroke-linecap:round;stroke-linejoin:round;" version="1.1" viewBox="0 0 860 200" width="100%" xml:space="preserve" xmlns="http://www.w3.org/2000/svg" xmlns:vectornator="http://vectornator.io" xmlns:xlink="http://www.w3.org/1999/xlink">
<defs>
<linearGradient gradientTransform="matrix(1 0 0 1 0 0)" gradientUnits="userSpaceOnUse" id="LinearGradient" x1="210" x2="860" y1="0" y2="0">
<stop offset="0" stop-color="#7c4dff"/>
<stop offset="1" stop-color="#8c9eff"/>
</linearGradient>
<clipPath id="TextBounds">
<rect height="135" width="552.785" x="265" y="37"/>
</clipPath>
<clipPath id="TextBounds_2">
<rect height="135" width="552.785" x="255" y="27"/>
</clipPath>
</defs>
<g id="Untitled" vectornator:layerName="Untitled">
<g opacity="1">
<path d="M0 0L210 0L210 0L210 200L210 200L0 200L0 200L0 0L0 0Z" fill="#555555" fill-rule="evenodd" opacity="1" stroke="none"/>
<path d="M210 0L860 0L860 0L860 200L860 200L210 200L210 200L210 0L210 0Z" fill="url(#LinearGradient)" fill-rule="evenodd" opacity="1" stroke="none"/>
</g>
<g opacity="1">
<g fill="#000000" opacity="0.1" stroke="none">
<path clip-path="url(#TextBounds)" d="M327.838 148L277.242 148L277.242 68.0244L287.877 68.0244L287.877 138.547L327.838 138.547L327.838 148Z" fill-rule="evenodd"/>
<path clip-path="url(#TextBounds)" d="M366.671 148L335.089 148L335.089 139.836L345.562 139.836L345.562 76.1885L335.089 76.1885L335.089 68.0244L366.671 68.0244L366.671 76.1885L356.197 76.1885L356.197 139.836L366.671 139.836L366.671 148Z" fill-rule="evenodd"/>
<path clip-path="url(#TextBounds)" d="M447.828 68.0244L418.717 148L404.537 148L375.426 68.0244L386.812 68.0244L411.896 138.386L436.979 68.0244L447.828 68.0244Z" fill-rule="evenodd"/>
<path clip-path="url(#TextBounds)" d="M512.657 148L459.967 148L459.967 68.0244L512.657 68.0244L512.657 77.4775L470.602 77.4775L470.602 99.3916L512.657 99.3916L512.657 108.845L470.602 108.845L470.602 138.547L512.657 138.547L512.657 148Z" fill-rule="evenodd"/>
<path clip-path="url(#TextBounds)" d="M626.31 125.173C626.31 128.288 625.584 131.368 624.134 134.411C622.684 137.455 620.652 140.033 618.038 142.146C615.174 144.437 611.834 146.228 608.021 147.517C604.208 148.806 599.615 149.45 594.244 149.45C588.479 149.45 583.296 148.913 578.695 147.839C574.094 146.765 569.412 145.171 564.649 143.059L564.649 129.738L565.401 129.738C569.448 133.104 574.12 135.7 579.42 137.526C584.719 139.353 589.697 140.266 594.352 140.266C600.94 140.266 606.069 139.03 609.74 136.56C613.41 134.089 615.245 130.795 615.245 126.677C615.245 123.132 614.377 120.518 612.64 118.835C610.903 117.152 608.263 115.845 604.718 114.914C602.032 114.198 599.123 113.607 595.99 113.142C592.857 112.676 589.535 112.085 586.026 111.369C578.937 109.865 573.682 107.296 570.262 103.662C566.843 100.027 565.133 95.2917 565.133 89.4551C565.133 82.7591 567.962 77.2716 573.619 72.9927C579.277 68.7137 586.456 66.5742 595.157 66.5742C600.779 66.5742 605.935 67.1113 610.626 68.1855C615.317 69.2598 619.47 70.5846 623.087 72.1602L623.087 84.7285L622.335 84.7285C619.291 82.1504 615.29 80.0109 610.331 78.3101C605.371 76.6092 600.296 75.7588 595.104 75.7588C589.41 75.7588 584.836 76.9404 581.38 79.3037C577.925 81.667 576.197 84.7106 576.197 88.4346C576.197 91.7646 577.057 94.3786 578.775 96.2764C580.494 98.1742 583.52 99.6243 587.853 100.627C590.144 101.128 593.403 101.737 597.628 102.453C601.853 103.169 605.434 103.903 608.37 104.655C614.314 106.231 618.79 108.612 621.798 111.799C624.806 114.986 626.31 119.444 626.31 125.173Z" fill-rule="evenodd"/>
<path clip-path="url(#TextBounds)" d="M671.588 148L640.006 148L640.006 139.836L650.479 139.836L650.479 76.1885L640.006 76.1885L640.006 68.0244L671.588 68.0244L671.588 76.1885L661.114 76.1885L661.114 139.836L671.588 139.836L671.588 148Z" fill-rule="evenodd"/>
<path clip-path="url(#TextBounds)" d="M746.729 77.4775L718.155 77.4775L718.155 148L707.521 148L707.521 77.4775L678.946 77.4775L678.946 68.0244L746.729 68.0244L746.729 77.4775Z" fill-rule="evenodd"/>
<path clip-path="url(#TextBounds)" d="M810.162 148L757.472 148L757.472 68.0244L810.162 68.0244L810.162 77.4775L768.106 77.4775L768.106 99.3916L810.162 99.3916L810.162 108.845L768.106 108.845L768.106 138.547L810.162 138.547L810.162 148Z" fill-rule="evenodd"/>
</g>
<g fill="#ffffff" opacity="1" stroke="none">
<path clip-path="url(#TextBounds_2)" d="M317.838 138L267.242 138L267.242 58.0244L277.877 58.0244L277.877 128.547L317.838 128.547L317.838 138Z" fill-rule="evenodd"/>
<path clip-path="url(#TextBounds_2)" d="M356.671 138L325.089 138L325.089 129.836L335.562 129.836L335.562 66.1885L325.089 66.1885L325.089 58.0244L356.671 58.0244L356.671 66.1885L346.197 66.1885L346.197 129.836L356.671 129.836L356.671 138Z" fill-rule="evenodd"/>
<path clip-path="url(#TextBounds_2)" d="M437.828 58.0244L408.717 138L394.537 138L365.426 58.0244L376.812 58.0244L401.896 128.386L426.979 58.0244L437.828 58.0244Z" fill-rule="evenodd"/>
<path clip-path="url(#TextBounds_2)" d="M502.657 138L449.967 138L449.967 58.0244L502.657 58.0244L502.657 67.4775L460.602 67.4775L460.602 89.3916L502.657 89.3916L502.657 98.8447L460.602 98.8447L460.602 128.547L502.657 128.547L502.657 138Z" fill-rule="evenodd"/>
<path clip-path="url(#TextBounds_2)" d="M616.31 115.173C616.31 118.288 615.584 121.368 614.134 124.411C612.684 127.455 610.652 130.033 608.038 132.146C605.174 134.437 601.834 136.228 598.021 137.517C594.208 138.806 589.615 139.45 584.244 139.45C578.479 139.45 573.296 138.913 568.695 137.839C564.094 136.765 559.412 135.171 554.649 133.059L554.649 119.738L555.401 119.738C559.448 123.104 564.12 125.7 569.42 127.526C574.719 129.353 579.697 130.266 584.352 130.266C590.94 130.266 596.069 129.03 599.74 126.56C603.41 124.089 605.245 120.795 605.245 116.677C605.245 113.132 604.377 110.518 602.64 108.835C600.903 107.152 598.263 105.845 594.718 104.914C592.032 104.198 589.123 103.607 585.99 103.142C582.857 102.676 579.535 102.085 576.026 101.369C568.937 99.8652 563.682 97.2961 560.262 93.6616C556.843 90.0272 555.133 85.2917 555.133 79.4551C555.133 72.7591 557.962 67.2716 563.619 62.9927C569.277 58.7137 576.456 56.5742 585.157 56.5742C590.779 56.5742 595.935 57.1113 600.626 58.1855C605.317 59.2598 609.47 60.5846 613.087 62.1602L613.087 74.7285L612.335 74.7285C609.291 72.1504 605.29 70.0109 600.331 68.3101C595.371 66.6092 590.296 65.7588 585.104 65.7588C579.41 65.7588 574.836 66.9404 571.38 69.3037C567.925 71.667 566.197 74.7106 566.197 78.4346C566.197 81.7646 567.057 84.3786 568.775 86.2764C570.494 88.1742 573.52 89.6243 577.853 90.627C580.144 91.1283 583.403 91.737 587.628 92.4531C591.853 93.1693 595.434 93.9033 598.37 94.6553C604.314 96.2308 608.79 98.612 611.798 101.799C614.806 104.986 616.31 109.444 616.31 115.173Z" fill-rule="evenodd"/>
<path clip-path="url(#TextBounds_2)" d="M661.588 138L630.006 138L630.006 129.836L640.479 129.836L640.479 66.1885L630.006 66.1885L630.006 58.0244L661.588 58.0244L661.588 66.1885L651.114 66.1885L651.114 129.836L661.588 129.836L661.588 138Z" fill-rule="evenodd"/>
<path clip-path="url(#TextBounds_2)" d="M736.729 67.4775L708.155 67.4775L708.155 138L697.521 138L697.521 67.4775L668.946 67.4775L668.946 58.0244L736.729 58.0244L736.729 67.4775Z" fill-rule="evenodd"/>
<path clip-path="url(#TextBounds_2)" d="M800.162 138L747.472 138L747.472 58.0244L800.162 58.0244L800.162 67.4775L758.106 67.4775L758.106 89.3916L800.162 89.3916L800.162 98.8447L758.106 98.8447L758.106 128.547L800.162 128.547L800.162 138Z" fill-rule="evenodd"/>
</g>
</g>
<g opacity="1">
<path d="M131.285 71.6229L131.232 71.6005C131.201 71.5884 131.171 71.5775 131.145 71.5509C131.056 71.4564 131.017 71.3264 131.038 71.1989L133.965 53.3075L147.688 67.0347L133.416 73.1071C133.376 73.123 133.334 73.1306 133.291 73.1295L133.234 73.1295C133.206 73.1115 133.181 73.0899 133.158 73.0654C132.627 72.474 131.992 71.9851 131.285 71.6229ZM151.19 70.533L165.864 85.2061C168.912 88.2575 170.437 89.7798 170.994 91.5441C171.077 91.8048 171.145 92.0661 171.198 92.3352L136.13 77.4837C136.112 77.4758 136.093 77.4681 136.074 77.4607C135.934 77.4038 135.771 77.3397 135.771 77.1952C135.771 77.0518 135.937 76.9835 136.078 76.9266L136.123 76.9079L151.19 70.533ZM170.6 97.0444C169.843 98.4682 168.366 99.9446 165.868 102.447L149.324 118.987L127.927 114.531L127.813 114.508C127.624 114.478 127.423 114.444 127.423 114.274C127.259 112.489 126.361 110.854 124.943 109.757C124.856 109.67 124.879 109.534 124.905 109.409C124.905 109.391 124.905 109.371 124.913 109.356L128.938 84.6497L128.953 84.5662C128.976 84.3769 129.01 84.1574 129.18 84.1574C130.922 83.9406 132.504 83.0337 133.571 81.6401C133.605 81.602 133.628 81.5608 133.674 81.5378C133.795 81.481 133.938 81.5378 134.063 81.5911L170.596 97.0444L170.6 97.0444ZM145.52 122.792L118.314 149.997L122.972 121.376L122.979 121.338C122.982 121.301 122.99 121.264 123.002 121.228C123.04 121.137 123.138 121.099 123.233 121.062L123.278 121.043C124.298 120.608 125.199 119.937 125.909 119.086C126 118.979 126.11 118.877 126.25 118.858C126.287 118.852 126.324 118.852 126.36 118.858L145.516 122.796L145.52 122.792ZM112.556 155.755L109.49 158.821L75.588 109.826C75.5759 109.808 75.5634 109.79 75.5505 109.772C75.4973 109.7 75.4405 109.629 75.452 109.545C75.4556 109.485 75.4937 109.431 75.5354 109.386L75.5729 109.337C75.6757 109.186 75.7622 109.035 75.8572 108.871L75.9328 108.739L75.9443 108.727C75.9969 108.637 76.0465 108.549 76.1372 108.5C76.2165 108.462 76.3265 108.477 76.4136 108.496L113.972 116.242C114.077 116.259 114.176 116.301 114.26 116.367C114.309 116.416 114.321 116.47 114.332 116.53C114.863 118.539 116.303 120.185 118.224 120.978C118.329 121.031 118.284 121.149 118.236 121.273C118.211 121.328 118.192 121.385 118.178 121.444C117.705 124.321 113.647 149.072 112.556 155.755ZM106.151 162.156C103.891 164.394 102.559 165.579 101.051 166.055C99.5656 166.525 97.9712 166.525 96.4855 166.055C94.7218 165.495 93.1958 163.974 90.1481 160.922L56.1023 126.876L64.9957 113.085C65.0332 113.016 65.0847 112.955 65.1469 112.907C65.2418 112.839 65.3779 112.869 65.4916 112.907C67.5329 113.523 69.7245 113.412 71.6929 112.593C71.7952 112.555 71.8974 112.529 71.9766 112.601C72.0163 112.637 72.0518 112.677 72.0825 112.722L106.151 162.16L106.151 162.156ZM52.8205 123.595L45.0103 115.784L60.4335 109.204C60.473 109.187 60.5155 109.178 60.5587 109.177C60.6875 109.177 60.7631 109.306 60.8308 109.423C60.9859 109.662 61.1501 109.894 61.3232 110.12L61.3728 110.181C61.4181 110.245 61.3879 110.31 61.3425 110.37L52.8241 123.594L52.8205 123.595ZM41.5537 112.328L31.6732 102.447C29.9918 100.766 28.7731 99.5472 27.9251 98.4985L57.9694 104.73C58.007 104.737 58.0447 104.743 58.0825 104.748C58.2682 104.778 58.4726 104.813 58.4726 104.987C58.4726 105.176 58.2488 105.263 58.0601 105.335L57.973 105.374L41.5537 112.328ZM26.1989 93.4173C26.2331 92.7809 26.3475 92.1513 26.5395 91.5435C27.1001 89.7792 28.6219 88.2569 31.6732 85.2061L44.3178 72.5616C50.1393 81.0105 55.9765 89.4489 61.8298 97.8762C61.9326 98.0129 62.0457 98.1641 61.9284 98.2778C61.3756 98.8875 60.8228 99.554 60.4327 100.277C60.3904 100.37 60.3252 100.45 60.2434 100.511C60.195 100.542 60.1411 100.53 60.0849 100.519L60.077 100.519L26.1982 93.4125L26.1989 93.4173ZM47.7024 69.177L64.7042 52.1752C66.3015 52.875 72.1169 55.3324 77.3185 57.528C81.2559 59.1937 84.8443 60.7081 85.9723 61.1999C86.0861 61.2458 86.1883 61.2906 86.2379 61.4043C86.2681 61.4727 86.253 61.5597 86.2379 61.6317C85.691 64.1247 86.435 66.7255 88.2175 68.5522C88.3312 68.6659 88.2175 68.8286 88.1189 68.9689L88.0657 69.0481L70.8026 95.7876C70.7573 95.8626 70.7155 95.9267 70.6399 95.9763C70.5492 96.0332 70.4204 96.0066 70.3145 95.9799C69.6429 95.804 68.9524 95.71 68.2581 95.6999C67.6376 95.6999 66.9638 95.8136 66.2828 95.9388L66.2785 95.9388C66.2029 95.9503 66.1346 95.9654 66.0741 95.9201C66.0073 95.8652 65.9499 95.7998 65.9041 95.7265L47.7024 69.177ZM68.1378 48.741L90.1481 26.7313C93.1964 23.6836 94.7218 22.1582 96.4855 21.6017C97.9714 21.1318 99.5661 21.1318 101.052 21.6017C102.816 22.1582 104.341 23.6836 107.389 26.7307L112.159 31.5016L96.5048 55.7455C96.466 55.816 96.4131 55.8778 96.3494 55.927C96.255 55.9917 96.1226 55.9651 96.0089 55.927C93.5032 55.1666 90.7837 55.6907 88.74 57.3278C88.6378 57.4342 88.486 57.3731 88.3578 57.3163C86.3135 56.4272 70.4125 49.7075 68.1384 48.7416L68.1378 48.741ZM115.483 34.8245L129.937 49.2787L126.454 70.8499L126.454 70.9068C126.451 70.956 126.441 71.0044 126.424 71.0507C126.386 71.1263 126.31 71.1414 126.235 71.1644C125.49 71.39 124.789 71.7395 124.16 72.1981C124.133 72.2173 124.108 72.2387 124.084 72.2622C124.042 72.3076 124.001 72.3493 123.933 72.3571C123.878 72.3589 123.822 72.3499 123.77 72.3305L101.744 62.972L101.702 62.9533C101.562 62.8964 101.396 62.8281 101.396 62.6841C101.267 61.4568 100.866 60.2736 100.223 59.2203C100.116 59.0461 99.9989 58.8646 100.09 58.6862L115.483 34.8245ZM100.598 67.4054L121.245 76.1512C121.359 76.2039 121.484 76.2528 121.533 76.3702C121.553 76.4408 121.553 76.5155 121.533 76.5861C121.463 76.9135 121.425 77.2469 121.42 77.5817L121.42 78.1611C121.42 78.305 121.272 78.3655 121.135 78.4224L121.094 78.4375C117.823 79.8346 75.1725 98.0218 75.1084 98.0218C75.0437 98.0218 74.9754 98.0218 74.9112 97.9571C74.7975 97.8434 74.9112 97.6844 75.0135 97.5404C75.0314 97.5155 75.0489 97.4903 75.0661 97.4648L92.0339 71.191L92.0642 71.1463C92.1628 70.9872 92.2759 70.8094 92.4579 70.8094L92.6285 70.8354C93.0144 70.8886 93.3555 70.9382 93.6996 70.9382C96.2744 70.9382 98.6592 69.685 100.098 67.5421C100.132 67.485 100.176 67.4339 100.226 67.3909C100.329 67.3147 100.48 67.3528 100.598 67.4054ZM76.9519 102.178L123.441 82.3519C123.441 82.3519 123.509 82.3519 123.574 82.4161C123.827 82.6701 124.043 82.84 124.251 82.9991L124.354 83.0638C124.448 83.117 124.543 83.1775 124.55 83.2755C124.55 83.3136 124.55 83.336 124.542 83.3705L120.56 107.834L120.545 107.933C120.518 108.122 120.492 108.338 120.314 108.338C118.158 108.483 116.213 109.683 115.116 111.544L115.097 111.574C115.044 111.661 114.994 111.745 114.908 111.79C114.829 111.828 114.727 111.813 114.643 111.794L77.5683 104.147C77.5301 104.139 76.9925 102.182 76.9519 102.178Z" fill="#ffffff" fill-rule="evenodd" opacity="1" stroke="none"/>
<path d="M141.285 81.6229L141.232 81.6005C141.201 81.5884 141.171 81.5775 141.145 81.5509C141.056 81.4564 141.017 81.3264 141.038 81.1989L143.965 63.3075L157.688 77.0347L143.416 83.1071C143.376 83.123 143.334 83.1306 143.291 83.1295L143.234 83.1295C143.206 83.1115 143.181 83.0899 143.158 83.0654C142.627 82.474 141.992 81.9851 141.285 81.6229ZM161.19 80.533L175.864 95.2061C178.912 98.2575 180.437 99.7798 180.994 101.544C181.077 101.805 181.145 102.066 181.198 102.335L146.13 87.4837C146.112 87.4758 146.093 87.4681 146.074 87.4607C145.934 87.4038 145.771 87.3397 145.771 87.1952C145.771 87.0518 145.937 86.9835 146.078 86.9266L146.123 86.9079L161.19 80.533ZM180.6 107.044C179.843 108.468 178.366 109.945 175.868 112.447L159.324 128.987L137.927 124.531L137.813 124.508C137.624 124.478 137.423 124.444 137.423 124.274C137.259 122.489 136.361 120.854 134.943 119.757C134.856 119.67 134.879 119.534 134.905 119.409C134.905 119.391 134.905 119.371 134.913 119.356L138.938 94.6497L138.953 94.5662C138.976 94.3769 139.01 94.1574 139.18 94.1574C140.922 93.9406 142.504 93.0337 143.571 91.6401C143.605 91.602 143.628 91.5608 143.674 91.5378C143.795 91.481 143.938 91.5378 144.063 91.5911L180.596 107.044L180.6 107.044ZM155.52 132.792L128.314 159.997L132.972 131.376L132.979 131.338C132.982 131.301 132.99 131.264 133.002 131.228C133.04 131.137 133.138 131.099 133.233 131.062L133.278 131.043C134.298 130.608 135.199 129.937 135.909 129.086C136 128.979 136.11 128.877 136.25 128.858C136.287 128.852 136.324 128.852 136.36 128.858L155.516 132.796L155.52 132.792ZM122.556 165.755L119.49 168.821L85.588 119.826C85.5759 119.808 85.5634 119.79 85.5505 119.772C85.4973 119.7 85.4405 119.629 85.452 119.545C85.4556 119.485 85.4937 119.431 85.5354 119.386L85.5729 119.337C85.6757 119.186 85.7622 119.035 85.8572 118.871L85.9328 118.739L85.9443 118.727C85.9969 118.637 86.0465 118.549 86.1372 118.5C86.2165 118.462 86.3265 118.477 86.4136 118.496L123.972 126.242C124.077 126.259 124.176 126.301 124.26 126.367C124.309 126.416 124.321 126.47 124.332 126.53C124.863 128.539 126.303 130.185 128.224 130.978C128.329 131.031 128.284 131.149 128.236 131.273C128.211 131.328 128.192 131.385 128.178 131.444C127.705 134.321 123.647 159.072 122.556 165.755ZM116.151 172.156C113.891 174.394 112.559 175.579 111.051 176.055C109.566 176.525 107.971 176.525 106.485 176.055C104.722 175.495 103.196 173.974 100.148 170.922L66.1023 136.876L74.9957 123.085C75.0332 123.016 75.0847 122.955 75.1469 122.907C75.2418 122.839 75.3779 122.869 75.4916 122.907C77.5329 123.523 79.7245 123.412 81.6929 122.593C81.7952 122.555 81.8974 122.529 81.9766 122.601C82.0163 122.637 82.0518 122.677 82.0825 122.722L116.151 172.16L116.151 172.156ZM62.8205 133.595L55.0103 125.784L70.4335 119.204C70.473 119.187 70.5155 119.178 70.5587 119.177C70.6875 119.177 70.7631 119.306 70.8308 119.423C70.9859 119.662 71.1501 119.894 71.3232 120.12L71.3728 120.181C71.4181 120.245 71.3879 120.31 71.3425 120.37L62.8241 133.594L62.8205 133.595ZM51.5537 122.328L41.6732 112.447C39.9918 110.766 38.7731 109.547 37.9251 108.498L67.9694 114.73C68.007 114.737 68.0447 114.743 68.0825 114.748C68.2682 114.778 68.4726 114.813 68.4726 114.987C68.4726 115.176 68.2488 115.263 68.0601 115.335L67.973 115.374L51.5537 122.328ZM36.1989 103.417C36.2331 102.781 36.3475 102.151 36.5395 101.544C37.1001 99.7792 38.6219 98.2569 41.6732 95.2061L54.3178 82.5616C60.1393 91.0105 65.9765 99.4489 71.8298 107.876C71.9326 108.013 72.0457 108.164 71.9284 108.278C71.3756 108.887 70.8228 109.554 70.4327 110.277C70.3904 110.37 70.3252 110.45 70.2434 110.511C70.195 110.542 70.1411 110.53 70.0849 110.519L70.077 110.519L36.1982 103.413L36.1989 103.417ZM57.7024 79.177L74.7042 62.1752C76.3015 62.875 82.1169 65.3324 87.3185 67.528C91.2559 69.1937 94.8443 70.7081 95.9723 71.1999C96.0861 71.2458 96.1883 71.2906 96.2379 71.4043C96.2681 71.4727 96.253 71.5597 96.2379 71.6317C95.691 74.1247 96.435 76.7255 98.2175 78.5522C98.3312 78.6659 98.2175 78.8286 98.1189 78.9689L98.0657 79.0481L80.8026 105.788C80.7573 105.863 80.7155 105.927 80.6399 105.976C80.5492 106.033 80.4204 106.007 80.3145 105.98C79.6429 105.804 78.9524 105.71 78.2581 105.7C77.6376 105.7 76.9638 105.814 76.2828 105.939L76.2785 105.939C76.2029 105.95 76.1346 105.965 76.0741 105.92C76.0073 105.865 75.9499 105.8 75.9041 105.727L57.7024 79.177ZM78.1378 58.741L100.148 36.7313C103.196 33.6836 104.722 32.1582 106.485 31.6017C107.971 31.1318 109.566 31.1318 111.052 31.6017C112.816 32.1582 114.341 33.6836 117.389 36.7307L122.159 41.5016L106.505 65.7455C106.466 65.816 106.413 65.8778 106.349 65.927C106.255 65.9917 106.123 65.9651 106.009 65.927C103.503 65.1666 100.784 65.6907 98.74 67.3278C98.6378 67.4342 98.486 67.3731 98.3578 67.3163C96.3135 66.4272 80.4125 59.7075 78.1384 58.7416L78.1378 58.741ZM125.483 44.8245L139.937 59.2787L136.454 80.8499L136.454 80.9068C136.451 80.956 136.441 81.0044 136.424 81.0507C136.386 81.1263 136.31 81.1414 136.235 81.1644C135.49 81.39 134.789 81.7395 134.16 82.1981C134.133 82.2173 134.108 82.2387 134.084 82.2622C134.042 82.3076 134.001 82.3493 133.933 82.3571C133.878 82.3589 133.822 82.3499 133.77 82.3305L111.744 72.972L111.702 72.9533C111.562 72.8964 111.396 72.8281 111.396 72.6841C111.267 71.4568 110.866 70.2736 110.223 69.2203C110.116 69.0461 109.999 68.8646 110.09 68.6862L125.483 44.8245ZM110.598 77.4054L131.245 86.1512C131.359 86.2039 131.484 86.2528 131.533 86.3702C131.553 86.4408 131.553 86.5155 131.533 86.5861C131.463 86.9135 131.425 87.2469 131.42 87.5817L131.42 88.1611C131.42 88.305 131.272 88.3655 131.135 88.4224L131.094 88.4375C127.823 89.8346 85.1725 108.022 85.1084 108.022C85.0437 108.022 84.9754 108.022 84.9112 107.957C84.7975 107.843 84.9112 107.684 85.0135 107.54C85.0314 107.515 85.0489 107.49 85.0661 107.465L102.034 81.191L102.064 81.1463C102.163 80.9872 102.276 80.8094 102.458 80.8094L102.628 80.8354C103.014 80.8886 103.355 80.9382 103.7 80.9382C106.274 80.9382 108.659 79.685 110.098 77.5421C110.132 77.485 110.176 77.4339 110.226 77.3909C110.329 77.3147 110.48 77.3528 110.598 77.4054ZM86.9519 112.178L133.441 92.3519C133.441 92.3519 133.509 92.3519 133.574 92.4161C133.827 92.6701 134.043 92.84 134.251 92.9991L134.354 93.0638C134.448 93.117 134.543 93.1775 134.55 93.2755C134.55 93.3136 134.55 93.336 134.542 93.3705L130.56 117.834L130.545 117.933C130.518 118.122 130.492 118.338 130.314 118.338C128.158 118.483 126.213 119.683 125.116 121.544L125.097 121.574C125.044 121.661 124.994 121.745 124.908 121.79C124.829 121.828 124.727 121.813 124.643 121.794L87.5683 114.147C87.5301 114.139 86.9925 112.182 86.9519 112.178Z" fill="#ffffff" fill-rule="evenodd" opacity="0.1" stroke="none"/>
</g>
</g>
</svg>
