<?xml version="1.0" encoding="UTF-8" standalone="no"?>
<!DOCTYPE svg PUBLIC "-//W3C//DTD SVG 1.1//EN" "http://www.w3.org/Graphics/SVG/1.1/DTD/svg11.dtd"
[
<!ATTLIST g
  xmlns:vectornator CDATA #FIXED "http://vectornator.io"
  vectornator:layerName CDATA #IMPLIED >
<!ATTLIST g
  xmlns:vectornator CDATA #FIXED "http://vectornator.io"
  vectornator:mask CDATA #IMPLIED >
<!ATTLIST text
  xmlns:vectornator CDATA #FIXED "http://vectornator.io"
  vectornator:width CDATA #IMPLIED >

<!ATTLIST path
  xmlns:vectornator CDATA #FIXED "http://vectornator.io"
  vectornator:blendMode CDATA #IMPLIED >
<!ATTLIST path
  xmlns:vectornator CDATA #FIXED "http://vectornator.io"
  vectornator:shadowColor CDATA #IMPLIED >
<!ATTLIST path
  xmlns:vectornator CDATA #FIXED "http://vectornator.io"
  vectornator:shadowOpacity CDATA #IMPLIED >
<!ATTLIST path
  xmlns:vectornator CDATA #FIXED "http://vectornator.io"
  vectornator:shadowRadius CDATA #IMPLIED >
<!ATTLIST path
  xmlns:vectornator CDATA #FIXED "http://vectornator.io"
  vectornator:shadowOffset CDATA #IMPLIED >
<!ATTLIST path
  xmlns:vectornator CDATA #FIXED "http://vectornator.io"
  vectornator:shadowAngle CDATA #IMPLIED >

<!ATTLIST image
  xmlns:vectornator CDATA #FIXED "http://vectornator.io"
  vectornator:blendMode CDATA #IMPLIED >
<!ATTLIST image
  xmlns:vectornator CDATA #FIXED "http://vectornator.io"
  vectornator:shadowColor CDATA #IMPLIED >
<!ATTLIST image
  xmlns:vectornator CDATA #FIXED "http://vectornator.io"
  vectornator:shadowOpacity CDATA #IMPLIED >
<!ATTLIST image
  xmlns:vectornator CDATA #FIXED "http://vectornator.io"
  vectornator:shadowRadius CDATA #IMPLIED >
<!ATTLIST image
  xmlns:vectornator CDATA #FIXED "http://vectornator.io"
  vectornator:shadowOffset CDATA #IMPLIED >
<!ATTLIST image
  xmlns:vectornator CDATA #FIXED "http://vectornator.io"
  vectornator:shadowAngle CDATA #IMPLIED >

<!ATTLIST g
  xmlns:vectornator CDATA #FIXED "http://vectornator.io"
  vectornator:blendMode CDATA #IMPLIED >
<!ATTLIST g
  xmlns:vectornator CDATA #FIXED "http://vectornator.io"
  vectornator:shadowColor CDATA #IMPLIED >
<!ATTLIST g
  xmlns:vectornator CDATA #FIXED "http://vectornator.io"
  vectornator:shadowOpacity CDATA #IMPLIED >
<!ATTLIST g
  xmlns:vectornator CDATA #FIXED "http://vectornator.io"
  vectornator:shadowRadius CDATA #IMPLIED >
<!ATTLIST g
  xmlns:vectornator CDATA #FIXED "http://vectornator.io"
  vectornator:shadowOffset CDATA #IMPLIED >
<!ATTLIST g
  xmlns:vectornator CDATA #FIXED "http://vectornator.io"
  vectornator:shadowAngle CDATA #IMPLIED >

<!ENTITY % SVG.filter.extra.content  "| feDropShadow" >
<!ELEMENT feDropShadow EMPTY>
<!ATTLIST feDropShadow
  xmlns:svg CDATA #FIXED "http://www.w3.org/Graphics/SVG/1.1/DTD/svg11.dtd"
  dx CDATA #IMPLIED>
<!ATTLIST feDropShadow
  xmlns:svg CDATA #FIXED "http://www.w3.org/Graphics/SVG/1.1/DTD/svg11.dtd"
  dy CDATA #IMPLIED>
<!ATTLIST feDropShadow
  xmlns:svg CDATA #FIXED "http://www.w3.org/Graphics/SVG/1.1/DTD/svg11.dtd"
  stdDeviation CDATA #IMPLIED>
<!ATTLIST feDropShadow
  xmlns:svg CDATA #FIXED "http://www.w3.org/Graphics/SVG/1.1/DTD/svg11.dtd"
  flood-opacity CDATA #IMPLIED>
<!ATTLIST feDropShadow
  xmlns:svg CDATA #FIXED "http://www.w3.org/Graphics/SVG/1.1/DTD/svg11.dtd"
  in CDATA #IMPLIED>
<!ATTLIST feDropShadow
  xmlns:svg CDATA #FIXED "http://www.w3.org/Graphics/SVG/1.1/DTD/svg11.dtd"
  result CDATA #IMPLIED>
<!ATTLIST feDropShadow
  xmlns:svg CDATA #FIXED "http://www.w3.org/Graphics/SVG/1.1/DTD/svg11.dtd"
  flood-color CDATA #IMPLIED>
]
>
<!-- Created with Vectornator (http://vectornator.io/) -->
<svg height="100%" stroke-miterlimit="10" style="fill-rule:nonzero;clip-rule:evenodd;stroke-linecap:round;stroke-linejoin:round;" version="1.1" viewBox="0 0 24 24" width="100%" xml:space="preserve" xmlns="http://www.w3.org/2000/svg" xmlns:vectornator="http://vectornator.io" xmlns:xlink="http://www.w3.org/1999/xlink">
<defs>
<linearGradient gradientTransform="matrix(1 0 0 1 0 0)" gradientUnits="userSpaceOnUse" id="LinearGradient" x1="0.01307" x2="23.9868" y1="12" y2="12">
<stop offset="0" stop-color="#7c4dff"/>
<stop offset="1" stop-color="#8c9eff"/>
</linearGradient>
</defs>
<g id="Untitled" vectornator:layerName="Untitled">
<path d="M17.3877 8.3286L17.3789 8.3249C17.3739 8.3229 17.3689 8.3211 17.3645 8.3167C17.3499 8.30108 17.3434 8.27958 17.3469 8.2585L17.8308 5.3004L20.0998 7.57L17.74 8.574C17.7335 8.57662 17.7264 8.57788 17.7194 8.5777L17.71 8.5777C17.7054 8.57472 17.7011 8.57116 17.6974 8.5671C17.6096 8.46933 17.5047 8.38849 17.3877 8.3286ZM20.6787 8.1484L23.1049 10.5744C23.6088 11.0789 23.861 11.3306 23.953 11.6223C23.9668 11.6654 23.978 11.7086 23.9868 11.7531L18.1888 9.2976C18.1857 9.2963 18.1826 9.29503 18.1795 9.2938C18.1563 9.2844 18.1294 9.2738 18.1294 9.2499C18.1294 9.2262 18.1569 9.2149 18.1801 9.2055L18.1876 9.2024L20.6787 8.1484ZM23.8879 12.5317C23.7627 12.7671 23.5186 13.0112 23.1055 13.4249L20.3702 16.1596L16.8325 15.4229L16.8137 15.4191C16.7824 15.4141 16.7492 15.4084 16.7492 15.3803C16.722 15.0853 16.5735 14.8148 16.3392 14.6336C16.3248 14.6192 16.3286 14.5966 16.3329 14.576C16.3329 14.573 16.3329 14.5697 16.3342 14.5672L16.9996 10.4824L17.0021 10.4686C17.0059 10.4373 17.0115 10.401 17.0397 10.401C17.3277 10.3652 17.5892 10.2152 17.7657 9.9848C17.7713 9.9785 17.7751 9.9717 17.7827 9.9679C17.8027 9.9585 17.8264 9.9679 17.8471 9.9767L23.8873 12.5317L23.8879 12.5317ZM19.7412 16.7887L15.2432 21.2866L16.0132 16.5546L16.0144 16.5483C16.015 16.5421 16.0163 16.536 16.0182 16.5301C16.0245 16.5151 16.0408 16.5088 16.0564 16.5026L16.0639 16.4995C16.2325 16.4276 16.3815 16.3167 16.4989 16.1759C16.5139 16.1583 16.5321 16.1414 16.5553 16.1383C16.5613 16.1373 16.5674 16.1373 16.5734 16.1383L19.7406 16.7893L19.7412 16.7887ZM14.2912 22.2386L13.7842 22.7456L8.179 14.6449C8.17699 14.6419 8.17493 14.639 8.1728 14.6361C8.164 14.6241 8.1546 14.6123 8.1565 14.5985C8.1571 14.5885 8.1634 14.5797 8.1703 14.5722L8.1765 14.5641C8.1935 14.5391 8.2078 14.5141 8.2235 14.4871L8.236 14.4652L8.2379 14.4633C8.2466 14.4483 8.2548 14.4339 8.2698 14.4257C8.2829 14.4194 8.3011 14.4219 8.3155 14.4251L14.5253 15.7058C14.5427 15.7085 14.5591 15.7156 14.5729 15.7264C14.5809 15.7345 14.5829 15.7434 14.5848 15.7534C14.6726 16.0856 14.9106 16.3576 15.2282 16.4888C15.2457 16.4976 15.2382 16.517 15.2302 16.5376C15.2261 16.5467 15.2229 16.5561 15.2207 16.5658C15.1425 17.0415 14.4715 21.1338 14.2912 22.2386ZM13.2322 23.297C12.8585 23.667 12.6382 23.8629 12.389 23.9417C12.1434 24.0194 11.8797 24.0194 11.6341 23.9417C11.3425 23.8491 11.0902 23.5975 10.5863 23.093L4.9573 17.464L6.4277 15.1838C6.4339 15.1724 6.44242 15.1624 6.4527 15.1544C6.4684 15.1431 6.4909 15.1481 6.5097 15.1544C6.84719 15.2562 7.20954 15.2378 7.535 15.1024C7.5519 15.0961 7.5688 15.0918 7.5819 15.1037C7.58846 15.1097 7.59433 15.1164 7.5994 15.1237L13.2321 23.2977L13.2322 23.297ZM4.4147 16.9214L3.1234 15.63L5.6734 14.5421C5.67993 14.5392 5.68697 14.5377 5.6941 14.5377C5.7154 14.5377 5.7279 14.559 5.7391 14.5784C5.76474 14.6178 5.79189 14.6563 5.8205 14.6936L5.8287 14.7036C5.8362 14.7142 5.8312 14.7249 5.8237 14.7349L4.4153 16.9213L4.4147 16.9214ZM2.5519 15.0586L0.9183 13.4249C0.6403 13.147 0.4388 12.9455 0.2986 12.7721L5.266 13.8024C5.27221 13.8035 5.27845 13.8045 5.2847 13.8054C5.3154 13.8104 5.3492 13.8161 5.3492 13.8449C5.3492 13.8762 5.3122 13.8906 5.281 13.9025L5.2666 13.9088L2.5519 15.0586ZM0.0132 11.932C0.0188535 11.8268 0.0377697 11.7227 0.0695 11.6222C0.1622 11.3305 0.4138 11.0788 0.9183 10.5744L3.0089 8.4838C3.97141 9.88072 4.93651 11.2759 5.90427 12.6692C5.92127 12.6918 5.93997 12.7168 5.92057 12.7356C5.82917 12.8364 5.73777 12.9466 5.67327 13.0661C5.66628 13.0815 5.65551 13.0948 5.64197 13.1049C5.63397 13.1099 5.62507 13.1079 5.61577 13.1062L5.61447 13.1062L0.01307 11.9312L0.0132 11.932ZM3.5685 7.9242L6.3795 5.1132C6.6436 5.2289 7.6051 5.6352 8.4651 5.9982C9.1161 6.2736 9.7094 6.524 9.8959 6.6053C9.9147 6.6129 9.9316 6.6203 9.9398 6.6391C9.9448 6.6504 9.9423 6.6648 9.9398 6.6767C9.84939 7.08888 9.97239 7.51889 10.2671 7.8209C10.2859 7.8397 10.2671 7.8666 10.2508 7.8898L10.242 7.9029L7.3878 12.3239C7.3803 12.3363 7.3734 12.3469 7.3609 12.3551C7.3459 12.3645 7.3246 12.3601 7.3071 12.3557C7.19605 12.3266 7.08189 12.3111 6.9671 12.3094C6.8645 12.3094 6.7531 12.3282 6.6405 12.3489L6.6398 12.3489C6.6273 12.3508 6.616 12.3533 6.606 12.3458C6.59496 12.3367 6.58546 12.3259 6.5779 12.3138L3.5685 7.9242ZM6.9472 4.5454L10.5863 0.9064C11.0903 0.4025 11.3425 0.1503 11.6341 0.0583002C11.8798-0.0193962 12.1434-0.0193961 12.3891 0.0583001C12.6807 0.1503 12.9329 0.4025 13.4368 0.9063L14.2255 1.6951L11.6373 5.7035C11.6309 5.71516 11.6221 5.72537 11.6116 5.7335C11.596 5.7442 11.5741 5.7398 11.5553 5.7335C11.141 5.60778 10.6914 5.69443 10.3535 5.9651C10.3366 5.9827 10.3115 5.9726 10.2903 5.9632C9.9523 5.8162 7.3233 4.7052 6.9473 4.5455L6.9472 4.5454ZM14.775 2.2445L17.1648 4.6343L16.589 8.2008L16.589 8.2102C16.5885 8.21833 16.5868 8.22635 16.584 8.234C16.5777 8.2465 16.5652 8.249 16.5527 8.2528C16.4296 8.2901 16.3136 8.34788 16.2097 8.4237C16.2052 8.42687 16.2011 8.43042 16.1972 8.4343C16.1902 8.4418 16.1834 8.4487 16.1722 8.45C16.163 8.45029 16.1538 8.44879 16.1452 8.4456L12.5036 6.8983L12.4966 6.8952C12.4735 6.8858 12.446 6.8745 12.446 6.8507C12.4246 6.64778 12.3583 6.45215 12.252 6.278C12.2344 6.2492 12.215 6.2192 12.23 6.1897L14.775 2.2445ZM12.314 7.6313L15.7278 9.0773C15.7466 9.086 15.7672 9.0941 15.7754 9.1135C15.7787 9.12518 15.7787 9.13752 15.7754 9.1492C15.7638 9.20332 15.7575 9.25845 15.7566 9.3138L15.7566 9.4096C15.7566 9.4334 15.7322 9.4434 15.7096 9.4528L15.7027 9.4553C15.1619 9.6863 8.1103 12.6933 8.0997 12.6933C8.089 12.6933 8.0777 12.6933 8.0671 12.6826C8.0483 12.6638 8.0671 12.6375 8.084 12.6137C8.08697 12.6096 8.08987 12.6054 8.0927 12.6012L10.8981 8.2572L10.9031 8.2498C10.9194 8.2235 10.9381 8.1941 10.9682 8.1941L10.9964 8.1984C11.0602 8.2072 11.1166 8.2154 11.1735 8.2154C11.5992 8.2154 11.9935 8.0082 12.2314 7.6539C12.237 7.64446 12.2442 7.63601 12.2526 7.6289C12.2696 7.6163 12.2946 7.6226 12.314 7.6313ZM8.4045 13.3805L16.0908 10.1025C16.0908 10.1025 16.1021 10.1025 16.1128 10.1131C16.1547 10.1551 16.1904 10.1832 16.2248 10.2095L16.2417 10.2202C16.2573 10.229 16.273 10.239 16.2742 10.2552C16.2742 10.2615 16.2742 10.2652 16.2729 10.2709L15.6145 14.3156L15.612 14.3319C15.6076 14.3632 15.6032 14.3989 15.5738 14.3989C15.2174 14.4229 14.8958 14.6213 14.7144 14.929L14.7113 14.934C14.7025 14.9484 14.6943 14.9622 14.68 14.9697C14.6669 14.976 14.65 14.9735 14.6362 14.9703L8.5064 13.706C8.5001 13.7047 8.4112 13.3811 8.4045 13.3805Z" fill="url(#LinearGradient)" fill-rule="evenodd" opacity="1" stroke="none"/>
</g>
</svg>
