<?xml version="1.0" encoding="UTF-8" standalone="no"?>
<!DOCTYPE svg PUBLIC "-//W3C//DTD SVG 1.1//EN" "http://www.w3.org/Graphics/SVG/1.1/DTD/svg11.dtd"
[
<!ATTLIST g
  xmlns:vectornator CDATA #FIXED "http://vectornator.io"
  vectornator:layerName CDATA #IMPLIED >
<!ATTLIST g
  xmlns:vectornator CDATA #FIXED "http://vectornator.io"
  vectornator:mask CDATA #IMPLIED >
<!ATTLIST text
  xmlns:vectornator CDATA #FIXED "http://vectornator.io"
  vectornator:width CDATA #IMPLIED >

<!ATTLIST path
  xmlns:vectornator CDATA #FIXED "http://vectornator.io"
  vectornator:blendMode CDATA #IMPLIED >
<!ATTLIST path
  xmlns:vectornator CDATA #FIXED "http://vectornator.io"
  vectornator:shadowColor CDATA #IMPLIED >
<!ATTLIST path
  xmlns:vectornator CDATA #FIXED "http://vectornator.io"
  vectornator:shadowOpacity CDATA #IMPLIED >
<!ATTLIST path
  xmlns:vectornator CDATA #FIXED "http://vectornator.io"
  vectornator:shadowRadius CDATA #IMPLIED >
<!ATTLIST path
  xmlns:vectornator CDATA #FIXED "http://vectornator.io"
  vectornator:shadowOffset CDATA #IMPLIED >
<!ATTLIST path
  xmlns:vectornator CDATA #FIXED "http://vectornator.io"
  vectornator:shadowAngle CDATA #IMPLIED >

<!ATTLIST image
  xmlns:vectornator CDATA #FIXED "http://vectornator.io"
  vectornator:blendMode CDATA #IMPLIED >
<!ATTLIST image
  xmlns:vectornator CDATA #FIXED "http://vectornator.io"
  vectornator:shadowColor CDATA #IMPLIED >
<!ATTLIST image
  xmlns:vectornator CDATA #FIXED "http://vectornator.io"
  vectornator:shadowOpacity CDATA #IMPLIED >
<!ATTLIST image
  xmlns:vectornator CDATA #FIXED "http://vectornator.io"
  vectornator:shadowRadius CDATA #IMPLIED >
<!ATTLIST image
  xmlns:vectornator CDATA #FIXED "http://vectornator.io"
  vectornator:shadowOffset CDATA #IMPLIED >
<!ATTLIST image
  xmlns:vectornator CDATA #FIXED "http://vectornator.io"
  vectornator:shadowAngle CDATA #IMPLIED >

<!ATTLIST g
  xmlns:vectornator CDATA #FIXED "http://vectornator.io"
  vectornator:blendMode CDATA #IMPLIED >
<!ATTLIST g
  xmlns:vectornator CDATA #FIXED "http://vectornator.io"
  vectornator:shadowColor CDATA #IMPLIED >
<!ATTLIST g
  xmlns:vectornator CDATA #FIXED "http://vectornator.io"
  vectornator:shadowOpacity CDATA #IMPLIED >
<!ATTLIST g
  xmlns:vectornator CDATA #FIXED "http://vectornator.io"
  vectornator:shadowRadius CDATA #IMPLIED >
<!ATTLIST g
  xmlns:vectornator CDATA #FIXED "http://vectornator.io"
  vectornator:shadowOffset CDATA #IMPLIED >
<!ATTLIST g
  xmlns:vectornator CDATA #FIXED "http://vectornator.io"
  vectornator:shadowAngle CDATA #IMPLIED >

<!ENTITY % SVG.filter.extra.content  "| feDropShadow" >
<!ELEMENT feDropShadow EMPTY>
<!ATTLIST feDropShadow
  xmlns:svg CDATA #FIXED "http://www.w3.org/Graphics/SVG/1.1/DTD/svg11.dtd"
  dx CDATA #IMPLIED>
<!ATTLIST feDropShadow
  xmlns:svg CDATA #FIXED "http://www.w3.org/Graphics/SVG/1.1/DTD/svg11.dtd"
  dy CDATA #IMPLIED>
<!ATTLIST feDropShadow
  xmlns:svg CDATA #FIXED "http://www.w3.org/Graphics/SVG/1.1/DTD/svg11.dtd"
  stdDeviation CDATA #IMPLIED>
<!ATTLIST feDropShadow
  xmlns:svg CDATA #FIXED "http://www.w3.org/Graphics/SVG/1.1/DTD/svg11.dtd"
  flood-opacity CDATA #IMPLIED>
<!ATTLIST feDropShadow
  xmlns:svg CDATA #FIXED "http://www.w3.org/Graphics/SVG/1.1/DTD/svg11.dtd"
  in CDATA #IMPLIED>
<!ATTLIST feDropShadow
  xmlns:svg CDATA #FIXED "http://www.w3.org/Graphics/SVG/1.1/DTD/svg11.dtd"
  result CDATA #IMPLIED>
<!ATTLIST feDropShadow
  xmlns:svg CDATA #FIXED "http://www.w3.org/Graphics/SVG/1.1/DTD/svg11.dtd"
  flood-color CDATA #IMPLIED>
]
>
<!-- Created with Vectornator (http://vectornator.io/) -->
<svg height="100%" stroke-miterlimit="10" style="fill-rule:nonzero;clip-rule:evenodd;stroke-linecap:round;stroke-linejoin:round;" version="1.1" viewBox="0 0 24 24" width="100%" xml:space="preserve" xmlns="http://www.w3.org/2000/svg" xmlns:vectornator="http://vectornator.io" xmlns:xlink="http://www.w3.org/1999/xlink">
<defs>
<linearGradient gradientTransform="matrix(1 0 0 1 0 0)" gradientUnits="userSpaceOnUse" id="LinearGradient" x1="0.415382" x2="23.5846" y1="12" y2="12">
<stop offset="0" stop-color="#7c4dff"/>
<stop offset="1" stop-color="#8c9eff"/>
</linearGradient>
</defs>
<clipPath id="ArtboardFrame">
<rect height="24" width="24" x="0" y="0"/>
</clipPath>
<g clip-path="url(#ArtboardFrame)" id="Untitled" vectornator:layerName="Untitled">
<path d="M23.5594 14.7228C23.5457 14.6809 23.5268 14.6409 23.5031 14.6037C23.3641 14.3405 23.0263 14.2619 22.4957 14.3716C20.8424 14.7127 20.2022 14.5028 19.9701 14.3525C21.3121 12.3043 22.4151 9.8305 23.0112 7.5228C23.2826 6.4721 23.8094 3.9991 23.1334 2.7912C23.0902 2.70852 23.0397 2.62988 22.9825 2.5562C21.6931 0.9086 19.8007 0.0248 17.5099 0.0005C16.0152-0.0153 14.7394 0.3466 14.3938 0.4799C14.2226 0.447951 14.0506 0.420741 13.8779 0.3983C13.445 0.31991 13.0064 0.277167 12.5665 0.2705C11.3843 0.2521 10.3627 0.5347 9.5167 1.1111C8.6594 0.79 4.7279-0.5339 2.2948 1.1899C0.9359 2.1526 0.3086 3.8733 0.4302 6.3043C0.4711 7.1223 0.9371 9.6383 1.6725 12.0479C2.1323 13.5544 2.6112 14.7498 3.1059 15.6299C3.6589 16.6241 4.2318 17.2232 4.8202 17.4194C5.2676 17.5685 5.9529 17.5635 6.6783 16.6915C7.4795 15.728 8.2686 14.8657 8.6229 14.4846C9.058 14.7201 9.5293 14.8471 10.0129 14.8618C10.013 14.8632 10.0131 14.8645 10.0133 14.8659C9.92909 14.9662 9.84668 15.068 9.7661 15.1713C9.4272 15.6015 9.3567 15.691 8.2659 15.9156C7.9557 15.9796 7.1315 16.1495 7.1195 16.7271C7.117 16.8495 7.1524 16.958 7.2114 17.0539C7.4383 17.477 8.133 17.6636 8.2264 17.687C9.5609 18.0205 10.7308 17.779 11.5978 17.0083C11.5808 19.2393 11.6753 21.4257 11.9432 22.0957C12.1644 22.6486 12.705 24.0002 14.4124 24C14.6629 24 14.9387 23.9709 15.242 23.9059C17.0239 23.5238 17.7977 22.7363 18.097 21C18.2473 20.1293 18.4986 18.1247 18.6358 16.8988C18.6527 16.8285 18.6715 16.7781 18.6928 16.7626C18.6935 16.7621 18.7625 16.7155 19.12 16.7933C19.1346 16.7965 19.1494 16.7987 19.1643 16.8001L19.4182 16.8224L19.4331 16.8234C20.2799 16.8618 21.3445 16.6808 21.9643 16.3926C22.6081 16.0938 23.77 15.3603 23.5594 14.7228ZM2.371 11.8765C1.6275 9.4407 1.1931 6.9914 1.1587 6.3046C1.0501 4.1332 1.5758 2.6217 2.721 1.8119C4.5577 0.5133 7.5608 1.2711 8.829 1.6819C8.8258 1.6851 8.8224 1.688 8.8192 1.6913C6.7954 3.7353 6.8434 7.2273 6.8484 7.4408C6.8482 7.5231 6.855 7.6397 6.8646 7.8001C6.8994 8.3874 6.9642 9.4805 6.7911 10.7185C6.6302 11.8689 6.9848 12.9949 7.7639 13.8077C7.8445 13.8918 7.9287 13.9708 8.0157 14.0451C7.6689 14.4165 6.9153 15.2377 6.1132 16.2027C5.5455 16.8852 5.1535 16.7544 5.0246 16.7114C4.6327 16.5807 4.2116 16.1243 3.7865 15.3891C3.3069 14.5501 2.823 13.3574 2.371 11.8765ZM8.3782 16.9636C8.2071 16.9208 8.0511 16.8504 7.946 16.7864C8.0349 16.747 8.1834 16.6962 8.4293 16.6455C9.7126 16.3814 9.9108 16.1949 10.3436 15.6453C10.4428 15.5193 10.5552 15.3766 10.7109 15.2027C10.7444 15.1651 10.7695 15.1209 10.7846 15.0729C10.9554 14.9216 11.057 14.963 11.2215 15.0312C11.3775 15.0958 11.5293 15.2912 11.591 15.5064C11.6201 15.608 11.6529 15.8009 11.5458 15.9508C10.6415 17.2166 9.3242 17.2002 8.3782 16.9636ZM10.4722 12.9756L10.4197 13.1166C10.2867 13.4732 10.163 13.8047 10.0863 14.1196C9.4189 14.1175 8.7695 13.8324 8.2758 13.3172C7.6479 12.6621 7.3627 11.7508 7.4933 10.8168C7.6761 9.5089 7.6086 8.37 7.5723 7.7582C7.5673 7.6725 7.5628 7.5975 7.5601 7.5383C7.8558 7.2762 9.226 6.5421 10.203 6.7659C10.6489 6.8681 10.9206 7.1716 11.0335 7.6939C11.6181 10.3977 11.1109 11.5246 10.7033 12.4302C10.6193 12.6168 10.54 12.7931 10.4722 12.9756ZM17.8359 17.5481C17.819 17.7249 17.8001 17.9241 17.7741 18.144L17.6281 18.5823C17.6165 18.617 17.6104 18.6534 17.6099 18.69C17.604 19.1647 17.5559 19.3389 17.4949 19.5593C17.4315 19.7885 17.3596 20.0484 17.3155 20.6168C17.2055 22.0311 16.4373 22.8435 14.8983 23.1733C13.3828 23.4984 13.114 22.6765 12.8771 21.9516C12.8528 21.8756 12.8272 21.8001 12.8002 21.725C12.5848 21.1392 12.6091 20.3131 12.6428 19.1699C12.6593 18.6087 12.6179 17.2686 12.3126 16.5237C12.317 16.2305 12.3232 15.9328 12.3316 15.6319C12.3326 15.5938 12.3274 15.5558 12.3163 15.5193C12.3066 15.449 12.292 15.3795 12.2724 15.3113C12.1498 14.883 11.8511 14.5247 11.4927 14.3762C11.3503 14.3172 11.0889 14.209 10.7749 14.2893C10.8419 14.0133 10.958 13.7018 11.0839 13.3644L11.1368 13.2224C11.1963 13.0624 11.2708 12.8967 11.3498 12.7212C11.7763 11.7736 12.3604 10.4759 11.7264 7.544C11.489 6.4459 10.696 5.9097 9.494 6.0342C8.7733 6.1088 8.1141 6.3996 7.7852 6.5663C7.71926 6.59972 7.65398 6.63443 7.5894 6.6704C7.6812 5.564 8.028 3.4963 9.3251 2.1881C9.42145 2.09101 9.52268 1.99889 9.6284 1.9121C9.68089 1.90186 9.73036 1.87984 9.7731 1.8477C10.5255 1.2771 11.4676 0.997101 12.5751 1.0152C12.9842 1.0219 13.3768 1.0491 13.7493 1.0962C15.6883 1.4506 16.9932 2.543 17.7852 3.4789C18.5995 4.4412 19.0404 5.4104 19.2164 5.9332C17.8932 5.7986 16.993 6.06 16.5367 6.7122C15.5441 8.1311 17.0797 10.8851 17.8178 12.2086C17.9531 12.4512 18.07 12.6608 18.1067 12.7499C18.347 13.3324 18.6582 13.7212 18.8854 14.0051C18.955 14.0921 19.0226 14.1765 19.0739 14.2501C18.6731 14.3656 17.9531 14.6326 18.0187 15.9671C18.0064 16.1234 17.9764 16.414 17.9353 16.7819C17.8892 16.9896 17.8651 17.2422 17.8359 17.5481ZM18.7264 15.927C18.6859 15.0954 18.9955 15.0085 19.3231 14.9165C19.3684 14.9041 19.4134 14.8905 19.4581 14.8759C19.5004 14.9133 19.5452 14.9478 19.5923 14.9789C20.1626 15.3554 21.1746 15.4002 22.5991 15.1133C22.3975 15.2902 22.0802 15.5127 21.6458 15.7144C21.236 15.9047 20.5501 16.0474 19.8985 16.078C19.1788 16.1116 18.8126 15.9973 18.7264 15.927ZM19.2959 6.6558C19.29 7.0066 19.2417 7.325 19.1905 7.6575C19.1355 8.0151 19.0785 8.3849 19.0641 8.8337C19.0499 9.2705 19.1045 9.7246 19.1573 10.1638C19.2639 11.0508 19.3733 11.9641 18.9498 12.8652C18.8795 12.7406 18.8169 12.6118 18.7622 12.4796C18.7095 12.352 18.5953 12.147 18.4371 11.8634C17.8215 10.7593 16.3797 8.1738 17.1178 7.1188C17.4973 6.5761 18.4586 6.5527 19.2959 6.6558ZM19.5243 13.6695C19.4961 13.6335 19.4676 13.5977 19.439 13.5621L19.4035 13.5177C20.1297 12.3182 19.9877 11.1315 19.8613 10.0792C19.8094 9.6474 19.7604 9.2396 19.7728 8.8566C19.7857 8.4505 19.8394 8.1023 19.8913 7.7655C19.9552 7.3505 20.0201 6.9212 20.0022 6.415C20.0156 6.3619 20.021 6.2992 20.014 6.2248C19.9683 5.7393 19.4141 4.2868 18.2846 2.9718C17.677 2.2645 16.795 1.4746 15.5957 0.932301C16.1208 0.825701 16.8285 0.728801 17.6201 0.746401C19.6716 0.792001 21.2947 1.5599 22.4443 3.0288C22.4687 3.06069 22.491 3.09416 22.511 3.129C23.2341 4.4846 22.2348 9.4041 19.5243 13.6695ZM10.7077 7.5533C10.6827 7.7327 10.3988 7.9758 10.0866 7.9758C10.0595 7.97582 10.0325 7.97395 10.0057 7.9702C9.8184 7.9442 9.6292 7.8262 9.4998 7.6546C9.454 7.5941 9.3795 7.4766 9.3943 7.3702C9.3998 7.3301 9.4204 7.2717 9.4868 7.2214C9.605 7.132 9.8386 7.0988 10.0964 7.1347C10.4127 7.1788 10.739 7.3285 10.7077 7.5533ZM18.6382 7.1419C18.6493 7.2211 18.5892 7.3429 18.4851 7.4521C18.4168 7.5238 18.2731 7.6482 18.0772 7.6753C18.0523 7.67876 18.0273 7.68049 18.0022 7.6805C17.7087 7.6805 17.4608 7.4461 17.4415 7.3088C17.4175 7.1323 17.7056 6.9982 18.0026 6.9568C18.2996 6.9154 18.6137 6.9656 18.6382 7.1419Z" fill="url(#LinearGradient)" fill-rule="evenodd" opacity="1" stroke="none"/>
</g>
</svg>
