<?xml version="1.0" encoding="UTF-8" standalone="no"?>
<!DOCTYPE svg PUBLIC "-//W3C//DTD SVG 1.1//EN" "http://www.w3.org/Graphics/SVG/1.1/DTD/svg11.dtd"
[
<!ATTLIST g
  xmlns:vectornator CDATA #FIXED "http://vectornator.io"
  vectornator:layerName CDATA #IMPLIED >
<!ATTLIST g
  xmlns:vectornator CDATA #FIXED "http://vectornator.io"
  vectornator:mask CDATA #IMPLIED >
<!ATTLIST text
  xmlns:vectornator CDATA #FIXED "http://vectornator.io"
  vectornator:width CDATA #IMPLIED >

<!ATTLIST path
  xmlns:vectornator CDATA #FIXED "http://vectornator.io"
  vectornator:blendMode CDATA #IMPLIED >
<!ATTLIST path
  xmlns:vectornator CDATA #FIXED "http://vectornator.io"
  vectornator:shadowColor CDATA #IMPLIED >
<!ATTLIST path
  xmlns:vectornator CDATA #FIXED "http://vectornator.io"
  vectornator:shadowOpacity CDATA #IMPLIED >
<!ATTLIST path
  xmlns:vectornator CDATA #FIXED "http://vectornator.io"
  vectornator:shadowRadius CDATA #IMPLIED >
<!ATTLIST path
  xmlns:vectornator CDATA #FIXED "http://vectornator.io"
  vectornator:shadowOffset CDATA #IMPLIED >
<!ATTLIST path
  xmlns:vectornator CDATA #FIXED "http://vectornator.io"
  vectornator:shadowAngle CDATA #IMPLIED >

<!ATTLIST image
  xmlns:vectornator CDATA #FIXED "http://vectornator.io"
  vectornator:blendMode CDATA #IMPLIED >
<!ATTLIST image
  xmlns:vectornator CDATA #FIXED "http://vectornator.io"
  vectornator:shadowColor CDATA #IMPLIED >
<!ATTLIST image
  xmlns:vectornator CDATA #FIXED "http://vectornator.io"
  vectornator:shadowOpacity CDATA #IMPLIED >
<!ATTLIST image
  xmlns:vectornator CDATA #FIXED "http://vectornator.io"
  vectornator:shadowRadius CDATA #IMPLIED >
<!ATTLIST image
  xmlns:vectornator CDATA #FIXED "http://vectornator.io"
  vectornator:shadowOffset CDATA #IMPLIED >
<!ATTLIST image
  xmlns:vectornator CDATA #FIXED "http://vectornator.io"
  vectornator:shadowAngle CDATA #IMPLIED >

<!ATTLIST g
  xmlns:vectornator CDATA #FIXED "http://vectornator.io"
  vectornator:blendMode CDATA #IMPLIED >
<!ATTLIST g
  xmlns:vectornator CDATA #FIXED "http://vectornator.io"
  vectornator:shadowColor CDATA #IMPLIED >
<!ATTLIST g
  xmlns:vectornator CDATA #FIXED "http://vectornator.io"
  vectornator:shadowOpacity CDATA #IMPLIED >
<!ATTLIST g
  xmlns:vectornator CDATA #FIXED "http://vectornator.io"
  vectornator:shadowRadius CDATA #IMPLIED >
<!ATTLIST g
  xmlns:vectornator CDATA #FIXED "http://vectornator.io"
  vectornator:shadowOffset CDATA #IMPLIED >
<!ATTLIST g
  xmlns:vectornator CDATA #FIXED "http://vectornator.io"
  vectornator:shadowAngle CDATA #IMPLIED >

<!ENTITY % SVG.filter.extra.content  "| feDropShadow" >
<!ELEMENT feDropShadow EMPTY>
<!ATTLIST feDropShadow
  xmlns:svg CDATA #FIXED "http://www.w3.org/Graphics/SVG/1.1/DTD/svg11.dtd"
  dx CDATA #IMPLIED>
<!ATTLIST feDropShadow
  xmlns:svg CDATA #FIXED "http://www.w3.org/Graphics/SVG/1.1/DTD/svg11.dtd"
  dy CDATA #IMPLIED>
<!ATTLIST feDropShadow
  xmlns:svg CDATA #FIXED "http://www.w3.org/Graphics/SVG/1.1/DTD/svg11.dtd"
  stdDeviation CDATA #IMPLIED>
<!ATTLIST feDropShadow
  xmlns:svg CDATA #FIXED "http://www.w3.org/Graphics/SVG/1.1/DTD/svg11.dtd"
  flood-opacity CDATA #IMPLIED>
<!ATTLIST feDropShadow
  xmlns:svg CDATA #FIXED "http://www.w3.org/Graphics/SVG/1.1/DTD/svg11.dtd"
  in CDATA #IMPLIED>
<!ATTLIST feDropShadow
  xmlns:svg CDATA #FIXED "http://www.w3.org/Graphics/SVG/1.1/DTD/svg11.dtd"
  result CDATA #IMPLIED>
<!ATTLIST feDropShadow
  xmlns:svg CDATA #FIXED "http://www.w3.org/Graphics/SVG/1.1/DTD/svg11.dtd"
  flood-color CDATA #IMPLIED>
]
>
<!-- Created with Vectornator (http://vectornator.io/) -->
<svg height="100%" stroke-miterlimit="10" style="fill-rule:nonzero;clip-rule:evenodd;stroke-linecap:round;stroke-linejoin:round;" version="1.1" viewBox="0 0 824 200" width="100%" xml:space="preserve" xmlns="http://www.w3.org/2000/svg" xmlns:vectornator="http://vectornator.io" xmlns:xlink="http://www.w3.org/1999/xlink">
<defs>
<linearGradient gradientTransform="matrix(1 0 0 1 0 0)" gradientUnits="userSpaceOnUse" id="LinearGradient" x1="210" x2="824" y1="0" y2="0">
<stop offset="0" stop-color="#7c4dff"/>
<stop offset="1" stop-color="#8c9eff"/>
</linearGradient>
<clipPath id="TextBounds">
<rect height="145" width="113" x="60" y="37"/>
</clipPath>
<clipPath id="TextBounds_2">
<rect height="135" width="515.563" x="265" y="37"/>
</clipPath>
<clipPath id="TextBounds_3">
<rect height="135" width="515.563" x="255" y="27"/>
</clipPath>
</defs>
<g id="Untitled" vectornator:layerName="Untitled">
<g opacity="1">
<path d="M0 0L210 0L210 0L210 200L210 200L0 200L0 200L0 0L0 0Z" fill="#555555" fill-rule="evenodd" opacity="1" stroke="none"/>
<path d="M210 0L824 0L824 0L824 200L824 200L210 200L210 200L210 0L210 0Z" fill="url(#LinearGradient)" fill-rule="evenodd" opacity="1" stroke="none"/>
</g>
<g opacity="1">
<g fill="#000000" opacity="0" stroke="none"/>
<g fill="#000000" opacity="0.1" stroke="none">
<path clip-path="url(#TextBounds_2)" d="M370.323 68.0244L349.537 148L337.56 148L320.748 81.6133L304.312 148L292.604 148L271.441 68.0244L282.345 68.0244L299.156 134.519L315.699 68.0244L326.495 68.0244L343.199 135.163L359.903 68.0244L370.323 68.0244Z" fill-rule="evenodd"/>
<path clip-path="url(#TextBounds_2)" d="M438.697 148L386.007 148L386.007 68.0244L438.697 68.0244L438.697 77.4775L396.642 77.4775L396.642 99.3916L438.697 99.3916L438.697 108.845L396.642 108.845L396.642 138.547L438.697 138.547L438.697 148Z" fill-rule="evenodd"/>
<path clip-path="url(#TextBounds_2)" d="M515.88 123.4C515.88 127.375 515.128 130.884 513.624 133.928C512.12 136.971 510.097 139.478 507.555 141.447C504.547 143.811 501.244 145.493 497.645 146.496C494.046 147.499 489.472 148 483.922 148L455.562 148L455.562 68.0244L479.249 68.0244C485.086 68.0244 489.454 68.2393 492.354 68.6689C495.255 69.0986 498.03 69.9938 500.68 71.3545C503.616 72.8942 505.746 74.8726 507.071 77.2896C508.396 79.7065 509.059 82.598 509.059 85.9639C509.059 89.7594 508.092 92.991 506.158 95.6587C504.225 98.3263 501.646 100.466 498.424 102.077L498.424 102.507C503.831 103.617 508.092 105.989 511.207 109.624C514.322 113.258 515.88 117.85 515.88 123.4ZM497.994 87.3604C497.994 85.4268 497.672 83.7975 497.027 82.4727C496.383 81.1478 495.344 80.0736 493.912 79.25C492.229 78.2832 490.188 77.6834 487.789 77.4507C485.39 77.2179 482.418 77.1016 478.873 77.1016L466.197 77.1016L466.197 100.197L479.947 100.197C483.277 100.197 485.927 100.027 487.896 99.687C489.866 99.3468 491.692 98.6396 493.375 97.5654C495.058 96.4912 496.249 95.1037 496.947 93.4028C497.645 91.702 497.994 89.6878 497.994 87.3604ZM504.815 123.83C504.815 120.607 504.332 118.047 503.365 116.149C502.398 114.252 500.644 112.64 498.102 111.315C496.383 110.42 494.297 109.838 491.844 109.57C489.391 109.301 486.41 109.167 482.901 109.167L466.197 109.167L466.197 138.923L480.27 138.923C484.924 138.923 488.738 138.681 491.71 138.198C494.682 137.714 497.117 136.828 499.015 135.539C501.02 134.143 502.488 132.549 503.419 130.759C504.35 128.968 504.815 126.659 504.815 123.83Z" fill-rule="evenodd"/>
<path clip-path="url(#TextBounds_2)" d="M589.088 125.173C589.088 128.288 588.363 131.368 586.913 134.411C585.462 137.455 583.43 140.033 580.816 142.146C577.952 144.437 574.613 146.228 570.799 147.517C566.986 148.806 562.394 149.45 557.022 149.45C551.257 149.45 546.074 148.913 541.473 147.839C536.872 146.765 532.19 145.171 527.428 143.059L527.428 129.738L528.18 129.738C532.226 133.104 536.899 135.7 542.198 137.526C547.498 139.353 552.475 140.266 557.13 140.266C563.718 140.266 568.848 139.03 572.518 136.56C576.188 134.089 578.023 130.795 578.023 126.677C578.023 123.132 577.155 120.518 575.418 118.835C573.682 117.152 571.041 115.845 567.496 114.914C564.811 114.198 561.901 113.607 558.768 113.142C555.635 112.676 552.314 112.085 548.805 111.369C541.715 109.865 536.46 107.296 533.041 103.662C529.621 100.027 527.911 95.2917 527.911 89.4551C527.911 82.7591 530.74 77.2716 536.397 72.9927C542.055 68.7137 549.234 66.5742 557.936 66.5742C563.557 66.5742 568.714 67.1113 573.404 68.1855C578.095 69.2598 582.249 70.5846 585.865 72.1602L585.865 84.7285L585.113 84.7285C582.07 82.1504 578.068 80.0109 573.109 78.3101C568.15 76.6092 563.074 75.7588 557.882 75.7588C552.188 75.7588 547.614 76.9404 544.159 79.3037C540.703 81.667 538.976 84.7106 538.976 88.4346C538.976 91.7646 539.835 94.3786 541.554 96.2764C543.272 98.1742 546.298 99.6243 550.631 100.627C552.923 101.128 556.181 101.737 560.406 102.453C564.632 103.169 568.212 103.903 571.148 104.655C577.092 106.231 581.568 108.612 584.576 111.799C587.584 114.986 589.088 119.444 589.088 125.173Z" fill-rule="evenodd"/>
<path clip-path="url(#TextBounds_2)" d="M634.366 148L602.784 148L602.784 139.836L613.258 139.836L613.258 76.1885L602.784 76.1885L602.784 68.0244L634.366 68.0244L634.366 76.1885L623.893 76.1885L623.893 139.836L634.366 139.836L634.366 148Z" fill-rule="evenodd"/>
<path clip-path="url(#TextBounds_2)" d="M709.508 77.4775L680.934 77.4775L680.934 148L670.299 148L670.299 77.4775L641.725 77.4775L641.725 68.0244L709.508 68.0244L709.508 77.4775Z" fill-rule="evenodd"/>
<path clip-path="url(#TextBounds_2)" d="M772.94 148L720.25 148L720.25 68.0244L772.94 68.0244L772.94 77.4775L730.885 77.4775L730.885 99.3916L772.94 99.3916L772.94 108.845L730.885 108.845L730.885 138.547L772.94 138.547L772.94 148Z" fill-rule="evenodd"/>
</g>
<g fill="#ffffff" opacity="1" stroke="none">
<path clip-path="url(#TextBounds_3)" d="M360.323 58.0244L339.537 138L327.56 138L310.748 71.6133L294.312 138L282.604 138L261.441 58.0244L272.345 58.0244L289.156 124.519L305.699 58.0244L316.495 58.0244L333.199 125.163L349.903 58.0244L360.323 58.0244Z" fill-rule="evenodd"/>
<path clip-path="url(#TextBounds_3)" d="M428.697 138L376.007 138L376.007 58.0244L428.697 58.0244L428.697 67.4775L386.642 67.4775L386.642 89.3916L428.697 89.3916L428.697 98.8447L386.642 98.8447L386.642 128.547L428.697 128.547L428.697 138Z" fill-rule="evenodd"/>
<path clip-path="url(#TextBounds_3)" d="M505.88 113.4C505.88 117.375 505.128 120.884 503.624 123.928C502.12 126.971 500.097 129.478 497.555 131.447C494.547 133.811 491.244 135.493 487.645 136.496C484.046 137.499 479.472 138 473.922 138L445.562 138L445.562 58.0244L469.249 58.0244C475.086 58.0244 479.454 58.2393 482.354 58.6689C485.255 59.0986 488.03 59.9938 490.68 61.3545C493.616 62.8942 495.746 64.8726 497.071 67.2896C498.396 69.7065 499.059 72.598 499.059 75.9639C499.059 79.7594 498.092 82.991 496.158 85.6587C494.225 88.3263 491.646 90.4658 488.424 92.0771L488.424 92.5068C493.831 93.6169 498.092 95.9891 501.207 99.6235C504.322 103.258 505.88 107.85 505.88 113.4ZM487.994 77.3604C487.994 75.4268 487.672 73.7975 487.027 72.4727C486.383 71.1478 485.344 70.0736 483.912 69.25C482.229 68.2832 480.188 67.6834 477.789 67.4507C475.39 67.2179 472.418 67.1016 468.873 67.1016L456.197 67.1016L456.197 90.1973L469.947 90.1973C473.277 90.1973 475.927 90.0272 477.896 89.687C479.866 89.3468 481.692 88.6396 483.375 87.5654C485.058 86.4912 486.249 85.1037 486.947 83.4028C487.645 81.702 487.994 79.6878 487.994 77.3604ZM494.815 113.83C494.815 110.607 494.332 108.047 493.365 106.149C492.398 104.252 490.644 102.64 488.102 101.315C486.383 100.42 484.297 99.8384 481.844 99.5698C479.391 99.3013 476.41 99.167 472.901 99.167L456.197 99.167L456.197 128.923L470.27 128.923C474.924 128.923 478.738 128.681 481.71 128.198C484.682 127.714 487.117 126.828 489.015 125.539C491.02 124.143 492.488 122.549 493.419 120.759C494.35 118.968 494.815 116.659 494.815 113.83Z" fill-rule="evenodd"/>
<path clip-path="url(#TextBounds_3)" d="M579.088 115.173C579.088 118.288 578.363 121.368 576.913 124.411C575.462 127.455 573.43 130.033 570.816 132.146C567.952 134.437 564.613 136.228 560.799 137.517C556.986 138.806 552.394 139.45 547.022 139.45C541.257 139.45 536.074 138.913 531.473 137.839C526.872 136.765 522.19 135.171 517.428 133.059L517.428 119.738L518.18 119.738C522.226 123.104 526.899 125.7 532.198 127.526C537.498 129.353 542.475 130.266 547.13 130.266C553.718 130.266 558.848 129.03 562.518 126.56C566.188 124.089 568.023 120.795 568.023 116.677C568.023 113.132 567.155 110.518 565.418 108.835C563.682 107.152 561.041 105.845 557.496 104.914C554.811 104.198 551.901 103.607 548.768 103.142C545.635 102.676 542.314 102.085 538.805 101.369C531.715 99.8652 526.46 97.2961 523.041 93.6616C519.621 90.0272 517.911 85.2917 517.911 79.4551C517.911 72.7591 520.74 67.2716 526.397 62.9927C532.055 58.7137 539.234 56.5742 547.936 56.5742C553.557 56.5742 558.714 57.1113 563.404 58.1855C568.095 59.2598 572.249 60.5846 575.865 62.1602L575.865 74.7285L575.113 74.7285C572.07 72.1504 568.068 70.0109 563.109 68.3101C558.15 66.6092 553.074 65.7588 547.882 65.7588C542.188 65.7588 537.614 66.9404 534.159 69.3037C530.703 71.667 528.976 74.7106 528.976 78.4346C528.976 81.7646 529.835 84.3786 531.554 86.2764C533.272 88.1742 536.298 89.6243 540.631 90.627C542.923 91.1283 546.181 91.737 550.406 92.4531C554.632 93.1693 558.212 93.9033 561.148 94.6553C567.092 96.2308 571.568 98.612 574.576 101.799C577.584 104.986 579.088 109.444 579.088 115.173Z" fill-rule="evenodd"/>
<path clip-path="url(#TextBounds_3)" d="M624.366 138L592.784 138L592.784 129.836L603.258 129.836L603.258 66.1885L592.784 66.1885L592.784 58.0244L624.366 58.0244L624.366 66.1885L613.893 66.1885L613.893 129.836L624.366 129.836L624.366 138Z" fill-rule="evenodd"/>
<path clip-path="url(#TextBounds_3)" d="M699.508 67.4775L670.934 67.4775L670.934 138L660.299 138L660.299 67.4775L631.725 67.4775L631.725 58.0244L699.508 58.0244L699.508 67.4775Z" fill-rule="evenodd"/>
<path clip-path="url(#TextBounds_3)" d="M762.94 138L710.25 138L710.25 58.0244L762.94 58.0244L762.94 67.4775L720.885 67.4775L720.885 89.3916L762.94 89.3916L762.94 98.8447L720.885 98.8447L720.885 128.547L762.94 128.547L762.94 138Z" fill-rule="evenodd"/>
</g>
</g>
<g opacity="1">
<path d="M98.6211 31.1959C100.822 31.1959 103.044 32.6134 104.238 34.1054C105.431 35.5974 105.255 35.9278 105.357 36.9243C105.453 37.9208 106.209 38.3364 106.209 40.2281C106.209 42.1198 105.357 42.8605 104.76 43.6598C104.163 44.4591 104.509 44.7255 104.014 45.8232C103.513 46.9209 103.385 46.7184 102.985 47.6137C102.586 48.5089 103.641 50.0755 104.685 50.8642C105.73 51.6475 106.699 52.2603 109.684 52.5587C112.668 52.8571 113.323 52.7186 114.815 52.8251C116.307 52.9211 117.229 53.7523 119.515 54.0507C121.806 54.3491 121.908 54.0507 123.794 54.0507C125.686 54.0507 126.256 54.3332 127.95 54.3332C129.64 54.3332 131.947 53.5871 134.03 53.6831C136.125 53.779 141.65 54.2959 143.942 54.2959C146.233 54.2959 148.903 51.9406 151.295 52.0418C153.683 52.1377 155.729 52.6759 155.825 54.4664C155.926 56.2568 154.946 58.5268 153.853 58.9265C152.755 59.3208 150.608 58.5695 149.313 58.5695C148.024 58.5695 146.67 58.7293 146.084 58.7027C145.375 58.6654 144.848 58.2231 144.054 58.4203C143.254 58.6228 140.004 60.0029 138.81 60.0988C137.617 60.2054 135.139 59.9176 134.148 60.1148C133.151 60.3173 129.767 60.9141 128.377 61.01C126.98 61.1166 124.188 60.9034 122.893 61.1059C121.599 61.3031 119.616 61.7081 118.423 61.7081C117.229 61.7081 114.682 60.7915 113.808 61.4203C111.692 62.955 112.017 65.0598 110.973 68.0652C109.977 70.9321 108.373 72.7545 108.176 74.9392C107.973 77.1347 109.369 84.2005 110.067 86.689C110.76 89.1775 112.753 92.46 114.048 96.5365C115.337 100.618 117.138 108.846 117.836 112.23C118.534 115.613 117.858 115.533 118.423 117.436C118.998 119.365 121.705 122.413 123.101 127.187C124.492 131.962 126.016 141.809 126.512 144.399C127.012 146.983 127.231 147.372 127.428 148.166C127.625 148.966 127.188 149.307 127.636 150.031C129.65 153.298 132.155 154.555 131.856 156.543C131.558 158.536 128.382 159.277 126.085 158.93C124.348 158.674 123.298 155.349 122.904 154.353C122.504 153.362 122.92 153.079 122.52 152.381C122.121 151.689 122.046 151.321 121.849 149.53C121.652 147.74 121.934 147.612 121.641 146.429C120.074 140.051 115.545 133.816 114.447 130.07C113.824 127.976 114.186 127.704 113.787 125.812C113.392 123.921 100.987 96.9308 98.424 96.9308C95.7809 96.9308 83.5942 123.606 83.0933 125.295C82.5977 126.99 82.8802 128.695 82.3846 130.086C81.889 131.477 75.9475 142.811 75.1375 146.296C74.6047 148.577 75.0736 149.259 74.7752 150.559C74.4768 151.848 73.3578 157.502 71.2636 158.6C69.1747 159.692 65.4766 158.845 64.9864 157.044C64.2297 154.273 68.5992 152.216 69.0628 149.68C69.4678 147.495 73.3471 127.486 74.9351 123.606C76.5283 119.727 77.5248 120.121 78.2175 117.937C78.4413 117.244 78.4467 115.198 78.8197 112.901C79.635 107.924 81.127 100.677 82.8961 95.8437C85.4859 88.7779 89.0614 81.9305 88.3954 75.0991C88.1129 72.2269 87.1698 71.8699 86.1733 68.5874C85.1768 65.305 83.8926 61.4097 82.6031 61.2125C81.3029 61.0153 80.2105 61.7081 78.6172 61.7081C77.0239 61.7081 73.8427 61.0153 72.649 61.0153C71.4554 61.0153 67.363 60.7489 65.6684 60.7489C63.9739 60.7489 62.7909 60.3173 61.7998 60.4132C60.8033 60.5198 59.8815 60.4505 58.6878 60.4505C57.1958 60.4505 53.2686 58.6387 52.2721 58.6387C51.2756 58.6387 50.9666 58.8306 50.0713 58.8306C49.1761 58.8306 48.3395 58.4949 47.343 58.4949C46.3519 58.4949 44.5082 59.0704 43.5597 59.0704C42.5685 59.0704 40.6822 56.8376 40.9806 54.3491C41.279 51.866 45.2702 52.1111 46.2613 52.1111C47.6628 52.1111 50.9985 54.0028 52.2881 54.1999C53.583 54.4024 60.4836 53.6617 61.9757 53.6617C63.4677 53.6617 67.7307 54.3332 70.0167 54.3332C72.308 54.3332 75.42 54.3864 77.3117 54.088C79.2033 53.7896 80.9352 52.7878 82.1235 52.6919C83.3171 52.5907 88.7204 53.1768 91.7524 51.0613C93.7507 49.6705 93.9425 48.4716 93.8413 47.5764C93.7454 46.6811 93.0953 46.5533 92.5944 45.658C92.0935 44.7628 92.312 44.0328 92.0135 43.436C91.7151 42.8391 90.5801 42.3063 90.5588 40.1162C90.5375 38.4003 90.7453 38.6348 91.3421 36.9403C91.9389 35.2511 91.9603 34.537 93.3564 33.1729C94.3688 32.1924 96.4204 31.1959 98.6211 31.1959" fill="#ffffff" fill-rule="evenodd" opacity="1" stroke="none"/>
<path d="M103.425 35.9658C105.626 35.9658 107.848 37.3833 109.042 38.8753C110.235 40.3673 110.059 40.6977 110.161 41.6942C110.257 42.6906 111.013 43.1063 111.013 44.998C111.013 46.8897 110.161 47.6303 109.564 48.4297C108.967 49.229 109.313 49.4954 108.818 50.5931C108.317 51.6908 108.189 51.4883 107.789 52.3835C107.39 53.2788 108.445 54.8454 109.489 55.6341C110.534 56.4174 111.503 57.0302 114.488 57.3286C117.472 57.627 118.127 57.4884 119.619 57.595C121.111 57.6909 122.033 58.5222 124.319 58.8206C126.61 59.119 126.712 58.8206 128.598 58.8206C130.49 58.8206 131.06 59.103 132.754 59.103C134.443 59.103 136.751 58.357 138.834 58.4529C140.929 58.5489 146.454 59.0657 148.746 59.0657C151.037 59.0657 153.707 56.7105 156.099 56.8117C158.487 56.9076 160.533 57.4458 160.629 59.2363C160.73 61.0267 159.749 63.2967 158.657 63.6964C157.559 64.0907 155.412 63.3394 154.117 63.3394C152.828 63.3394 151.474 63.4992 150.888 63.4726C150.179 63.4353 149.652 62.993 148.858 63.1902C148.058 63.3926 144.808 64.7728 143.614 64.8687C142.421 64.9753 139.943 64.6875 138.952 64.8847C137.955 65.0872 134.571 65.684 133.181 65.7799C131.784 65.8865 128.992 65.6733 127.697 65.8758C126.402 66.073 124.42 66.478 123.227 66.478C122.033 66.478 119.486 65.5614 118.612 66.1902C116.496 67.7249 116.821 69.8297 115.777 72.8351C114.781 75.7019 113.177 77.5244 112.979 79.7091C112.777 81.9046 114.173 88.9704 114.871 91.4589C115.564 93.9474 117.557 97.2299 118.852 101.306C120.141 105.388 121.942 113.616 122.64 116.999C123.338 120.383 122.662 120.303 123.227 122.206C123.802 124.135 126.509 127.183 127.905 131.957C129.296 136.732 130.82 146.579 131.316 149.169C131.816 151.753 132.035 152.142 132.232 152.936C132.429 153.735 131.992 154.076 132.44 154.801C134.454 158.068 136.959 159.325 136.66 161.313C136.362 163.306 133.186 164.046 130.889 163.7C129.152 163.444 128.102 160.119 127.708 159.123C127.308 158.132 127.724 157.849 127.324 157.151C126.925 156.458 126.85 156.091 126.653 154.3C126.456 152.51 126.738 152.382 126.445 151.199C124.878 144.821 120.349 138.586 119.251 134.84C118.628 132.746 118.99 132.474 118.591 130.582C118.196 128.691 105.791 101.701 103.228 101.701C100.585 101.701 88.3982 128.376 87.8973 130.065C87.4017 131.76 87.6841 133.465 87.1886 134.856C86.693 136.247 80.7515 147.581 79.9415 151.066C79.4087 153.346 79.8776 154.029 79.5792 155.329C79.2808 156.618 78.1617 162.272 76.0676 163.37C73.9787 164.462 70.2806 163.615 69.7904 161.814C69.0337 159.043 73.4032 156.986 73.8668 154.45C74.2718 152.265 78.1511 132.255 79.739 128.376C81.3323 124.497 82.3288 124.891 83.0215 122.706C83.2453 122.014 83.2507 119.967 83.6237 117.671C84.439 112.694 85.931 105.447 87.7001 100.614C90.2899 93.5478 93.8654 86.7004 93.1993 79.869C92.9169 76.9968 91.9737 76.6398 90.9773 73.3573C89.9808 70.0748 88.6966 66.1796 87.407 65.9824C86.1068 65.7852 85.0145 66.478 83.4212 66.478C81.8279 66.478 78.6467 65.7852 77.453 65.7852C76.2594 65.7852 72.167 65.5188 70.4724 65.5188C68.7779 65.5188 67.5949 65.0872 66.6038 65.1831C65.6073 65.2897 64.6855 65.2204 63.4918 65.2204C61.9998 65.2204 58.0725 63.4086 57.0761 63.4086C56.0796 63.4086 55.7705 63.6005 54.8753 63.6005C53.9801 63.6005 53.1435 63.2648 52.147 63.2648C51.1559 63.2648 49.3121 63.8403 48.3636 63.8403C47.3725 63.8403 45.4861 61.6075 45.7845 59.119C46.083 56.6359 50.0742 56.881 51.0653 56.881C52.4667 56.881 55.8025 58.7727 57.0921 58.9698C58.3869 59.1723 65.2876 58.4316 66.7796 58.4316C68.2717 58.4316 72.5346 59.103 74.8206 59.103C77.112 59.103 80.2239 59.1563 82.1156 58.8579C84.0073 58.5595 85.7392 57.5577 86.9275 57.4618C88.1211 57.3606 93.5244 57.9467 96.5564 55.8312C98.5547 54.4404 98.7465 53.2415 98.6453 52.3462C98.5494 51.451 97.8993 51.3231 97.3984 50.4279C96.8975 49.5327 97.1159 48.8027 96.8175 48.2058C96.5191 47.609 95.3841 47.0762 95.3628 44.8861C95.3415 43.1702 95.5493 43.4047 96.1461 41.7102C96.7429 40.021 96.7642 39.3069 98.1604 37.9428C99.1728 36.9623 101.224 35.9658 103.425 35.9658" fill="#ffffff" fill-rule="evenodd" opacity="0.1" stroke="none"/>
</g>
</g>
</svg>
