<?xml version="1.0" encoding="UTF-8" standalone="no"?>
<!DOCTYPE svg PUBLIC "-//W3C//DTD SVG 1.1//EN" "http://www.w3.org/Graphics/SVG/1.1/DTD/svg11.dtd"
[
<!ATTLIST g
  xmlns:vectornator CDATA #FIXED "http://vectornator.io"
  vectornator:layerName CDATA #IMPLIED >
<!ATTLIST g
  xmlns:vectornator CDATA #FIXED "http://vectornator.io"
  vectornator:mask CDATA #IMPLIED >
<!ATTLIST text
  xmlns:vectornator CDATA #FIXED "http://vectornator.io"
  vectornator:width CDATA #IMPLIED >

<!ATTLIST path
  xmlns:vectornator CDATA #FIXED "http://vectornator.io"
  vectornator:blendMode CDATA #IMPLIED >
<!ATTLIST path
  xmlns:vectornator CDATA #FIXED "http://vectornator.io"
  vectornator:shadowColor CDATA #IMPLIED >
<!ATTLIST path
  xmlns:vectornator CDATA #FIXED "http://vectornator.io"
  vectornator:shadowOpacity CDATA #IMPLIED >
<!ATTLIST path
  xmlns:vectornator CDATA #FIXED "http://vectornator.io"
  vectornator:shadowRadius CDATA #IMPLIED >
<!ATTLIST path
  xmlns:vectornator CDATA #FIXED "http://vectornator.io"
  vectornator:shadowOffset CDATA #IMPLIED >
<!ATTLIST path
  xmlns:vectornator CDATA #FIXED "http://vectornator.io"
  vectornator:shadowAngle CDATA #IMPLIED >

<!ATTLIST image
  xmlns:vectornator CDATA #FIXED "http://vectornator.io"
  vectornator:blendMode CDATA #IMPLIED >
<!ATTLIST image
  xmlns:vectornator CDATA #FIXED "http://vectornator.io"
  vectornator:shadowColor CDATA #IMPLIED >
<!ATTLIST image
  xmlns:vectornator CDATA #FIXED "http://vectornator.io"
  vectornator:shadowOpacity CDATA #IMPLIED >
<!ATTLIST image
  xmlns:vectornator CDATA #FIXED "http://vectornator.io"
  vectornator:shadowRadius CDATA #IMPLIED >
<!ATTLIST image
  xmlns:vectornator CDATA #FIXED "http://vectornator.io"
  vectornator:shadowOffset CDATA #IMPLIED >
<!ATTLIST image
  xmlns:vectornator CDATA #FIXED "http://vectornator.io"
  vectornator:shadowAngle CDATA #IMPLIED >

<!ATTLIST g
  xmlns:vectornator CDATA #FIXED "http://vectornator.io"
  vectornator:blendMode CDATA #IMPLIED >
<!ATTLIST g
  xmlns:vectornator CDATA #FIXED "http://vectornator.io"
  vectornator:shadowColor CDATA #IMPLIED >
<!ATTLIST g
  xmlns:vectornator CDATA #FIXED "http://vectornator.io"
  vectornator:shadowOpacity CDATA #IMPLIED >
<!ATTLIST g
  xmlns:vectornator CDATA #FIXED "http://vectornator.io"
  vectornator:shadowRadius CDATA #IMPLIED >
<!ATTLIST g
  xmlns:vectornator CDATA #FIXED "http://vectornator.io"
  vectornator:shadowOffset CDATA #IMPLIED >
<!ATTLIST g
  xmlns:vectornator CDATA #FIXED "http://vectornator.io"
  vectornator:shadowAngle CDATA #IMPLIED >

<!ENTITY % SVG.filter.extra.content  "| feDropShadow" >
<!ELEMENT feDropShadow EMPTY>
<!ATTLIST feDropShadow
  xmlns:svg CDATA #FIXED "http://www.w3.org/Graphics/SVG/1.1/DTD/svg11.dtd"
  dx CDATA #IMPLIED>
<!ATTLIST feDropShadow
  xmlns:svg CDATA #FIXED "http://www.w3.org/Graphics/SVG/1.1/DTD/svg11.dtd"
  dy CDATA #IMPLIED>
<!ATTLIST feDropShadow
  xmlns:svg CDATA #FIXED "http://www.w3.org/Graphics/SVG/1.1/DTD/svg11.dtd"
  stdDeviation CDATA #IMPLIED>
<!ATTLIST feDropShadow
  xmlns:svg CDATA #FIXED "http://www.w3.org/Graphics/SVG/1.1/DTD/svg11.dtd"
  flood-opacity CDATA #IMPLIED>
<!ATTLIST feDropShadow
  xmlns:svg CDATA #FIXED "http://www.w3.org/Graphics/SVG/1.1/DTD/svg11.dtd"
  in CDATA #IMPLIED>
<!ATTLIST feDropShadow
  xmlns:svg CDATA #FIXED "http://www.w3.org/Graphics/SVG/1.1/DTD/svg11.dtd"
  result CDATA #IMPLIED>
<!ATTLIST feDropShadow
  xmlns:svg CDATA #FIXED "http://www.w3.org/Graphics/SVG/1.1/DTD/svg11.dtd"
  flood-color CDATA #IMPLIED>
]
>
<!-- Created with Vectornator (http://vectornator.io/) -->
<svg height="100%" stroke-miterlimit="10" style="fill-rule:nonzero;clip-rule:evenodd;stroke-linecap:round;stroke-linejoin:round;" version="1.1" viewBox="0 0 824 200" width="100%" xml:space="preserve" xmlns="http://www.w3.org/2000/svg" xmlns:vectornator="http://vectornator.io" xmlns:xlink="http://www.w3.org/1999/xlink">
<defs>
<linearGradient gradientTransform="matrix(1 0 0 1 0 0)" gradientUnits="userSpaceOnUse" id="LinearGradient" x1="210" x2="824" y1="0" y2="0">
<stop offset="0" stop-color="#7c4dff"/>
<stop offset="1" stop-color="#8c9eff"/>
</linearGradient>
<clipPath id="TextBounds">
<rect height="135" width="515.563" x="265" y="37"/>
</clipPath>
<clipPath id="TextBounds_2">
<rect height="135" width="515.563" x="255" y="27"/>
</clipPath>
</defs>
<g id="Untitled" vectornator:layerName="Untitled">
<g opacity="1">
<path d="M0 0L210 0L210 0L210 200L210 200L0 200L0 200L0 0L0 0Z" fill="#555555" fill-rule="evenodd" opacity="1" stroke="none"/>
<path d="M210 0L824 0L824 0L824 200L824 200L210 200L210 200L210 0L210 0Z" fill="url(#LinearGradient)" fill-rule="evenodd" opacity="1" stroke="none"/>
</g>
<g opacity="1">
<g fill="#000000" opacity="0.1" stroke="none">
<path clip-path="url(#TextBounds)" d="M370.323 68.0244L349.537 148L337.56 148L320.748 81.6133L304.312 148L292.604 148L271.441 68.0244L282.345 68.0244L299.156 134.519L315.699 68.0244L326.495 68.0244L343.199 135.163L359.903 68.0244L370.323 68.0244Z" fill-rule="evenodd"/>
<path clip-path="url(#TextBounds)" d="M438.697 148L386.007 148L386.007 68.0244L438.697 68.0244L438.697 77.4775L396.642 77.4775L396.642 99.3916L438.697 99.3916L438.697 108.845L396.642 108.845L396.642 138.547L438.697 138.547L438.697 148Z" fill-rule="evenodd"/>
<path clip-path="url(#TextBounds)" d="M515.88 123.4C515.88 127.375 515.128 130.884 513.624 133.928C512.12 136.971 510.097 139.478 507.555 141.447C504.547 143.811 501.244 145.493 497.645 146.496C494.046 147.499 489.472 148 483.922 148L455.562 148L455.562 68.0244L479.249 68.0244C485.086 68.0244 489.454 68.2393 492.354 68.6689C495.255 69.0986 498.03 69.9938 500.68 71.3545C503.616 72.8942 505.746 74.8726 507.071 77.2896C508.396 79.7065 509.059 82.598 509.059 85.9639C509.059 89.7594 508.092 92.991 506.158 95.6587C504.225 98.3263 501.646 100.466 498.424 102.077L498.424 102.507C503.831 103.617 508.092 105.989 511.207 109.624C514.322 113.258 515.88 117.85 515.88 123.4ZM497.994 87.3604C497.994 85.4268 497.672 83.7975 497.027 82.4727C496.383 81.1478 495.344 80.0736 493.912 79.25C492.229 78.2832 490.188 77.6834 487.789 77.4507C485.39 77.2179 482.418 77.1016 478.873 77.1016L466.197 77.1016L466.197 100.197L479.947 100.197C483.277 100.197 485.927 100.027 487.896 99.687C489.866 99.3468 491.692 98.6396 493.375 97.5654C495.058 96.4912 496.249 95.1037 496.947 93.4028C497.645 91.702 497.994 89.6878 497.994 87.3604ZM504.815 123.83C504.815 120.607 504.332 118.047 503.365 116.149C502.398 114.252 500.644 112.64 498.102 111.315C496.383 110.42 494.297 109.838 491.844 109.57C489.391 109.301 486.41 109.167 482.901 109.167L466.197 109.167L466.197 138.923L480.27 138.923C484.924 138.923 488.738 138.681 491.71 138.198C494.682 137.714 497.117 136.828 499.015 135.539C501.02 134.143 502.488 132.549 503.419 130.759C504.35 128.968 504.815 126.659 504.815 123.83Z" fill-rule="evenodd"/>
<path clip-path="url(#TextBounds)" d="M589.088 125.173C589.088 128.288 588.363 131.368 586.913 134.411C585.462 137.455 583.43 140.033 580.816 142.146C577.952 144.437 574.613 146.228 570.799 147.517C566.986 148.806 562.394 149.45 557.022 149.45C551.257 149.45 546.074 148.913 541.473 147.839C536.872 146.765 532.19 145.171 527.428 143.059L527.428 129.738L528.18 129.738C532.226 133.104 536.899 135.7 542.198 137.526C547.498 139.353 552.475 140.266 557.13 140.266C563.718 140.266 568.848 139.03 572.518 136.56C576.188 134.089 578.023 130.795 578.023 126.677C578.023 123.132 577.155 120.518 575.418 118.835C573.682 117.152 571.041 115.845 567.496 114.914C564.811 114.198 561.901 113.607 558.768 113.142C555.635 112.676 552.314 112.085 548.805 111.369C541.715 109.865 536.46 107.296 533.041 103.662C529.621 100.027 527.911 95.2917 527.911 89.4551C527.911 82.7591 530.74 77.2716 536.397 72.9927C542.055 68.7137 549.234 66.5742 557.936 66.5742C563.557 66.5742 568.714 67.1113 573.404 68.1855C578.095 69.2598 582.249 70.5846 585.865 72.1602L585.865 84.7285L585.113 84.7285C582.07 82.1504 578.068 80.0109 573.109 78.3101C568.15 76.6092 563.074 75.7588 557.882 75.7588C552.188 75.7588 547.614 76.9404 544.159 79.3037C540.703 81.667 538.976 84.7106 538.976 88.4346C538.976 91.7646 539.835 94.3786 541.554 96.2764C543.272 98.1742 546.298 99.6243 550.631 100.627C552.923 101.128 556.181 101.737 560.406 102.453C564.632 103.169 568.212 103.903 571.148 104.655C577.092 106.231 581.568 108.612 584.576 111.799C587.584 114.986 589.088 119.444 589.088 125.173Z" fill-rule="evenodd"/>
<path clip-path="url(#TextBounds)" d="M634.366 148L602.784 148L602.784 139.836L613.258 139.836L613.258 76.1885L602.784 76.1885L602.784 68.0244L634.366 68.0244L634.366 76.1885L623.893 76.1885L623.893 139.836L634.366 139.836L634.366 148Z" fill-rule="evenodd"/>
<path clip-path="url(#TextBounds)" d="M709.508 77.4775L680.934 77.4775L680.934 148L670.299 148L670.299 77.4775L641.725 77.4775L641.725 68.0244L709.508 68.0244L709.508 77.4775Z" fill-rule="evenodd"/>
<path clip-path="url(#TextBounds)" d="M772.94 148L720.25 148L720.25 68.0244L772.94 68.0244L772.94 77.4775L730.885 77.4775L730.885 99.3916L772.94 99.3916L772.94 108.845L730.885 108.845L730.885 138.547L772.94 138.547L772.94 148Z" fill-rule="evenodd"/>
</g>
<g fill="#ffffff" opacity="1" stroke="none">
<path clip-path="url(#TextBounds_2)" d="M360.323 58.0244L339.537 138L327.56 138L310.748 71.6133L294.312 138L282.604 138L261.441 58.0244L272.345 58.0244L289.156 124.519L305.699 58.0244L316.495 58.0244L333.199 125.163L349.903 58.0244L360.323 58.0244Z" fill-rule="evenodd"/>
<path clip-path="url(#TextBounds_2)" d="M428.697 138L376.007 138L376.007 58.0244L428.697 58.0244L428.697 67.4775L386.642 67.4775L386.642 89.3916L428.697 89.3916L428.697 98.8447L386.642 98.8447L386.642 128.547L428.697 128.547L428.697 138Z" fill-rule="evenodd"/>
<path clip-path="url(#TextBounds_2)" d="M505.88 113.4C505.88 117.375 505.128 120.884 503.624 123.928C502.12 126.971 500.097 129.478 497.555 131.447C494.547 133.811 491.244 135.493 487.645 136.496C484.046 137.499 479.472 138 473.922 138L445.562 138L445.562 58.0244L469.249 58.0244C475.086 58.0244 479.454 58.2393 482.354 58.6689C485.255 59.0986 488.03 59.9938 490.68 61.3545C493.616 62.8942 495.746 64.8726 497.071 67.2896C498.396 69.7065 499.059 72.598 499.059 75.9639C499.059 79.7594 498.092 82.991 496.158 85.6587C494.225 88.3263 491.646 90.4658 488.424 92.0771L488.424 92.5068C493.831 93.6169 498.092 95.9891 501.207 99.6235C504.322 103.258 505.88 107.85 505.88 113.4ZM487.994 77.3604C487.994 75.4268 487.672 73.7975 487.027 72.4727C486.383 71.1478 485.344 70.0736 483.912 69.25C482.229 68.2832 480.188 67.6834 477.789 67.4507C475.39 67.2179 472.418 67.1016 468.873 67.1016L456.197 67.1016L456.197 90.1973L469.947 90.1973C473.277 90.1973 475.927 90.0272 477.896 89.687C479.866 89.3468 481.692 88.6396 483.375 87.5654C485.058 86.4912 486.249 85.1037 486.947 83.4028C487.645 81.702 487.994 79.6878 487.994 77.3604ZM494.815 113.83C494.815 110.607 494.332 108.047 493.365 106.149C492.398 104.252 490.644 102.64 488.102 101.315C486.383 100.42 484.297 99.8384 481.844 99.5698C479.391 99.3013 476.41 99.167 472.901 99.167L456.197 99.167L456.197 128.923L470.27 128.923C474.924 128.923 478.738 128.681 481.71 128.198C484.682 127.714 487.117 126.828 489.015 125.539C491.02 124.143 492.488 122.549 493.419 120.759C494.35 118.968 494.815 116.659 494.815 113.83Z" fill-rule="evenodd"/>
<path clip-path="url(#TextBounds_2)" d="M579.088 115.173C579.088 118.288 578.363 121.368 576.913 124.411C575.462 127.455 573.43 130.033 570.816 132.146C567.952 134.437 564.613 136.228 560.799 137.517C556.986 138.806 552.394 139.45 547.022 139.45C541.257 139.45 536.074 138.913 531.473 137.839C526.872 136.765 522.19 135.171 517.428 133.059L517.428 119.738L518.18 119.738C522.226 123.104 526.899 125.7 532.198 127.526C537.498 129.353 542.475 130.266 547.13 130.266C553.718 130.266 558.848 129.03 562.518 126.56C566.188 124.089 568.023 120.795 568.023 116.677C568.023 113.132 567.155 110.518 565.418 108.835C563.682 107.152 561.041 105.845 557.496 104.914C554.811 104.198 551.901 103.607 548.768 103.142C545.635 102.676 542.314 102.085 538.805 101.369C531.715 99.8652 526.46 97.2961 523.041 93.6616C519.621 90.0272 517.911 85.2917 517.911 79.4551C517.911 72.7591 520.74 67.2716 526.397 62.9927C532.055 58.7137 539.234 56.5742 547.936 56.5742C553.557 56.5742 558.714 57.1113 563.404 58.1855C568.095 59.2598 572.249 60.5846 575.865 62.1602L575.865 74.7285L575.113 74.7285C572.07 72.1504 568.068 70.0109 563.109 68.3101C558.15 66.6092 553.074 65.7588 547.882 65.7588C542.188 65.7588 537.614 66.9404 534.159 69.3037C530.703 71.667 528.976 74.7106 528.976 78.4346C528.976 81.7646 529.835 84.3786 531.554 86.2764C533.272 88.1742 536.298 89.6243 540.631 90.627C542.923 91.1283 546.181 91.737 550.406 92.4531C554.632 93.1693 558.212 93.9033 561.148 94.6553C567.092 96.2308 571.568 98.612 574.576 101.799C577.584 104.986 579.088 109.444 579.088 115.173Z" fill-rule="evenodd"/>
<path clip-path="url(#TextBounds_2)" d="M624.366 138L592.784 138L592.784 129.836L603.258 129.836L603.258 66.1885L592.784 66.1885L592.784 58.0244L624.366 58.0244L624.366 66.1885L613.893 66.1885L613.893 129.836L624.366 129.836L624.366 138Z" fill-rule="evenodd"/>
<path clip-path="url(#TextBounds_2)" d="M699.508 67.4775L670.934 67.4775L670.934 138L660.299 138L660.299 67.4775L631.725 67.4775L631.725 58.0244L699.508 58.0244L699.508 67.4775Z" fill-rule="evenodd"/>
<path clip-path="url(#TextBounds_2)" d="M762.94 138L710.25 138L710.25 58.0244L762.94 58.0244L762.94 67.4775L720.885 67.4775L720.885 89.3916L762.94 89.3916L762.94 98.8447L720.885 98.8447L720.885 128.547L762.94 128.547L762.94 138Z" fill-rule="evenodd"/>
</g>
<g opacity="1">
<path d="M121.344 103.829C121.344 111.288 115.3 117.335 107.841 117.338C100.38 117.338 94.3321 111.29 94.3321 103.829C94.3321 96.3705 100.377 90.3232 107.835 90.3199C115.296 90.3199 121.344 96.3681 121.344 103.829ZM137.343 39.2436C129.211 39.2436 118.571 45.0436 107.811 55.0849C97.0569 45.098 86.4114 39.3644 78.2854 39.3644C75.8083 39.3644 73.5548 39.9263 71.6033 41.044C63.296 45.8351 61.4352 60.764 65.7248 79.4992C47.3339 85.1784 35.3714 94.259 35.3714 103.829C35.3714 113.435 47.3944 122.54 65.8396 128.177C61.5862 146.985 63.4833 161.938 71.8087 166.723C73.7421 167.853 75.9775 168.384 78.4667 168.384C86.5927 168.384 97.2381 162.584 107.998 152.531C118.752 162.524 129.398 168.257 137.524 168.257C140.001 168.257 142.255 167.714 144.206 166.596C152.507 161.811 154.374 146.882 150.085 128.141C168.409 122.51 180.371 113.411 180.371 103.829C180.371 94.2228 168.349 85.118 149.903 79.469C154.157 60.6794 152.26 45.7142 143.934 40.9232C142.013 39.8115 139.777 39.2496 137.337 39.2436L137.343 39.2436ZM137.312 45.829L137.312 45.8653C138.672 45.8653 139.765 46.1311 140.684 46.6326C144.707 48.9405 146.454 57.719 145.094 69.0109C144.768 71.7901 144.236 74.7203 143.584 77.7109C137.784 76.2851 131.464 75.1915 124.812 74.4847C120.825 69.0169 116.686 64.0507 112.517 59.7007C122.136 50.759 131.168 45.8532 137.319 45.8351L137.312 45.829ZM78.2854 45.9499C84.3996 45.9499 93.4742 50.8315 103.117 59.7249C98.9721 64.0749 94.8396 69.0109 90.9125 74.4786C84.2244 75.1855 77.8987 76.279 72.1048 77.729C71.4281 74.7686 70.9267 71.9049 70.5702 69.1499C69.1806 57.864 70.8964 49.0915 74.8839 46.7534C76.0319 46.2097 77.3006 45.9861 78.2854 45.9559L78.2854 45.9499ZM107.781 64.3769C110.53 67.2044 113.279 70.3703 115.997 73.8261C113.339 73.7053 110.62 73.6207 107.871 73.6207C105.092 73.6207 102.343 73.6811 99.6548 73.8261C102.313 70.3703 105.062 67.2044 107.781 64.3709L107.781 64.3769ZM107.871 80.2424C112.342 80.2424 116.795 80.4478 121.175 80.8042C123.628 84.3205 126.021 88.0724 128.322 92.0417C130.57 95.9084 132.612 99.8355 134.473 103.799C132.612 107.756 130.57 111.713 128.353 115.58C126.057 119.568 123.682 123.362 121.224 126.878C116.825 127.259 112.366 127.47 107.871 127.47C103.401 127.47 98.9479 127.259 94.5677 126.908C92.1148 123.392 89.7223 119.634 87.4204 115.671C85.1729 111.804 83.1308 107.877 81.27 103.914C83.1006 99.9442 85.1729 95.9809 87.3902 92.1082C89.686 88.1207 92.0604 84.3386 94.5194 80.8224C98.9177 80.4357 103.376 80.2303 107.871 80.2303L107.871 80.2424ZM85.91 81.7769C84.46 84.0547 83.01 86.3867 81.6567 88.7853C80.2973 91.1415 79.0285 93.5099 77.8202 95.8782C76.2192 91.9149 74.8598 87.9636 73.736 84.1151C77.6027 83.2088 81.6808 82.4053 85.91 81.783L85.91 81.7769ZM129.772 81.7769C133.971 82.3992 138.019 83.1665 141.892 84.1151C140.805 87.9334 139.445 91.8605 137.905 95.7936C136.696 93.4374 135.427 91.063 134.038 88.7007C132.679 86.3324 131.229 84.0244 129.779 81.7769L129.772 81.7769ZM148.278 85.8551C151.202 86.7613 153.981 87.7703 156.585 88.8638C167.05 93.3347 173.816 99.183 173.816 103.823C173.786 108.463 167.019 114.335 156.555 118.776C154.018 119.864 151.239 120.842 148.369 121.755C146.677 115.967 144.466 109.937 141.723 103.75C144.442 97.6061 146.617 91.6067 148.278 85.843L148.278 85.8551ZM67.35 85.8792C69.0296 91.6792 71.2469 97.7028 73.9958 103.883C71.2771 110.028 69.09 116.027 67.4346 121.791C64.5104 120.885 61.7312 119.87 59.1575 118.77C48.6933 114.317 41.9267 108.463 41.9267 103.823C41.9267 99.183 48.6933 93.2984 59.1575 88.8638C61.695 87.7763 64.4742 86.7976 67.35 85.8792ZM137.905 111.738C139.506 115.707 140.865 119.664 141.989 123.507C138.122 124.455 134.038 125.259 129.809 125.863C131.259 123.597 132.709 121.259 134.068 118.867C135.427 116.51 136.696 114.106 137.911 111.738L137.905 111.738ZM77.8202 111.858C79.0285 114.227 80.2973 116.589 81.6869 118.957C83.0765 121.314 84.4962 123.622 85.9462 125.863C81.7473 125.247 77.6994 124.473 73.8267 123.531C74.9142 119.725 76.2796 115.785 77.8142 111.852L77.8202 111.858ZM143.638 129.905C144.315 132.883 144.846 135.753 145.173 138.502C146.562 149.788 144.846 158.56 140.859 160.905C139.971 161.448 138.817 161.678 137.457 161.678C131.343 161.678 122.269 156.802 112.626 147.903C116.771 143.553 120.903 138.623 124.83 133.161C131.519 132.448 137.844 131.349 143.638 129.899L143.638 129.905ZM72.1652 129.965C77.9652 131.379 84.2848 132.473 90.9367 133.179C94.9242 138.647 99.0627 143.613 103.231 147.957C93.595 156.917 84.5506 161.823 78.4002 161.823C77.071 161.793 75.9473 161.521 75.0592 161.025C71.0354 158.73 69.2894 149.945 70.6487 138.653C70.975 135.874 71.5067 132.95 72.1592 129.965L72.1652 129.965ZM99.7152 133.832C102.374 133.953 105.092 134.037 107.841 134.037C110.62 134.037 113.369 133.977 116.058 133.832C113.4 137.288 110.651 140.448 107.932 143.287C105.183 140.448 102.434 137.288 99.7152 133.832Z" fill="#ffffff" fill-rule="evenodd" opacity="0.1" stroke="none"/>
<path d="M111.344 93.829C111.344 101.288 105.3 107.335 97.8412 107.338C90.3803 107.338 84.3321 101.29 84.3321 93.829C84.3321 86.3705 90.3766 80.3232 97.8352 80.3199C105.296 80.3199 111.344 86.3681 111.344 93.829ZM127.343 29.2436C119.211 29.2436 108.571 35.0436 97.811 45.0849C87.0569 35.098 76.4114 29.3644 68.2854 29.3644C65.8083 29.3644 63.5548 29.9263 61.6033 31.044C53.296 35.8351 51.4352 50.764 55.7248 69.4992C37.3339 75.1784 25.3714 84.259 25.3714 93.829C25.3714 103.435 37.3944 112.54 55.8396 118.177C51.5862 136.985 53.4833 151.938 61.8087 156.723C63.7421 157.853 65.9775 158.384 68.4667 158.384C76.5927 158.384 87.2381 152.584 97.9983 142.531C108.752 152.524 119.398 158.257 127.524 158.257C130.001 158.257 132.255 157.714 134.206 156.596C142.507 151.811 144.374 136.882 140.085 118.141C158.409 112.51 170.371 103.411 170.371 93.829C170.371 84.2228 158.349 75.118 139.903 69.469C144.157 50.6794 142.26 35.7142 133.934 30.9232C132.013 29.8115 129.777 29.2496 127.337 29.2436L127.343 29.2436ZM127.312 35.829L127.312 35.8653C128.672 35.8653 129.765 36.1311 130.684 36.6326C134.707 38.9405 136.454 47.719 135.094 59.0109C134.768 61.7901 134.236 64.7203 133.584 67.7109C127.784 66.2851 121.464 65.1915 114.812 64.4847C110.825 59.0169 106.686 54.0507 102.517 49.7007C112.136 40.759 121.168 35.8532 127.319 35.8351L127.312 35.829ZM68.2854 35.9499C74.3996 35.9499 83.4742 40.8315 93.1167 49.7249C88.9721 54.0749 84.8396 59.0109 80.9125 64.4786C74.2244 65.1855 67.8987 66.279 62.1048 67.729C61.4281 64.7686 60.9267 61.9049 60.5702 59.1499C59.1806 47.864 60.8964 39.0915 64.8839 36.7534C66.0319 36.2097 67.3006 35.9861 68.2854 35.9559L68.2854 35.9499ZM97.7808 54.3769C100.53 57.2044 103.279 60.3703 105.997 63.8261C103.339 63.7053 100.62 63.6207 97.8714 63.6207C95.0923 63.6207 92.3433 63.6811 89.6548 63.8261C92.3131 60.3703 95.0621 57.2044 97.7808 54.3709L97.7808 54.3769ZM97.8714 70.2424C102.342 70.2424 106.795 70.4478 111.175 70.8042C113.628 74.3205 116.021 78.0724 118.322 82.0417C120.57 85.9084 122.612 89.8355 124.473 93.7988C122.612 97.7561 120.57 101.713 118.353 105.58C116.057 109.568 113.682 113.362 111.224 116.878C106.825 117.259 102.366 117.47 97.8714 117.47C93.4006 117.47 88.9479 117.259 84.5677 116.908C82.1148 113.392 79.7223 109.634 77.4204 105.671C75.1729 101.804 73.1308 97.8769 71.27 93.9136C73.1006 89.9442 75.1729 85.9809 77.3902 82.1082C79.686 78.1207 82.0604 74.3386 84.5194 70.8224C88.9177 70.4357 93.3764 70.2303 97.8714 70.2303L97.8714 70.2424ZM75.91 71.7769C74.46 74.0547 73.01 76.3867 71.6567 78.7853C70.2973 81.1415 69.0285 83.5099 67.8202 85.8782C66.2192 81.9149 64.8598 77.9636 63.736 74.1151C67.6027 73.2088 71.6808 72.4053 75.91 71.783L75.91 71.7769ZM119.772 71.7769C123.971 72.3992 128.019 73.1665 131.892 74.1151C130.805 77.9334 129.445 81.8605 127.905 85.7936C126.696 83.4374 125.427 81.063 124.038 78.7007C122.679 76.3324 121.229 74.0244 119.779 71.7769L119.772 71.7769ZM138.278 75.8551C141.202 76.7613 143.981 77.7703 146.585 78.8638C157.05 83.3347 163.816 89.183 163.816 93.823C163.786 98.463 157.019 104.335 146.555 108.776C144.018 109.864 141.239 110.842 138.369 111.755C136.677 105.967 134.466 99.9372 131.723 93.7505C134.442 87.6061 136.617 81.6067 138.278 75.843L138.278 75.8551ZM57.35 75.8792C59.0296 81.6792 61.2469 87.7028 63.9958 93.8834C61.2771 100.028 59.09 106.027 57.4346 111.791C54.5104 110.885 51.7312 109.87 49.1575 108.77C38.6933 104.317 31.9267 98.463 31.9267 93.823C31.9267 89.183 38.6933 83.2984 49.1575 78.8638C51.695 77.7763 54.4742 76.7976 57.35 75.8792ZM127.905 101.738C129.506 105.707 130.865 109.664 131.989 113.507C128.122 114.455 124.038 115.259 119.809 115.863C121.259 113.597 122.709 111.259 124.068 108.867C125.427 106.51 126.696 104.106 127.911 101.738L127.905 101.738ZM67.8202 101.858C69.0285 104.227 70.2973 106.589 71.6869 108.957C73.0765 111.314 74.4962 113.622 75.9462 115.863C71.7473 115.247 67.6994 114.473 63.8267 113.531C64.9142 109.725 66.2796 105.785 67.8142 101.852L67.8202 101.858ZM133.638 119.905C134.315 122.883 134.846 125.753 135.173 128.502C136.562 139.788 134.846 148.56 130.859 150.905C129.971 151.448 128.817 151.678 127.457 151.678C121.343 151.678 112.269 146.802 102.626 137.903C106.771 133.553 110.903 128.623 114.83 123.161C121.519 122.448 127.844 121.349 133.638 119.899L133.638 119.905ZM62.1652 119.965C67.9652 121.379 74.2848 122.473 80.9367 123.179C84.9242 128.647 89.0627 133.613 93.2315 137.957C83.595 146.917 74.5506 151.823 68.4002 151.823C67.071 151.793 65.9473 151.521 65.0592 151.025C61.0354 148.73 59.2894 139.945 60.6487 128.653C60.975 125.874 61.5067 122.95 62.1592 119.965L62.1652 119.965ZM89.7152 123.832C92.3735 123.953 95.0923 124.037 97.8412 124.037C100.62 124.037 103.369 123.977 106.058 123.832C103.4 127.288 100.651 130.448 97.9319 133.287C95.1829 130.448 92.4339 127.288 89.7152 123.832Z" fill="#ffffff" fill-rule="evenodd" opacity="1" stroke="none"/>
</g>
</g>
</g>
</svg>
